solid Untitled-551f0e4e
facet normal 0.0 0.0 1.0
  outer loop
    vertex -10.895784582336058 -34.24889992525259 1.9999999999999998
    vertex -6.295784582336043 -31.758561486133246 1.9999999999999998
    vertex -10.895784582336058 -18.233561486133247 1.9999999999999998
  endloop
endfacet
facet normal 0.0 0.0 1.0
  outer loop
    vertex -6.295784582336043 -31.758561486133246 1.9999999999999998
    vertex -10.895784582336058 -34.24889992525259 1.9999999999999998
    vertex -0.2957845823360315 -36.35856148613324 1.9999999999999998
  endloop
endfacet
facet normal 0.0 0.0 1.0
  outer loop
    vertex -10.895784582336058 -18.233561486133247 1.9999999999999998
    vertex -6.295784582336043 -31.758561486133246 1.9999999999999998
    vertex -10.895784582336058 -0.5085614861332473 1.9999999999999998
  endloop
endfacet
facet normal 0.0 0.0 1.0
  outer loop
    vertex -10.895784582336058 -0.5085614861332473 1.9999999999999998
    vertex -6.295784582336043 -31.758561486133246 1.9999999999999998
    vertex -10.895784582336058 18.016438513866763 1.9999999999999998
  endloop
endfacet
facet normal 0.0 0.0 1.0
  outer loop
    vertex -10.895784582336058 18.016438513866763 1.9999999999999998
    vertex -6.295784582336043 -31.758561486133246 1.9999999999999998
    vertex -10.895784582336058 35.74143851386675 1.9999999999999998
  endloop
endfacet
facet normal 0.0 0.0 1.0
  outer loop
    vertex -6.295784582336043 -31.758561486133246 1.9999999999999998
    vertex -0.2957845823360315 -36.35856148613324 1.9999999999999998
    vertex 6.104215417663957 -31.758561486133246 1.9999999999999998
  endloop
endfacet
facet normal 0.0 0.0 1.0
  outer loop
    vertex 6.104215417663957 -31.758561486133246 1.9999999999999998
    vertex -0.2957845823360315 -36.35856148613324 1.9999999999999998
    vertex 11.104215417663948 -36.35856148613324 1.9999999999999998
  endloop
endfacet
facet normal 0.0 0.0 1.0
  outer loop
    vertex 6.104215417663957 -31.758561486133246 1.9999999999999998
    vertex 11.104215417663948 -36.35856148613324 1.9999999999999998
    vertex 6.104215417663957 -26.85856148613325 1.9999999999999998
  endloop
endfacet
facet normal 0.0 0.0 1.0
  outer loop
    vertex 6.104215417663957 -26.85856148613325 1.9999999999999998
    vertex 11.104215417663948 -36.35856148613324 1.9999999999999998
    vertex 6.104215417663957 -17.25856148613324 1.9999999999999998
  endloop
endfacet
facet normal 0.0 0.0 1.0
  outer loop
    vertex 6.104215417663957 -17.25856148613324 1.9999999999999998
    vertex 11.104215417663948 -36.35856148613324 1.9999999999999998
    vertex 6.104215417663957 -12.358561486133254 1.9999999999999998
  endloop
endfacet
facet normal 0.0 0.0 1.0
  outer loop
    vertex 6.104215417663957 -12.358561486133254 1.9999999999999998
    vertex 11.104215417663948 -36.35856148613324 1.9999999999999998
    vertex 6.104215417663957 -2.7585614861332544 1.9999999999999998
  endloop
endfacet
facet normal 0.0 0.0 1.0
  outer loop
    vertex 6.104215417663957 -2.7585614861332544 1.9999999999999998
    vertex 11.104215417663948 -36.35856148613324 1.9999999999999998
    vertex 6.104215417663957 2.1414385138667367 1.9999999999999998
  endloop
endfacet
facet normal 0.0 0.0 1.0
  outer loop
    vertex 6.104215417663957 2.1414385138667367 1.9999999999999998
    vertex 11.104215417663948 -36.35856148613324 1.9999999999999998
    vertex 6.104215417663957 11.741438513866747 1.9999999999999998
  endloop
endfacet
facet normal 0.0 0.0 1.0
  outer loop
    vertex 6.104215417663957 11.741438513866747 1.9999999999999998
    vertex 11.104215417663948 -36.35856148613324 1.9999999999999998
    vertex 6.104215417663957 16.64143851386674 1.9999999999999998
  endloop
endfacet
facet normal 0.0 0.0 1.0
  outer loop
    vertex 6.104215417663957 16.64143851386674 1.9999999999999998
    vertex 11.104215417663948 -36.35856148613324 1.9999999999999998
    vertex 6.104215417663957 26.241438513866743 1.9999999999999998
  endloop
endfacet
facet normal 0.0 0.0 1.0
  outer loop
    vertex 6.104215417663957 26.241438513866743 1.9999999999999998
    vertex 11.104215417663948 -36.35856148613324 1.9999999999999998
    vertex 6.104215417663957 31.141438513866756 1.9999999999999998
  endloop
endfacet
facet normal 0.0 0.0 1.0
  outer loop
    vertex 6.104215417663957 31.141438513866756 1.9999999999999998
    vertex 11.104215417663948 -36.35856148613324 1.9999999999999998
    vertex 10.70421541766395 -18.63356148613325 1.9999999999999998
  endloop
endfacet
facet normal 0.0 0.0 1.0
  outer loop
    vertex -10.895784582336058 35.74143851386675 1.9999999999999998
    vertex -6.295784582336043 31.141438513866756 1.9999999999999998
    vertex 10.70421541766395 36.141438513866746 1.9999999999999998
  endloop
endfacet
facet normal 0.0 0.0 1.0
  outer loop
    vertex -6.295784582336043 31.141438513866756 1.9999999999999998
    vertex -10.895784582336058 35.74143851386675 1.9999999999999998
    vertex -6.295784582336043 -31.758561486133246 1.9999999999999998
  endloop
endfacet
facet normal 0.0 0.0 1.0
  outer loop
    vertex -6.295784582336043 31.141438513866756 1.9999999999999998
    vertex -6.295784582336043 -31.758561486133246 1.9999999999999998
    vertex -6.295784582336043 -26.85856148613325 1.9999999999999998
  endloop
endfacet
facet normal 0.0 0.0 1.0
  outer loop
    vertex -6.295784582336043 31.141438513866756 1.9999999999999998
    vertex -6.295784582336043 -26.85856148613325 1.9999999999999998
    vertex -6.295784582336043 -17.25856148613324 1.9999999999999998
  endloop
endfacet
facet normal 0.0 0.0 1.0
  outer loop
    vertex -6.295784582336043 31.141438513866756 1.9999999999999998
    vertex -6.295784582336043 -17.25856148613324 1.9999999999999998
    vertex -6.295784582336043 -12.358561486133254 1.9999999999999998
  endloop
endfacet
facet normal 0.0 0.0 1.0
  outer loop
    vertex -6.295784582336043 31.141438513866756 1.9999999999999998
    vertex -6.295784582336043 -12.358561486133254 1.9999999999999998
    vertex -6.295784582336043 -2.7585614861332544 1.9999999999999998
  endloop
endfacet
facet normal 0.0 0.0 1.0
  outer loop
    vertex -6.295784582336043 31.141438513866756 1.9999999999999998
    vertex -6.295784582336043 -2.7585614861332544 1.9999999999999998
    vertex -6.295784582336043 2.1414385138667367 1.9999999999999998
  endloop
endfacet
facet normal 0.0 0.0 1.0
  outer loop
    vertex -6.295784582336043 31.141438513866756 1.9999999999999998
    vertex -6.295784582336043 2.1414385138667367 1.9999999999999998
    vertex -6.295784582336043 11.741438513866747 1.9999999999999998
  endloop
endfacet
facet normal 0.0 0.0 1.0
  outer loop
    vertex -6.295784582336043 31.141438513866756 1.9999999999999998
    vertex -6.295784582336043 11.741438513866747 1.9999999999999998
    vertex -6.295784582336043 16.64143851386674 1.9999999999999998
  endloop
endfacet
facet normal 0.0 0.0 1.0
  outer loop
    vertex -6.295784582336043 31.141438513866756 1.9999999999999998
    vertex -6.295784582336043 16.64143851386674 1.9999999999999998
    vertex -6.295784582336043 26.241438513866743 1.9999999999999998
  endloop
endfacet
facet normal 0.0 0.0 1.0
  outer loop
    vertex 10.70421541766395 36.141438513866746 1.9999999999999998
    vertex -6.295784582336043 31.141438513866756 1.9999999999999998
    vertex 6.104215417663957 31.141438513866756 1.9999999999999998
  endloop
endfacet
facet normal 0.0 0.0 1.0
  outer loop
    vertex 10.70421541766395 36.141438513866746 1.9999999999999998
    vertex 6.104215417663957 31.141438513866756 1.9999999999999998
    vertex 10.70421541766395 -18.63356148613325 1.9999999999999998
  endloop
endfacet
facet normal 0.0 0.0 1.0
  outer loop
    vertex 10.70421541766395 36.141438513866746 1.9999999999999998
    vertex 10.70421541766395 -18.63356148613325 1.9999999999999998
    vertex 10.70421541766395 -0.10856148613324801 1.9999999999999998
  endloop
endfacet
facet normal 0.0 0.0 1.0
  outer loop
    vertex 10.70421541766395 36.141438513866746 1.9999999999999998
    vertex 10.70421541766395 -0.10856148613324801 1.9999999999999998
    vertex 10.70421541766395 17.616438513866765 1.9999999999999998
  endloop
endfacet
facet normal 0.0 0.0 1.0
  outer loop
    vertex 6.104215417663957 16.64143851386674 1.9999999999999998
    vertex -6.295784582336043 26.241438513866743 1.9999999999999998
    vertex -6.295784582336043 16.64143851386674 1.9999999999999998
  endloop
endfacet
facet normal 0.0 0.0 1.0
  outer loop
    vertex -6.295784582336043 26.241438513866743 1.9999999999999998
    vertex 6.104215417663957 16.64143851386674 1.9999999999999998
    vertex 6.104215417663957 26.241438513866743 1.9999999999999998
  endloop
endfacet
facet normal 0.0 0.0 1.0
  outer loop
    vertex 6.104215417663957 2.1414385138667367 1.9999999999999998
    vertex -6.295784582336043 11.741438513866747 1.9999999999999998
    vertex -6.295784582336043 2.1414385138667367 1.9999999999999998
  endloop
endfacet
facet normal 0.0 0.0 1.0
  outer loop
    vertex -6.295784582336043 11.741438513866747 1.9999999999999998
    vertex 6.104215417663957 2.1414385138667367 1.9999999999999998
    vertex 6.104215417663957 11.741438513866747 1.9999999999999998
  endloop
endfacet
facet normal 0.0 0.0 1.0
  outer loop
    vertex 6.104215417663957 -12.358561486133254 1.9999999999999998
    vertex -6.295784582336043 -2.7585614861332544 1.9999999999999998
    vertex -6.295784582336043 -12.358561486133254 1.9999999999999998
  endloop
endfacet
facet normal 0.0 0.0 1.0
  outer loop
    vertex -6.295784582336043 -2.7585614861332544 1.9999999999999998
    vertex 6.104215417663957 -12.358561486133254 1.9999999999999998
    vertex 6.104215417663957 -2.7585614861332544 1.9999999999999998
  endloop
endfacet
facet normal 0.0 0.0 1.0
  outer loop
    vertex 6.104215417663957 -26.85856148613325 1.9999999999999998
    vertex -6.295784582336043 -17.25856148613324 1.9999999999999998
    vertex -6.295784582336043 -26.85856148613325 1.9999999999999998
  endloop
endfacet
facet normal 0.0 0.0 1.0
  outer loop
    vertex -6.295784582336043 -17.25856148613324 1.9999999999999998
    vertex 6.104215417663957 -26.85856148613325 1.9999999999999998
    vertex 6.104215417663957 -17.25856148613324 1.9999999999999998
  endloop
endfacet
facet normal -1.0 -3.9773857299688266e-17 -0.0
  outer loop
    vertex -15.895784582336049 -0.5085614861332473 1.9999999999999998
    vertex -15.895784582336049 -18.233561486133247 0.0
    vertex -15.895784582336049 -18.233561486133247 1.9999999999999998
  endloop
endfacet
facet normal -1.0 -3.9773857299688266e-17 -0.0
  outer loop
    vertex -15.895784582336049 -18.233561486133247 0.0
    vertex -15.895784582336049 -0.5085614861332473 1.9999999999999998
    vertex -15.895784582336049 -0.5085614861332473 0.0
  endloop
endfacet
facet normal 0.0 -1.0 0.0
  outer loop
    vertex 6.104215417663957 2.1414385138667367 1.9999999999999998
    vertex -6.295784582336043 2.1414385138667367 0.9999999999999999
    vertex 6.104215417663957 2.1414385138667367 0.9999999999999999
  endloop
endfacet
facet normal 0.0 -1.0 0.0
  outer loop
    vertex -6.295784582336043 2.1414385138667367 0.9999999999999999
    vertex 6.104215417663957 2.1414385138667367 1.9999999999999998
    vertex -6.295784582336043 2.1414385138667367 1.9999999999999998
  endloop
endfacet
facet normal 0.0 -1.0 0.0
  outer loop
    vertex 6.104215417663957 -12.358561486133254 1.9999999999999998
    vertex -6.295784582336043 -12.358561486133254 0.9999999999999999
    vertex 6.104215417663957 -12.358561486133254 0.9999999999999999
  endloop
endfacet
facet normal 0.0 -1.0 0.0
  outer loop
    vertex -6.295784582336043 -12.358561486133254 0.9999999999999999
    vertex 6.104215417663957 -12.358561486133254 1.9999999999999998
    vertex -6.295784582336043 -12.358561486133254 1.9999999999999998
  endloop
endfacet
facet normal -0.8574929257125443 2.0925267401496893e-17 0.5144957554275265
  outer loop
    vertex -7.295784582336041 32.14143851386675 7.999999999999999
    vertex -10.895784582336058 18.016438513866763 1.9999999999999998
    vertex -7.295784582336041 18.016438513866763 7.999999999999999
  endloop
endfacet
facet normal -0.8574929257125443 2.0925267401496893e-17 0.5144957554275265
  outer loop
    vertex -10.895784582336058 18.016438513866763 1.9999999999999998
    vertex -7.295784582336041 32.14143851386675 7.999999999999999
    vertex -10.895784582336058 35.74143851386675 1.9999999999999998
  endloop
endfacet
facet normal 0.0 1.0 0.0
  outer loop
    vertex -10.895784582336058 45.741438513866754 1.9999999999999998
    vertex 0.10421541766394524 45.741438513866754 0.0
    vertex -10.895784582336058 45.741438513866754 0.0
  endloop
endfacet
facet normal 0.0 1.0 0.0
  outer loop
    vertex 0.10421541766394524 45.741438513866754 0.0
    vertex -10.895784582336058 45.741438513866754 1.9999999999999998
    vertex 0.10421541766394524 45.741438513866754 1.9999999999999998
  endloop
endfacet
facet normal 0.8574929257125441 0.0 0.5144957554275267
  outer loop
    vertex 7.104215417663955 -17.173663502889717 7.999999999999999
    vertex 7.104215417663955 -32.758561486133246 7.999999999999999
    vertex 10.70421541766395 -18.63356148613325 1.9999999999999998
  endloop
endfacet
facet normal -0.0 -1.0 -0.0
  outer loop
    vertex 15.704215417663939 -0.10856148613324801 1.9999999999999998
    vertex 10.70421541766395 -0.10856148613324801 0.0
    vertex 15.704215417663939 -0.10856148613324801 0.0
  endloop
endfacet
facet normal -0.0 -1.0 -0.0
  outer loop
    vertex 10.70421541766395 -0.10856148613324801 0.0
    vertex 15.704215417663939 -0.10856148613324801 1.9999999999999998
    vertex 10.70421541766395 -0.10856148613324801 1.9999999999999998
  endloop
endfacet
facet normal 1.0 0.0 0.0
  outer loop
    vertex -0.2957845823360315 -36.35856148613324 0.0
    vertex -0.2957845823360315 -41.35856148613325 1.9999999999999998
    vertex -0.2957845823360315 -41.35856148613325 0.0
  endloop
endfacet
facet normal 1.0 0.0 0.0
  outer loop
    vertex -0.2957845823360315 -41.35856148613325 1.9999999999999998
    vertex -0.2957845823360315 -36.35856148613324 0.0
    vertex -0.2957845823360315 -36.35856148613324 1.9999999999999998
  endloop
endfacet
facet normal 1.0 0.0 0.0
  outer loop
    vertex 10.70421541766395 50.74143851386677 0.0
    vertex 10.70421541766395 45.741438513866754 1.9999999999999998
    vertex 10.70421541766395 45.741438513866754 0.0
  endloop
endfacet
facet normal 1.0 0.0 0.0
  outer loop
    vertex 10.70421541766395 45.741438513866754 1.9999999999999998
    vertex 10.70421541766395 50.74143851386677 0.0
    vertex 10.70421541766395 50.74143851386677 1.9999999999999998
  endloop
endfacet
facet normal -1.0 0.0 0.0
  outer loop
    vertex 6.104215417663957 16.64143851386674 1.9999999999999998
    vertex 6.104215417663957 11.741438513866747 0.9999999999999999
    vertex 6.104215417663957 11.741438513866747 1.9999999999999998
  endloop
endfacet
facet normal -1.0 0.0 0.0
  outer loop
    vertex 6.104215417663957 11.741438513866747 0.9999999999999999
    vertex 6.104215417663957 16.64143851386674 1.9999999999999998
    vertex 6.104215417663957 16.64143851386674 0.9999999999999999
  endloop
endfacet
facet normal 0.0 -1.0 0.0
  outer loop
    vertex 1.4042154176639428 43.94143851386676 1.9999999999999998
    vertex -1.5957845823360517 43.94143851386676 0.0
    vertex 1.4042154176639428 43.94143851386676 0.0
  endloop
endfacet
facet normal 0.0 -1.0 0.0
  outer loop
    vertex -1.5957845823360517 43.94143851386676 0.0
    vertex 1.4042154176639428 43.94143851386676 1.9999999999999998
    vertex -1.5957845823360517 43.94143851386676 1.9999999999999998
  endloop
endfacet
facet normal -1.0 0.0 0.0
  outer loop
    vertex 0.10421541766394524 50.74143851386677 1.9999999999999998
    vertex 0.10421541766394524 45.741438513866754 0.0
    vertex 0.10421541766394524 45.741438513866754 1.9999999999999998
  endloop
endfacet
facet normal -1.0 0.0 0.0
  outer loop
    vertex 0.10421541766394524 45.741438513866754 0.0
    vertex 0.10421541766394524 50.74143851386677 1.9999999999999998
    vertex 0.10421541766394524 50.74143851386677 0.0
  endloop
endfacet
facet normal -0.0 -1.0 -0.0
  outer loop
    vertex 15.704215417663939 -41.35856148613325 1.9999999999999998
    vertex 11.104215417663948 -41.35856148613325 0.0
    vertex 15.704215417663939 -41.35856148613325 0.0
  endloop
endfacet
facet normal -0.0 -1.0 -0.0
  outer loop
    vertex 11.104215417663948 -41.35856148613325 0.0
    vertex 15.704215417663939 -41.35856148613325 1.9999999999999998
    vertex 11.104215417663948 -41.35856148613325 1.9999999999999998
  endloop
endfacet
facet normal -1.0 -0.0 -0.0
  outer loop
    vertex 6.104215417663957 -26.85856148613325 7.999999999999999
    vertex 6.104215417663957 -31.758561486133246 1.9999999999999998
    vertex 6.104215417663957 -31.758561486133246 7.999999999999999
  endloop
endfacet
facet normal -1.0 -0.0 -0.0
  outer loop
    vertex 6.104215417663957 -31.758561486133246 1.9999999999999998
    vertex 6.104215417663957 -26.85856148613325 7.999999999999999
    vertex 6.104215417663957 -26.85856148613325 1.9999999999999998
  endloop
endfacet
facet normal -0.0 -1.0 -0.0
  outer loop
    vertex 11.104215417663948 -36.35856148613324 1.9999999999999998
    vertex -0.2957845823360315 -36.35856148613324 0.0
    vertex 11.104215417663948 -36.35856148613324 0.0
  endloop
endfacet
facet normal -0.0 -1.0 -0.0
  outer loop
    vertex -0.2957845823360315 -36.35856148613324 0.0
    vertex 11.104215417663948 -36.35856148613324 1.9999999999999998
    vertex -0.2957845823360315 -36.35856148613324 1.9999999999999998
  endloop
endfacet
facet normal 0.0 0.0 1.0
  outer loop
    vertex -0.2957845823360315 -41.35856148613325 1.9999999999999998
    vertex -10.895784582336058 -34.24889992525259 1.9999999999999998
    vertex -10.895784582336058 -41.35856148613325 1.9999999999999998
  endloop
endfacet
facet normal 0.0 0.0 1.0
  outer loop
    vertex -10.895784582336058 -34.24889992525259 1.9999999999999998
    vertex -0.2957845823360315 -41.35856148613325 1.9999999999999998
    vertex -0.2957845823360315 -36.35856148613324 1.9999999999999998
  endloop
endfacet
facet normal 0.0 -1.0 0.0
  outer loop
    vertex 6.104215417663957 16.64143851386674 1.9999999999999998
    vertex -6.295784582336043 16.64143851386674 0.9999999999999999
    vertex 6.104215417663957 16.64143851386674 0.9999999999999999
  endloop
endfacet
facet normal 0.0 -1.0 0.0
  outer loop
    vertex -6.295784582336043 16.64143851386674 0.9999999999999999
    vertex 6.104215417663957 16.64143851386674 1.9999999999999998
    vertex -6.295784582336043 16.64143851386674 1.9999999999999998
  endloop
endfacet
facet normal 0.0 1.0 0.0
  outer loop
    vertex -6.295784582336043 11.741438513866747 1.9999999999999998
    vertex 6.104215417663957 11.741438513866747 0.9999999999999999
    vertex -6.295784582336043 11.741438513866747 0.9999999999999999
  endloop
endfacet
facet normal 0.0 1.0 0.0
  outer loop
    vertex 6.104215417663957 11.741438513866747 0.9999999999999999
    vertex -6.295784582336043 11.741438513866747 1.9999999999999998
    vertex 6.104215417663957 11.741438513866747 1.9999999999999998
  endloop
endfacet
facet normal 1.0 0.0 0.0
  outer loop
    vertex -6.295784582336043 31.141438513866756 0.9999999999999999
    vertex -6.295784582336043 26.241438513866743 1.9999999999999998
    vertex -6.295784582336043 26.241438513866743 0.9999999999999999
  endloop
endfacet
facet normal 1.0 0.0 0.0
  outer loop
    vertex -6.295784582336043 26.241438513866743 1.9999999999999998
    vertex -6.295784582336043 31.141438513866756 0.9999999999999999
    vertex -6.295784582336043 31.141438513866756 1.9999999999999998
  endloop
endfacet
facet normal 1.0 0.0 0.0
  outer loop
    vertex -6.295784582336043 2.1414385138667367 1.9999999999999998
    vertex -6.295784582336043 -2.7585614861332544 7.999999999999999
    vertex -6.295784582336043 -2.7585614861332544 1.9999999999999998
  endloop
endfacet
facet normal 1.0 0.0 0.0
  outer loop
    vertex -6.295784582336043 -2.7585614861332544 7.999999999999999
    vertex -6.295784582336043 2.1414385138667367 1.9999999999999998
    vertex -6.295784582336043 2.1414385138667367 7.999999999999999
  endloop
endfacet
facet normal -0.7071067811865449 -0.7071067811865502 0.0
  outer loop
    vertex 2.9042154176639627 42.441438513866736 1.9999999999999998
    vertex 1.4042154176639428 43.94143851386676 0.0
    vertex 2.9042154176639627 42.441438513866736 0.0
  endloop
endfacet
facet normal -0.7071067811865449 -0.7071067811865502 0.0
  outer loop
    vertex 1.4042154176639428 43.94143851386676 0.0
    vertex 2.9042154176639627 42.441438513866736 1.9999999999999998
    vertex 1.4042154176639428 43.94143851386676 1.9999999999999998
  endloop
endfacet
facet normal 1.0 0.0 0.0
  outer loop
    vertex -3.0957845823360715 42.441438513866736 0.0
    vertex -3.0957845823360715 37.94143851386674 1.9999999999999998
    vertex -3.0957845823360715 37.94143851386674 0.0
  endloop
endfacet
facet normal 1.0 0.0 0.0
  outer loop
    vertex -3.0957845823360715 37.94143851386674 1.9999999999999998
    vertex -3.0957845823360715 42.441438513866736 0.0
    vertex -3.0957845823360715 42.441438513866736 1.9999999999999998
  endloop
endfacet
facet normal 1.0 0.0 0.0
  outer loop
    vertex -6.295784582336043 -26.85856148613325 0.9999999999999999
    vertex -6.295784582336043 -31.758561486133246 1.9999999999999998
    vertex -6.295784582336043 -31.758561486133246 0.9999999999999999
  endloop
endfacet
facet normal 1.0 0.0 0.0
  outer loop
    vertex -6.295784582336043 -31.758561486133246 1.9999999999999998
    vertex -6.295784582336043 -26.85856148613325 0.9999999999999999
    vertex -6.295784582336043 -26.85856148613325 1.9999999999999998
  endloop
endfacet
facet normal 0.0 1.0 0.0
  outer loop
    vertex -6.295784582336043 -31.758561486133246 1.9999999999999998
    vertex 6.104215417663957 -31.758561486133246 0.9999999999999999
    vertex -6.295784582336043 -31.758561486133246 0.9999999999999999
  endloop
endfacet
facet normal 0.0 1.0 0.0
  outer loop
    vertex 6.104215417663957 -31.758561486133246 0.9999999999999999
    vertex -6.295784582336043 -31.758561486133246 1.9999999999999998
    vertex 6.104215417663957 -31.758561486133246 1.9999999999999998
  endloop
endfacet
facet normal -0.8574929257125443 -1.8287159213863727e-18 0.5144957554275263
  outer loop
    vertex -7.295784582336041 2.376080533820219 7.999999999999999
    vertex -10.895784582336058 18.016438513866763 1.9999999999999998
    vertex -10.895784582336058 -0.5085614861332473 1.9999999999999998
  endloop
endfacet
facet normal -0.8574929257125443 -1.8287159213863727e-18 0.5144957554275263
  outer loop
    vertex -10.895784582336058 18.016438513866763 1.9999999999999998
    vertex -7.295784582336041 2.376080533820219 7.999999999999999
    vertex -7.295784582336041 18.016438513866763 7.999999999999999
  endloop
endfacet
facet normal 0.0 0.0 1.0
  outer loop
    vertex -10.895784582336058 18.016438513866763 1.9999999999999998
    vertex -15.895784582336049 35.74143851386675 1.9999999999999998
    vertex -15.895784582336049 18.016438513866763 1.9999999999999998
  endloop
endfacet
facet normal 0.0 0.0 1.0
  outer loop
    vertex -15.895784582336049 35.74143851386675 1.9999999999999998
    vertex -10.895784582336058 18.016438513866763 1.9999999999999998
    vertex -10.895784582336058 35.74143851386675 1.9999999999999998
  endloop
endfacet
facet normal 0.0 0.0 1.0
  outer loop
    vertex 15.704215417663939 -41.35856148613325 1.9999999999999998
    vertex 11.104215417663948 -36.35856148613324 1.9999999999999998
    vertex 11.104215417663948 -41.35856148613325 1.9999999999999998
  endloop
endfacet
facet normal 0.0 0.0 1.0
  outer loop
    vertex 11.104215417663948 -36.35856148613324 1.9999999999999998
    vertex 15.704215417663939 -18.63356148613325 1.9999999999999998
    vertex 10.70421541766395 -18.63356148613325 1.9999999999999998
  endloop
endfacet
facet normal 0.0 0.0 1.0
  outer loop
    vertex 15.704215417663939 -18.63356148613325 1.9999999999999998
    vertex 11.104215417663948 -36.35856148613324 1.9999999999999998
    vertex 15.704215417663939 -41.35856148613325 1.9999999999999998
  endloop
endfacet
facet normal 0.0 1.0 0.0
  outer loop
    vertex -6.295784582336043 -17.25856148613324 7.999999999999999
    vertex 6.104215417663957 -17.25856148613324 1.9999999999999998
    vertex -6.295784582336043 -17.25856148613324 1.9999999999999998
  endloop
endfacet
facet normal 0.0 1.0 0.0
  outer loop
    vertex 6.104215417663957 -17.25856148613324 1.9999999999999998
    vertex -6.295784582336043 -17.25856148613324 7.999999999999999
    vertex 6.104215417663957 -17.25856148613324 7.999999999999999
  endloop
endfacet
facet normal 1.0 0.0 0.0
  outer loop
    vertex -6.295784582336043 -26.85856148613325 1.9999999999999998
    vertex -6.295784582336043 -31.758561486133246 7.999999999999999
    vertex -6.295784582336043 -31.758561486133246 1.9999999999999998
  endloop
endfacet
facet normal 1.0 0.0 0.0
  outer loop
    vertex -6.295784582336043 -31.758561486133246 7.999999999999999
    vertex -6.295784582336043 -26.85856148613325 1.9999999999999998
    vertex -6.295784582336043 -26.85856148613325 7.999999999999999
  endloop
endfacet
facet normal -0.8574929257125443 -8.445766952029212e-18 0.5144957554275265
  outer loop
    vertex -7.295784582336041 -11.585072993249463 7.999999999999999
    vertex -10.895784582336058 -0.5085614861332473 1.9999999999999998
    vertex -10.895784582336058 -18.233561486133247 1.9999999999999998
  endloop
endfacet
facet normal -0.8574929257125443 -8.445766952029212e-18 0.5144957554275265
  outer loop
    vertex -10.895784582336058 -0.5085614861332473 1.9999999999999998
    vertex -7.295784582336041 -11.585072993249463 7.999999999999999
    vertex -7.295784582336041 2.376080533820219 7.999999999999999
  endloop
endfacet
facet normal 0.0 1.0 0.0
  outer loop
    vertex -6.295784582336043 -31.758561486133246 7.999999999999999
    vertex 6.104215417663957 -31.758561486133246 1.9999999999999998
    vertex -6.295784582336043 -31.758561486133246 1.9999999999999998
  endloop
endfacet
facet normal 0.0 1.0 0.0
  outer loop
    vertex 6.104215417663957 -31.758561486133246 1.9999999999999998
    vertex -6.295784582336043 -31.758561486133246 7.999999999999999
    vertex 6.104215417663957 -31.758561486133246 7.999999999999999
  endloop
endfacet
facet normal 0.0 0.0 1.0
  outer loop
    vertex -10.895784582336058 -18.233561486133247 1.9999999999999998
    vertex -15.895784582336049 -0.5085614861332473 1.9999999999999998
    vertex -15.895784582336049 -18.233561486133247 1.9999999999999998
  endloop
endfacet
facet normal 0.0 0.0 1.0
  outer loop
    vertex -15.895784582336049 -0.5085614861332473 1.9999999999999998
    vertex -10.895784582336058 -18.233561486133247 1.9999999999999998
    vertex -10.895784582336058 -0.5085614861332473 1.9999999999999998
  endloop
endfacet
facet normal 0.0 1.0 0.0
  outer loop
    vertex -15.895784582336049 -0.5085614861332473 1.9999999999999998
    vertex -10.895784582336058 -0.5085614861332473 0.0
    vertex -15.895784582336049 -0.5085614861332473 0.0
  endloop
endfacet
facet normal 0.0 1.0 0.0
  outer loop
    vertex -10.895784582336058 -0.5085614861332473 0.0
    vertex -15.895784582336049 -0.5085614861332473 1.9999999999999998
    vertex -10.895784582336058 -0.5085614861332473 1.9999999999999998
  endloop
endfacet
facet normal 0.0 1.0 0.0
  outer loop
    vertex 0.10421541766394524 50.74143851386677 1.9999999999999998
    vertex 10.70421541766395 50.74143851386677 0.0
    vertex 0.10421541766394524 50.74143851386677 0.0
  endloop
endfacet
facet normal 0.0 1.0 0.0
  outer loop
    vertex 10.70421541766395 50.74143851386677 0.0
    vertex 0.10421541766394524 50.74143851386677 1.9999999999999998
    vertex 10.70421541766395 50.74143851386677 1.9999999999999998
  endloop
endfacet
facet normal -1.0 0.0 0.0
  outer loop
    vertex 6.104215417663957 -12.358561486133254 1.9999999999999998
    vertex 6.104215417663957 -17.25856148613324 0.9999999999999999
    vertex 6.104215417663957 -17.25856148613324 1.9999999999999998
  endloop
endfacet
facet normal -1.0 0.0 0.0
  outer loop
    vertex 6.104215417663957 -17.25856148613324 0.9999999999999999
    vertex 6.104215417663957 -12.358561486133254 1.9999999999999998
    vertex 6.104215417663957 -12.358561486133254 0.9999999999999999
  endloop
endfacet
facet normal -0.0 -1.0 -0.0
  outer loop
    vertex -10.895784582336058 -18.233561486133247 1.9999999999999998
    vertex -15.895784582336049 -18.233561486133247 0.0
    vertex -10.895784582336058 -18.233561486133247 0.0
  endloop
endfacet
facet normal -0.0 -1.0 -0.0
  outer loop
    vertex -15.895784582336049 -18.233561486133247 0.0
    vertex -10.895784582336058 -18.233561486133247 1.9999999999999998
    vertex -15.895784582336049 -18.233561486133247 1.9999999999999998
  endloop
endfacet
facet normal -1.0 0.0 0.0
  outer loop
    vertex 6.104215417663957 2.1414385138667367 1.9999999999999998
    vertex 6.104215417663957 -2.7585614861332544 0.9999999999999999
    vertex 6.104215417663957 -2.7585614861332544 1.9999999999999998
  endloop
endfacet
facet normal -1.0 0.0 0.0
  outer loop
    vertex 6.104215417663957 -2.7585614861332544 0.9999999999999999
    vertex 6.104215417663957 2.1414385138667367 1.9999999999999998
    vertex 6.104215417663957 2.1414385138667367 0.9999999999999999
  endloop
endfacet
facet normal 0.8370960922860247 0.018890743972604172 0.546729615140454
  outer loop
    vertex 10.70421541766395 -18.63356148613325 1.9999999999999998
    vertex 7.104215417663955 -32.758561486133246 7.999999999999999
    vertex 11.104215417663948 -36.35856148613324 1.9999999999999998
  endloop
endfacet
facet normal 9.096666072735155e-16 1.0 -1.6954361172086038e-46
  outer loop
    vertex -6.295784582336043 -2.7585614861332544 1.9999999999999998
    vertex 6.104215417663957 -2.7585614861332544 0.9999999999999999
    vertex -6.295784582336043 -2.7585614861332544 0.9999999999999999
  endloop
endfacet
facet normal 9.096666072735155e-16 1.0 -1.6954361172086038e-46
  outer loop
    vertex 6.104215417663957 -2.7585614861332544 0.9999999999999999
    vertex -6.295784582336043 -2.7585614861332544 1.9999999999999998
    vertex 6.104215417663957 -2.7585614861332544 1.9999999999999998
  endloop
endfacet
facet normal -1.0 -0.0 -0.0
  outer loop
    vertex 6.104215417663957 -12.358561486133254 7.999999999999999
    vertex 6.104215417663957 -17.25856148613324 1.9999999999999998
    vertex 6.104215417663957 -17.25856148613324 7.999999999999999
  endloop
endfacet
facet normal -1.0 -0.0 -0.0
  outer loop
    vertex 6.104215417663957 -17.25856148613324 1.9999999999999998
    vertex 6.104215417663957 -12.358561486133254 7.999999999999999
    vertex 6.104215417663957 -12.358561486133254 1.9999999999999998
  endloop
endfacet
facet normal 1.0 0.0 0.0
  outer loop
    vertex -6.295784582336043 -12.358561486133254 1.9999999999999998
    vertex -6.295784582336043 -17.25856148613324 7.999999999999999
    vertex -6.295784582336043 -17.25856148613324 1.9999999999999998
  endloop
endfacet
facet normal 1.0 0.0 0.0
  outer loop
    vertex -6.295784582336043 -17.25856148613324 7.999999999999999
    vertex -6.295784582336043 -12.358561486133254 1.9999999999999998
    vertex -6.295784582336043 -12.358561486133254 7.999999999999999
  endloop
endfacet
facet normal -2.549300786922609e-17 -0.8574929257125443 0.5144957554275266
  outer loop
    vertex 7.104215417663955 -32.758561486133246 7.999999999999999
    vertex -0.2957845823360315 -36.35856148613324 1.9999999999999998
    vertex 11.104215417663948 -36.35856148613324 1.9999999999999998
  endloop
endfacet
facet normal -2.549300786922609e-17 -0.8574929257125443 0.5144957554275266
  outer loop
    vertex -0.2957845823360315 -36.35856148613324 1.9999999999999998
    vertex 7.104215417663955 -32.758561486133246 7.999999999999999
    vertex -7.295784582336041 -32.758561486133246 7.999999999999999
  endloop
endfacet
facet normal 0.8574929257125441 1.0264125456638308e-17 0.5144957554275267
  outer loop
    vertex 10.70421541766395 17.616438513866765 1.9999999999999998
    vertex 7.104215417663955 14.718514240503488 7.999999999999999
    vertex 10.70421541766395 -0.10856148613324801 1.9999999999999998
  endloop
endfacet
facet normal -1.0 0.0 0.0
  outer loop
    vertex 6.104215417663957 -26.85856148613325 1.9999999999999998
    vertex 6.104215417663957 -31.758561486133246 0.9999999999999999
    vertex 6.104215417663957 -31.758561486133246 1.9999999999999998
  endloop
endfacet
facet normal -1.0 0.0 0.0
  outer loop
    vertex 6.104215417663957 -31.758561486133246 0.9999999999999999
    vertex 6.104215417663957 -26.85856148613325 1.9999999999999998
    vertex 6.104215417663957 -26.85856148613325 0.9999999999999999
  endloop
endfacet
facet normal -1.0 0.0 0.0
  outer loop
    vertex -10.895784582336058 18.016438513866763 1.9999999999999998
    vertex -10.895784582336058 -0.5085614861332473 0.0
    vertex -10.895784582336058 -0.5085614861332473 1.9999999999999998
  endloop
endfacet
facet normal -1.0 0.0 0.0
  outer loop
    vertex -10.895784582336058 -0.5085614861332473 0.0
    vertex -10.895784582336058 18.016438513866763 1.9999999999999998
    vertex -10.895784582336058 18.016438513866763 0.0
  endloop
endfacet
facet normal 0.0 1.0 0.0
  outer loop
    vertex 10.70421541766395 -18.63356148613325 1.9999999999999998
    vertex 15.704215417663939 -18.63356148613325 0.0
    vertex 10.70421541766395 -18.63356148613325 0.0
  endloop
endfacet
facet normal 0.0 1.0 0.0
  outer loop
    vertex 15.704215417663939 -18.63356148613325 0.0
    vertex 10.70421541766395 -18.63356148613325 1.9999999999999998
    vertex 15.704215417663939 -18.63356148613325 1.9999999999999998
  endloop
endfacet
facet normal -1.0 0.0 0.0
  outer loop
    vertex -10.895784582336058 -34.24889992525259 1.9999999999999998
    vertex -10.895784582336058 -41.35856148613325 0.0
    vertex -10.895784582336058 -41.35856148613325 1.9999999999999998
  endloop
endfacet
facet normal -1.0 0.0 0.0
  outer loop
    vertex -10.895784582336058 -41.35856148613325 0.0
    vertex -10.895784582336058 -34.24889992525259 1.9999999999999998
    vertex -10.895784582336058 -18.233561486133247 0.0
  endloop
endfacet
facet normal -1.0 0.0 0.0
  outer loop
    vertex -10.895784582336058 -18.233561486133247 0.0
    vertex -10.895784582336058 -34.24889992525259 1.9999999999999998
    vertex -10.895784582336058 -18.233561486133247 1.9999999999999998
  endloop
endfacet
facet normal 1.0 0.0 0.0
  outer loop
    vertex -6.295784582336043 16.64143851386674 0.9999999999999999
    vertex -6.295784582336043 11.741438513866747 1.9999999999999998
    vertex -6.295784582336043 11.741438513866747 0.9999999999999999
  endloop
endfacet
facet normal 1.0 0.0 0.0
  outer loop
    vertex -6.295784582336043 11.741438513866747 1.9999999999999998
    vertex -6.295784582336043 16.64143851386674 0.9999999999999999
    vertex -6.295784582336043 16.64143851386674 1.9999999999999998
  endloop
endfacet
facet normal -1.0 -0.0 -0.0
  outer loop
    vertex 6.104215417663957 2.1414385138667367 7.999999999999999
    vertex 6.104215417663957 -2.7585614861332544 1.9999999999999998
    vertex 6.104215417663957 -2.7585614861332544 7.999999999999999
  endloop
endfacet
facet normal -1.0 -0.0 -0.0
  outer loop
    vertex 6.104215417663957 -2.7585614861332544 1.9999999999999998
    vertex 6.104215417663957 2.1414385138667367 7.999999999999999
    vertex 6.104215417663957 2.1414385138667367 1.9999999999999998
  endloop
endfacet
facet normal 0.0 0.0 1.0
  outer loop
    vertex -7.295784582336041 -32.758561486133246 7.999999999999999
    vertex -6.295784582336043 -31.758561486133246 7.999999999999999
    vertex -7.295784582336041 -11.585072993249463 7.999999999999999
  endloop
endfacet
facet normal 0.0 0.0 1.0
  outer loop
    vertex -6.295784582336043 -31.758561486133246 7.999999999999999
    vertex -7.295784582336041 -32.758561486133246 7.999999999999999
    vertex 7.104215417663955 -32.758561486133246 7.999999999999999
  endloop
endfacet
facet normal 0.0 0.0 1.0
  outer loop
    vertex -7.295784582336041 -11.585072993249463 7.999999999999999
    vertex -6.295784582336043 -31.758561486133246 7.999999999999999
    vertex -7.295784582336041 2.376080533820219 7.999999999999999
  endloop
endfacet
facet normal 0.0 0.0 1.0
  outer loop
    vertex -7.295784582336041 2.376080533820219 7.999999999999999
    vertex -6.295784582336043 -31.758561486133246 7.999999999999999
    vertex -7.295784582336041 18.016438513866763 7.999999999999999
  endloop
endfacet
facet normal 0.0 0.0 1.0
  outer loop
    vertex -7.295784582336041 18.016438513866763 7.999999999999999
    vertex -6.295784582336043 -31.758561486133246 7.999999999999999
    vertex -7.295784582336041 32.14143851386675 7.999999999999999
  endloop
endfacet
facet normal 0.0 0.0 1.0
  outer loop
    vertex -6.295784582336043 -31.758561486133246 7.999999999999999
    vertex 7.104215417663955 -32.758561486133246 7.999999999999999
    vertex 6.104215417663957 -31.758561486133246 7.999999999999999
  endloop
endfacet
facet normal 0.0 0.0 1.0
  outer loop
    vertex 6.104215417663957 -31.758561486133246 7.999999999999999
    vertex 7.104215417663955 -32.758561486133246 7.999999999999999
    vertex 6.104215417663957 -26.85856148613325 7.999999999999999
  endloop
endfacet
facet normal 0.0 0.0 1.0
  outer loop
    vertex 6.104215417663957 -26.85856148613325 7.999999999999999
    vertex 7.104215417663955 -32.758561486133246 7.999999999999999
    vertex 6.104215417663957 -17.25856148613324 7.999999999999999
  endloop
endfacet
facet normal 0.0 0.0 1.0
  outer loop
    vertex 6.104215417663957 -17.25856148613324 7.999999999999999
    vertex 7.104215417663955 -32.758561486133246 7.999999999999999
    vertex 6.104215417663957 -12.358561486133254 7.999999999999999
  endloop
endfacet
facet normal 0.0 0.0 1.0
  outer loop
    vertex 6.104215417663957 -12.358561486133254 7.999999999999999
    vertex 7.104215417663955 -32.758561486133246 7.999999999999999
    vertex 6.104215417663957 -2.7585614861332544 7.999999999999999
  endloop
endfacet
facet normal 0.0 0.0 1.0
  outer loop
    vertex 6.104215417663957 -2.7585614861332544 7.999999999999999
    vertex 7.104215417663955 -32.758561486133246 7.999999999999999
    vertex 6.104215417663957 2.1414385138667367 7.999999999999999
  endloop
endfacet
facet normal 0.0 0.0 1.0
  outer loop
    vertex 6.104215417663957 2.1414385138667367 7.999999999999999
    vertex 7.104215417663955 -32.758561486133246 7.999999999999999
    vertex 6.104215417663957 11.741438513866747 7.999999999999999
  endloop
endfacet
facet normal 0.0 0.0 1.0
  outer loop
    vertex 6.104215417663957 11.741438513866747 7.999999999999999
    vertex 7.104215417663955 -32.758561486133246 7.999999999999999
    vertex 6.104215417663957 16.64143851386674 7.999999999999999
  endloop
endfacet
facet normal 0.0 0.0 1.0
  outer loop
    vertex 6.104215417663957 16.64143851386674 7.999999999999999
    vertex 7.104215417663955 -32.758561486133246 7.999999999999999
    vertex 6.104215417663957 26.241438513866743 7.999999999999999
  endloop
endfacet
facet normal 0.0 0.0 1.0
  outer loop
    vertex 6.104215417663957 26.241438513866743 7.999999999999999
    vertex 7.104215417663955 -32.758561486133246 7.999999999999999
    vertex 6.104215417663957 31.141438513866756 7.999999999999999
  endloop
endfacet
facet normal 0.0 0.0 1.0
  outer loop
    vertex -7.295784582336041 32.14143851386675 7.999999999999999
    vertex -6.295784582336043 31.141438513866756 7.999999999999999
    vertex 7.104215417663955 32.14143851386675 7.999999999999999
  endloop
endfacet
facet normal 0.0 0.0 1.0
  outer loop
    vertex -6.295784582336043 31.141438513866756 7.999999999999999
    vertex -7.295784582336041 32.14143851386675 7.999999999999999
    vertex -6.295784582336043 -31.758561486133246 7.999999999999999
  endloop
endfacet
facet normal 0.0 0.0 1.0
  outer loop
    vertex -6.295784582336043 31.141438513866756 7.999999999999999
    vertex -6.295784582336043 -31.758561486133246 7.999999999999999
    vertex -6.295784582336043 -26.85856148613325 7.999999999999999
  endloop
endfacet
facet normal 0.0 0.0 1.0
  outer loop
    vertex -6.295784582336043 31.141438513866756 7.999999999999999
    vertex -6.295784582336043 -26.85856148613325 7.999999999999999
    vertex -6.295784582336043 -17.25856148613324 7.999999999999999
  endloop
endfacet
facet normal 0.0 0.0 1.0
  outer loop
    vertex -6.295784582336043 31.141438513866756 7.999999999999999
    vertex -6.295784582336043 -17.25856148613324 7.999999999999999
    vertex -6.295784582336043 -12.358561486133254 7.999999999999999
  endloop
endfacet
facet normal 0.0 0.0 1.0
  outer loop
    vertex -6.295784582336043 31.141438513866756 7.999999999999999
    vertex -6.295784582336043 -12.358561486133254 7.999999999999999
    vertex -6.295784582336043 -2.7585614861332544 7.999999999999999
  endloop
endfacet
facet normal 0.0 0.0 1.0
  outer loop
    vertex -6.295784582336043 31.141438513866756 7.999999999999999
    vertex -6.295784582336043 -2.7585614861332544 7.999999999999999
    vertex -6.295784582336043 2.1414385138667367 7.999999999999999
  endloop
endfacet
facet normal 0.0 0.0 1.0
  outer loop
    vertex -6.295784582336043 31.141438513866756 7.999999999999999
    vertex -6.295784582336043 2.1414385138667367 7.999999999999999
    vertex -6.295784582336043 11.741438513866747 7.999999999999999
  endloop
endfacet
facet normal 0.0 0.0 1.0
  outer loop
    vertex -6.295784582336043 31.141438513866756 7.999999999999999
    vertex -6.295784582336043 11.741438513866747 7.999999999999999
    vertex -6.295784582336043 16.64143851386674 7.999999999999999
  endloop
endfacet
facet normal 0.0 0.0 1.0
  outer loop
    vertex -6.295784582336043 31.141438513866756 7.999999999999999
    vertex -6.295784582336043 16.64143851386674 7.999999999999999
    vertex -6.295784582336043 26.241438513866743 7.999999999999999
  endloop
endfacet
facet normal 0.0 0.0 1.0
  outer loop
    vertex 7.104215417663955 32.14143851386675 7.999999999999999
    vertex -6.295784582336043 31.141438513866756 7.999999999999999
    vertex 6.104215417663957 31.141438513866756 7.999999999999999
  endloop
endfacet
facet normal 0.0 0.0 1.0
  outer loop
    vertex 7.104215417663955 32.14143851386675 7.999999999999999
    vertex 6.104215417663957 31.141438513866756 7.999999999999999
    vertex 7.104215417663955 -32.758561486133246 7.999999999999999
  endloop
endfacet
facet normal 0.0 0.0 1.0
  outer loop
    vertex 7.104215417663955 32.14143851386675 7.999999999999999
    vertex 7.104215417663955 -32.758561486133246 7.999999999999999
    vertex 7.104215417663955 -17.173663502889717 7.999999999999999
  endloop
endfacet
facet normal 0.0 0.0 1.0
  outer loop
    vertex 7.104215417663955 32.14143851386675 7.999999999999999
    vertex 7.104215417663955 -17.173663502889717 7.999999999999999
    vertex 7.104215417663955 -0.8131899665067339 7.999999999999999
  endloop
endfacet
facet normal 0.0 0.0 1.0
  outer loop
    vertex 7.104215417663955 32.14143851386675 7.999999999999999
    vertex 7.104215417663955 -0.8131899665067339 7.999999999999999
    vertex 7.104215417663955 14.718514240503488 7.999999999999999
  endloop
endfacet
facet normal 0.0 0.0 1.0
  outer loop
    vertex 6.104215417663957 16.64143851386674 7.999999999999999
    vertex -6.295784582336043 26.241438513866743 7.999999999999999
    vertex -6.295784582336043 16.64143851386674 7.999999999999999
  endloop
endfacet
facet normal 0.0 0.0 1.0
  outer loop
    vertex -6.295784582336043 26.241438513866743 7.999999999999999
    vertex 6.104215417663957 16.64143851386674 7.999999999999999
    vertex 6.104215417663957 26.241438513866743 7.999999999999999
  endloop
endfacet
facet normal 0.0 0.0 1.0
  outer loop
    vertex 6.104215417663957 2.1414385138667367 7.999999999999999
    vertex -6.295784582336043 11.741438513866747 7.999999999999999
    vertex -6.295784582336043 2.1414385138667367 7.999999999999999
  endloop
endfacet
facet normal 0.0 0.0 1.0
  outer loop
    vertex -6.295784582336043 11.741438513866747 7.999999999999999
    vertex 6.104215417663957 2.1414385138667367 7.999999999999999
    vertex 6.104215417663957 11.741438513866747 7.999999999999999
  endloop
endfacet
facet normal 0.0 0.0 1.0
  outer loop
    vertex 6.104215417663957 -12.358561486133254 7.999999999999999
    vertex -6.295784582336043 -2.7585614861332544 7.999999999999999
    vertex -6.295784582336043 -12.358561486133254 7.999999999999999
  endloop
endfacet
facet normal 0.0 0.0 1.0
  outer loop
    vertex -6.295784582336043 -2.7585614861332544 7.999999999999999
    vertex 6.104215417663957 -12.358561486133254 7.999999999999999
    vertex 6.104215417663957 -2.7585614861332544 7.999999999999999
  endloop
endfacet
facet normal 0.0 0.0 1.0
  outer loop
    vertex 6.104215417663957 -26.85856148613325 7.999999999999999
    vertex -6.295784582336043 -17.25856148613324 7.999999999999999
    vertex -6.295784582336043 -26.85856148613325 7.999999999999999
  endloop
endfacet
facet normal 0.0 0.0 1.0
  outer loop
    vertex -6.295784582336043 -17.25856148613324 7.999999999999999
    vertex 6.104215417663957 -26.85856148613325 7.999999999999999
    vertex 6.104215417663957 -17.25856148613324 7.999999999999999
  endloop
endfacet
facet normal -0.1836149907889001 -0.9225739988123357 0.3393269100336847
  outer loop
    vertex -7.295784582336041 -32.758561486133246 7.999999999999999
    vertex -10.895784582336058 -34.24889992525259 1.9999999999999998
    vertex -0.2957845823360315 -36.35856148613324 1.9999999999999998
  endloop
endfacet
facet normal 0.0 -1.0 0.0
  outer loop
    vertex 6.104215417663957 -12.358561486133254 7.999999999999999
    vertex -6.295784582336043 -12.358561486133254 1.9999999999999998
    vertex 6.104215417663957 -12.358561486133254 1.9999999999999998
  endloop
endfacet
facet normal 0.0 -1.0 0.0
  outer loop
    vertex -6.295784582336043 -12.358561486133254 1.9999999999999998
    vertex 6.104215417663957 -12.358561486133254 7.999999999999999
    vertex -6.295784582336043 -12.358561486133254 7.999999999999999
  endloop
endfacet
facet normal 0.0 -1.0 0.0
  outer loop
    vertex 6.104215417663957 -26.85856148613325 1.9999999999999998
    vertex -6.295784582336043 -26.85856148613325 0.9999999999999999
    vertex 6.104215417663957 -26.85856148613325 0.9999999999999999
  endloop
endfacet
facet normal 0.0 -1.0 0.0
  outer loop
    vertex -6.295784582336043 -26.85856148613325 0.9999999999999999
    vertex 6.104215417663957 -26.85856148613325 1.9999999999999998
    vertex -6.295784582336043 -26.85856148613325 1.9999999999999998
  endloop
endfacet
facet normal 1.0 0.0 0.0
  outer loop
    vertex 10.70421541766395 -0.10856148613324801 0.0
    vertex 10.70421541766395 -18.63356148613325 1.9999999999999998
    vertex 10.70421541766395 -18.63356148613325 0.0
  endloop
endfacet
facet normal 1.0 0.0 0.0
  outer loop
    vertex 10.70421541766395 -18.63356148613325 1.9999999999999998
    vertex 10.70421541766395 -0.10856148613324801 0.0
    vertex 10.70421541766395 -0.10856148613324801 1.9999999999999998
  endloop
endfacet
facet normal -1.0 0.0 0.0
  outer loop
    vertex 11.104215417663948 -36.35856148613324 1.9999999999999998
    vertex 11.104215417663948 -41.35856148613325 0.0
    vertex 11.104215417663948 -41.35856148613325 1.9999999999999998
  endloop
endfacet
facet normal -1.0 0.0 0.0
  outer loop
    vertex 11.104215417663948 -41.35856148613325 0.0
    vertex 11.104215417663948 -36.35856148613324 1.9999999999999998
    vertex 11.104215417663948 -36.35856148613324 0.0
  endloop
endfacet
facet normal 1.0 0.0 0.0
  outer loop
    vertex -6.295784582336043 -12.358561486133254 0.9999999999999999
    vertex -6.295784582336043 -17.25856148613324 1.9999999999999998
    vertex -6.295784582336043 -17.25856148613324 0.9999999999999999
  endloop
endfacet
facet normal 1.0 0.0 0.0
  outer loop
    vertex -6.295784582336043 -17.25856148613324 1.9999999999999998
    vertex -6.295784582336043 -12.358561486133254 0.9999999999999999
    vertex -6.295784582336043 -12.358561486133254 1.9999999999999998
  endloop
endfacet
facet normal 1.0 0.0 0.0
  outer loop
    vertex 10.70421541766395 36.141438513866746 0.0
    vertex 10.70421541766395 17.616438513866765 1.9999999999999998
    vertex 10.70421541766395 17.616438513866765 0.0
  endloop
endfacet
facet normal 1.0 0.0 0.0
  outer loop
    vertex 10.70421541766395 17.616438513866765 1.9999999999999998
    vertex 10.70421541766395 36.141438513866746 0.0
    vertex 10.70421541766395 36.141438513866746 1.9999999999999998
  endloop
endfacet
facet normal -0.8574929257125443 -3.0502297488648756e-17 0.5144957554275263
  outer loop
    vertex -7.295784582336041 -32.758561486133246 7.999999999999999
    vertex -10.895784582336058 -18.233561486133247 1.9999999999999998
    vertex -10.895784582336058 -34.24889992525259 1.9999999999999998
  endloop
endfacet
facet normal -0.8574929257125443 -3.0502297488648756e-17 0.5144957554275263
  outer loop
    vertex -10.895784582336058 -18.233561486133247 1.9999999999999998
    vertex -7.295784582336041 -32.758561486133246 7.999999999999999
    vertex -7.295784582336041 -11.585072993249463 7.999999999999999
  endloop
endfacet
facet normal -8.31358043203979e-18 -1.0 -0.0
  outer loop
    vertex -0.2957845823360315 -41.35856148613325 1.9999999999999998
    vertex -10.895784582336058 -41.35856148613325 0.0
    vertex -0.2957845823360315 -41.35856148613325 0.0
  endloop
endfacet
facet normal -8.31358043203979e-18 -1.0 -0.0
  outer loop
    vertex -10.895784582336058 -41.35856148613325 0.0
    vertex -0.2957845823360315 -41.35856148613325 1.9999999999999998
    vertex -10.895784582336058 -41.35856148613325 1.9999999999999998
  endloop
endfacet
facet normal -0.0 -1.0 -0.0
  outer loop
    vertex -10.895784582336058 18.016438513866763 1.9999999999999998
    vertex -15.895784582336049 18.016438513866763 0.0
    vertex -10.895784582336058 18.016438513866763 0.0
  endloop
endfacet
facet normal -0.0 -1.0 -0.0
  outer loop
    vertex -15.895784582336049 18.016438513866763 0.0
    vertex -10.895784582336058 18.016438513866763 1.9999999999999998
    vertex -15.895784582336049 18.016438513866763 1.9999999999999998
  endloop
endfacet
facet normal 1.0 0.0 0.0
  outer loop
    vertex 15.704215417663939 -18.63356148613325 0.0
    vertex 15.704215417663939 -41.35856148613325 1.9999999999999998
    vertex 15.704215417663939 -41.35856148613325 0.0
  endloop
endfacet
facet normal 1.0 0.0 0.0
  outer loop
    vertex 15.704215417663939 -41.35856148613325 1.9999999999999998
    vertex 15.704215417663939 -18.63356148613325 0.0
    vertex 15.704215417663939 -18.63356148613325 1.9999999999999998
  endloop
endfacet
facet normal 0.0 -1.0 0.0
  outer loop
    vertex 6.104215417663957 2.1414385138667367 7.999999999999999
    vertex -6.295784582336043 2.1414385138667367 1.9999999999999998
    vertex 6.104215417663957 2.1414385138667367 1.9999999999999998
  endloop
endfacet
facet normal 0.0 -1.0 0.0
  outer loop
    vertex -6.295784582336043 2.1414385138667367 1.9999999999999998
    vertex 6.104215417663957 2.1414385138667367 7.999999999999999
    vertex -6.295784582336043 2.1414385138667367 7.999999999999999
  endloop
endfacet
facet normal 0.0 1.0 0.0
  outer loop
    vertex -6.295784582336043 26.241438513866743 1.9999999999999998
    vertex 6.104215417663957 26.241438513866743 0.9999999999999999
    vertex -6.295784582336043 26.241438513866743 0.9999999999999999
  endloop
endfacet
facet normal 0.0 1.0 0.0
  outer loop
    vertex 6.104215417663957 26.241438513866743 0.9999999999999999
    vertex -6.295784582336043 26.241438513866743 1.9999999999999998
    vertex 6.104215417663957 26.241438513866743 1.9999999999999998
  endloop
endfacet
facet normal -1.0 0.0 0.0
  outer loop
    vertex -15.895784582336049 35.74143851386675 1.9999999999999998
    vertex -15.895784582336049 18.016438513866763 0.0
    vertex -15.895784582336049 18.016438513866763 1.9999999999999998
  endloop
endfacet
facet normal -1.0 0.0 0.0
  outer loop
    vertex -15.895784582336049 18.016438513866763 0.0
    vertex -15.895784582336049 35.74143851386675 1.9999999999999998
    vertex -15.895784582336049 35.74143851386675 0.0
  endloop
endfacet
facet normal 0.0 1.0 0.0
  outer loop
    vertex -15.895784582336049 35.74143851386675 1.9999999999999998
    vertex -10.895784582336058 35.74143851386675 0.0
    vertex -15.895784582336049 35.74143851386675 0.0
  endloop
endfacet
facet normal 0.0 1.0 0.0
  outer loop
    vertex -10.895784582336058 35.74143851386675 0.0
    vertex -15.895784582336049 35.74143851386675 1.9999999999999998
    vertex -10.895784582336058 35.74143851386675 1.9999999999999998
  endloop
endfacet
facet normal 0.0 -1.0 0.0
  outer loop
    vertex 15.704215417663939 36.141438513866746 1.9999999999999998
    vertex 10.70421541766395 36.141438513866746 0.0
    vertex 15.704215417663939 36.141438513866746 0.0
  endloop
endfacet
facet normal 0.0 -1.0 0.0
  outer loop
    vertex 10.70421541766395 36.141438513866746 0.0
    vertex 15.704215417663939 36.141438513866746 1.9999999999999998
    vertex 10.70421541766395 36.141438513866746 1.9999999999999998
  endloop
endfacet
facet normal 1.0 0.0 0.0
  outer loop
    vertex 15.704215417663939 17.616438513866765 0.0
    vertex 15.704215417663939 -0.10856148613324801 1.9999999999999998
    vertex 15.704215417663939 -0.10856148613324801 0.0
  endloop
endfacet
facet normal 1.0 0.0 0.0
  outer loop
    vertex 15.704215417663939 -0.10856148613324801 1.9999999999999998
    vertex 15.704215417663939 17.616438513866765 0.0
    vertex 15.704215417663939 17.616438513866765 1.9999999999999998
  endloop
endfacet
facet normal 0.0 1.0 0.0
  outer loop
    vertex 10.70421541766395 45.741438513866754 1.9999999999999998
    vertex 15.704215417663939 45.741438513866754 0.0
    vertex 10.70421541766395 45.741438513866754 0.0
  endloop
endfacet
facet normal 0.0 1.0 0.0
  outer loop
    vertex 15.704215417663939 45.741438513866754 0.0
    vertex 10.70421541766395 45.741438513866754 1.9999999999999998
    vertex 15.704215417663939 45.741438513866754 1.9999999999999998
  endloop
endfacet
facet normal -1.0 0.0 0.0
  outer loop
    vertex -10.895784582336058 45.741438513866754 1.9999999999999998
    vertex -10.895784582336058 35.74143851386675 0.0
    vertex -10.895784582336058 35.74143851386675 1.9999999999999998
  endloop
endfacet
facet normal -1.0 0.0 0.0
  outer loop
    vertex -10.895784582336058 35.74143851386675 0.0
    vertex -10.895784582336058 45.741438513866754 1.9999999999999998
    vertex -10.895784582336058 45.741438513866754 0.0
  endloop
endfacet
facet normal 0.0 -1.0 0.0
  outer loop
    vertex 6.104215417663957 -26.85856148613325 7.999999999999999
    vertex -6.295784582336043 -26.85856148613325 1.9999999999999998
    vertex 6.104215417663957 -26.85856148613325 1.9999999999999998
  endloop
endfacet
facet normal 0.0 -1.0 0.0
  outer loop
    vertex -6.295784582336043 -26.85856148613325 1.9999999999999998
    vertex 6.104215417663957 -26.85856148613325 7.999999999999999
    vertex -6.295784582336043 -26.85856148613325 7.999999999999999
  endloop
endfacet
facet normal 1.0 0.0 0.0
  outer loop
    vertex 15.704215417663939 45.741438513866754 0.0
    vertex 15.704215417663939 36.141438513866746 1.9999999999999998
    vertex 15.704215417663939 36.141438513866746 0.0
  endloop
endfacet
facet normal 1.0 0.0 0.0
  outer loop
    vertex 15.704215417663939 36.141438513866746 1.9999999999999998
    vertex 15.704215417663939 45.741438513866754 0.0
    vertex 15.704215417663939 45.741438513866754 1.9999999999999998
  endloop
endfacet
facet normal 0.0 0.0 -1.0
  outer loop
    vertex 10.70421541766395 50.74143851386677 0.0
    vertex 0.10421541766394524 45.741438513866754 0.0
    vertex 0.10421541766394524 50.74143851386677 0.0
  endloop
endfacet
facet normal 0.0 0.0 -1.0
  outer loop
    vertex 0.10421541766394524 45.741438513866754 0.0
    vertex 10.70421541766395 50.74143851386677 0.0
    vertex 1.4042154176639428 43.94143851386676 0.0
  endloop
endfacet
facet normal 0.0 0.0 -1.0
  outer loop
    vertex 1.4042154176639428 43.94143851386676 0.0
    vertex 10.70421541766395 50.74143851386677 0.0
    vertex 2.9042154176639627 42.441438513866736 0.0
  endloop
endfacet
facet normal 0.0 0.0 -1.0
  outer loop
    vertex 15.704215417663939 45.741438513866754 0.0
    vertex 10.70421541766395 36.141438513866746 0.0
    vertex 10.70421541766395 45.741438513866754 0.0
  endloop
endfacet
facet normal 0.0 0.0 -1.0
  outer loop
    vertex 10.70421541766395 36.141438513866746 0.0
    vertex 15.704215417663939 45.741438513866754 0.0
    vertex 15.704215417663939 36.141438513866746 0.0
  endloop
endfacet
facet normal 0.0 0.0 -1.0
  outer loop
    vertex 15.704215417663939 17.616438513866765 0.0
    vertex 10.70421541766395 -0.10856148613324801 0.0
    vertex 10.70421541766395 17.616438513866765 0.0
  endloop
endfacet
facet normal 0.0 0.0 -1.0
  outer loop
    vertex 10.70421541766395 -0.10856148613324801 0.0
    vertex 15.704215417663939 17.616438513866765 0.0
    vertex 15.704215417663939 -0.10856148613324801 0.0
  endloop
endfacet
facet normal 0.0 0.0 -1.0
  outer loop
    vertex 2.90421541766394 37.94143851386674 0.0
    vertex -0.2957845823360315 -36.35856148613324 0.0
    vertex -3.0957845823360715 37.94143851386674 0.0
  endloop
endfacet
facet normal 0.0 0.0 -1.0
  outer loop
    vertex -0.2957845823360315 -36.35856148613324 0.0
    vertex 2.90421541766394 37.94143851386674 0.0
    vertex 11.104215417663948 -36.35856148613324 0.0
  endloop
endfacet
facet normal 0.0 0.0 -1.0
  outer loop
    vertex 11.104215417663948 -36.35856148613324 0.0
    vertex 2.90421541766394 37.94143851386674 0.0
    vertex 2.9042154176639627 42.441438513866736 0.0
  endloop
endfacet
facet normal 0.0 0.0 -1.0
  outer loop
    vertex 11.104215417663948 -36.35856148613324 0.0
    vertex 2.9042154176639627 42.441438513866736 0.0
    vertex 10.70421541766395 -18.63356148613325 0.0
  endloop
endfacet
facet normal 0.0 0.0 -1.0
  outer loop
    vertex 10.70421541766395 -18.63356148613325 0.0
    vertex 2.9042154176639627 42.441438513866736 0.0
    vertex 10.70421541766395 50.74143851386677 0.0
  endloop
endfacet
facet normal 0.0 0.0 -1.0
  outer loop
    vertex 10.70421541766395 -18.63356148613325 0.0
    vertex 10.70421541766395 50.74143851386677 0.0
    vertex 10.70421541766395 45.741438513866754 0.0
  endloop
endfacet
facet normal 0.0 0.0 -1.0
  outer loop
    vertex 10.70421541766395 -18.63356148613325 0.0
    vertex 10.70421541766395 45.741438513866754 0.0
    vertex 10.70421541766395 36.141438513866746 0.0
  endloop
endfacet
facet normal 0.0 0.0 -1.0
  outer loop
    vertex 10.70421541766395 -18.63356148613325 0.0
    vertex 10.70421541766395 36.141438513866746 0.0
    vertex 10.70421541766395 17.616438513866765 0.0
  endloop
endfacet
facet normal 0.0 0.0 -1.0
  outer loop
    vertex 10.70421541766395 -18.63356148613325 0.0
    vertex 10.70421541766395 17.616438513866765 0.0
    vertex 10.70421541766395 -0.10856148613324801 0.0
  endloop
endfacet
facet normal 0.0 0.0 -1.0
  outer loop
    vertex 11.104215417663948 -36.35856148613324 0.0
    vertex 10.70421541766395 -18.63356148613325 0.0
    vertex 15.704215417663939 -18.63356148613325 0.0
  endloop
endfacet
facet normal 0.0 0.0 -1.0
  outer loop
    vertex 11.104215417663948 -36.35856148613324 0.0
    vertex 15.704215417663939 -18.63356148613325 0.0
    vertex 11.104215417663948 -41.35856148613325 0.0
  endloop
endfacet
facet normal 0.0 0.0 -1.0
  outer loop
    vertex 11.104215417663948 -41.35856148613325 0.0
    vertex 15.704215417663939 -18.63356148613325 0.0
    vertex 15.704215417663939 -41.35856148613325 0.0
  endloop
endfacet
facet normal 0.0 0.0 -1.0
  outer loop
    vertex 0.10421541766394524 45.741438513866754 0.0
    vertex -10.895784582336058 35.74143851386675 0.0
    vertex -10.895784582336058 45.741438513866754 0.0
  endloop
endfacet
facet normal 0.0 0.0 -1.0
  outer loop
    vertex -10.895784582336058 35.74143851386675 0.0
    vertex 0.10421541766394524 45.741438513866754 0.0
    vertex -3.0957845823360715 42.441438513866736 0.0
  endloop
endfacet
facet normal 0.0 0.0 -1.0
  outer loop
    vertex -10.895784582336058 35.74143851386675 0.0
    vertex -3.0957845823360715 42.441438513866736 0.0
    vertex -10.895784582336058 18.016438513866763 0.0
  endloop
endfacet
facet normal 0.0 0.0 -1.0
  outer loop
    vertex -10.895784582336058 18.016438513866763 0.0
    vertex -3.0957845823360715 42.441438513866736 0.0
    vertex -10.895784582336058 -0.5085614861332473 0.0
  endloop
endfacet
facet normal 0.0 0.0 -1.0
  outer loop
    vertex -10.895784582336058 -0.5085614861332473 0.0
    vertex -3.0957845823360715 42.441438513866736 0.0
    vertex -10.895784582336058 -18.233561486133247 0.0
  endloop
endfacet
facet normal 0.0 0.0 -1.0
  outer loop
    vertex -10.895784582336058 -18.233561486133247 0.0
    vertex -3.0957845823360715 42.441438513866736 0.0
    vertex -10.895784582336058 -41.35856148613325 0.0
  endloop
endfacet
facet normal 0.0 0.0 -1.0
  outer loop
    vertex -3.0957845823360715 42.441438513866736 0.0
    vertex 0.10421541766394524 45.741438513866754 0.0
    vertex -1.5957845823360517 43.94143851386676 0.0
  endloop
endfacet
facet normal 0.0 0.0 -1.0
  outer loop
    vertex -1.5957845823360517 43.94143851386676 0.0
    vertex 0.10421541766394524 45.741438513866754 0.0
    vertex 1.4042154176639428 43.94143851386676 0.0
  endloop
endfacet
facet normal 0.0 0.0 -1.0
  outer loop
    vertex -10.895784582336058 -41.35856148613325 0.0
    vertex -3.0957845823360715 37.94143851386674 0.0
    vertex -0.2957845823360315 -41.35856148613325 0.0
  endloop
endfacet
facet normal 0.0 0.0 -1.0
  outer loop
    vertex -3.0957845823360715 37.94143851386674 0.0
    vertex -10.895784582336058 -41.35856148613325 0.0
    vertex -3.0957845823360715 42.441438513866736 0.0
  endloop
endfacet
facet normal 0.0 0.0 -1.0
  outer loop
    vertex -0.2957845823360315 -41.35856148613325 0.0
    vertex -3.0957845823360715 37.94143851386674 0.0
    vertex -0.2957845823360315 -36.35856148613324 0.0
  endloop
endfacet
facet normal 0.0 0.0 -1.0
  outer loop
    vertex -10.895784582336058 -0.5085614861332473 0.0
    vertex -15.895784582336049 -18.233561486133247 0.0
    vertex -15.895784582336049 -0.5085614861332473 0.0
  endloop
endfacet
facet normal 0.0 0.0 -1.0
  outer loop
    vertex -15.895784582336049 -18.233561486133247 0.0
    vertex -10.895784582336058 -0.5085614861332473 0.0
    vertex -10.895784582336058 -18.233561486133247 0.0
  endloop
endfacet
facet normal 0.0 0.0 -1.0
  outer loop
    vertex -10.895784582336058 35.74143851386675 0.0
    vertex -15.895784582336049 18.016438513866763 0.0
    vertex -15.895784582336049 35.74143851386675 0.0
  endloop
endfacet
facet normal 0.0 0.0 -1.0
  outer loop
    vertex -15.895784582336049 18.016438513866763 0.0
    vertex -10.895784582336058 35.74143851386675 0.0
    vertex -10.895784582336058 18.016438513866763 0.0
  endloop
endfacet
facet normal 0.0 1.0 0.0
  outer loop
    vertex 10.70421541766395 17.616438513866765 1.9999999999999998
    vertex 15.704215417663939 17.616438513866765 0.0
    vertex 10.70421541766395 17.616438513866765 0.0
  endloop
endfacet
facet normal 0.0 1.0 0.0
  outer loop
    vertex 15.704215417663939 17.616438513866765 0.0
    vertex 10.70421541766395 17.616438513866765 1.9999999999999998
    vertex 15.704215417663939 17.616438513866765 1.9999999999999998
  endloop
endfacet
facet normal 0.0 0.0 1.0
  outer loop
    vertex 15.704215417663939 -0.10856148613324801 1.9999999999999998
    vertex 10.70421541766395 17.616438513866765 1.9999999999999998
    vertex 10.70421541766395 -0.10856148613324801 1.9999999999999998
  endloop
endfacet
facet normal 0.0 0.0 1.0
  outer loop
    vertex 10.70421541766395 17.616438513866765 1.9999999999999998
    vertex 15.704215417663939 -0.10856148613324801 1.9999999999999998
    vertex 15.704215417663939 17.616438513866765 1.9999999999999998
  endloop
endfacet
facet normal 0.0 -1.0 0.0
  outer loop
    vertex 6.104215417663957 16.64143851386674 7.999999999999999
    vertex -6.295784582336043 16.64143851386674 1.9999999999999998
    vertex 6.104215417663957 16.64143851386674 1.9999999999999998
  endloop
endfacet
facet normal 0.0 -1.0 0.0
  outer loop
    vertex -6.295784582336043 16.64143851386674 1.9999999999999998
    vertex 6.104215417663957 16.64143851386674 7.999999999999999
    vertex -6.295784582336043 16.64143851386674 7.999999999999999
  endloop
endfacet
facet normal 0.0 1.0 0.0
  outer loop
    vertex -6.295784582336043 -17.25856148613324 1.9999999999999998
    vertex 6.104215417663957 -17.25856148613324 0.9999999999999999
    vertex -6.295784582336043 -17.25856148613324 0.9999999999999999
  endloop
endfacet
facet normal 0.0 1.0 0.0
  outer loop
    vertex 6.104215417663957 -17.25856148613324 0.9999999999999999
    vertex -6.295784582336043 -17.25856148613324 1.9999999999999998
    vertex 6.104215417663957 -17.25856148613324 1.9999999999999998
  endloop
endfacet
facet normal -3.1102797361282345e-17 0.8574929257125438 0.5144957554275272
  outer loop
    vertex 7.104215417663955 32.14143851386675 7.999999999999999
    vertex -10.895784582336058 35.74143851386675 1.9999999999999998
    vertex -7.295784582336041 32.14143851386675 7.999999999999999
  endloop
endfacet
facet normal 1.0 0.0 0.0
  outer loop
    vertex -6.295784582336043 16.64143851386674 1.9999999999999998
    vertex -6.295784582336043 11.741438513866747 7.999999999999999
    vertex -6.295784582336043 11.741438513866747 1.9999999999999998
  endloop
endfacet
facet normal 1.0 0.0 0.0
  outer loop
    vertex -6.295784582336043 11.741438513866747 7.999999999999999
    vertex -6.295784582336043 16.64143851386674 1.9999999999999998
    vertex -6.295784582336043 16.64143851386674 7.999999999999999
  endloop
endfacet
facet normal 0.8574929257125447 6.6482530232839354e-18 0.5144957554275259
  outer loop
    vertex 10.70421541766395 17.616438513866765 1.9999999999999998
    vertex 7.104215417663955 32.14143851386675 7.999999999999999
    vertex 7.104215417663955 14.718514240503488 7.999999999999999
  endloop
endfacet
facet normal 0.8574929257125447 6.6482530232839354e-18 0.5144957554275259
  outer loop
    vertex 7.104215417663955 32.14143851386675 7.999999999999999
    vertex 10.70421541766395 17.616438513866765 1.9999999999999998
    vertex 10.70421541766395 36.141438513866746 1.9999999999999998
  endloop
endfacet
facet normal -0.015485443247068359 0.8362139353416922 0.5481846909462195
  outer loop
    vertex 7.104215417663955 32.14143851386675 7.999999999999999
    vertex 10.70421541766395 36.141438513866746 1.9999999999999998
    vertex -10.895784582336058 35.74143851386675 1.9999999999999998
  endloop
endfacet
facet normal 9.096666072735151e-16 1.0 0.0
  outer loop
    vertex -6.295784582336043 -2.7585614861332544 7.999999999999999
    vertex 6.104215417663957 -2.7585614861332544 1.9999999999999998
    vertex -6.295784582336043 -2.7585614861332544 1.9999999999999998
  endloop
endfacet
facet normal 9.096666072735151e-16 1.0 0.0
  outer loop
    vertex 6.104215417663957 -2.7585614861332544 1.9999999999999998
    vertex -6.295784582336043 -2.7585614861332544 7.999999999999999
    vertex 6.104215417663957 -2.7585614861332544 7.999999999999999
  endloop
endfacet
facet normal -1.0 0.0 0.0
  outer loop
    vertex 6.104215417663957 31.141438513866756 7.999999999999999
    vertex 6.104215417663957 26.241438513866743 1.9999999999999998
    vertex 6.104215417663957 26.241438513866743 7.999999999999999
  endloop
endfacet
facet normal -1.0 0.0 0.0
  outer loop
    vertex 6.104215417663957 26.241438513866743 1.9999999999999998
    vertex 6.104215417663957 31.141438513866756 7.999999999999999
    vertex 6.104215417663957 31.141438513866756 1.9999999999999998
  endloop
endfacet
facet normal 0.0 1.0 0.0
  outer loop
    vertex -6.295784582336043 26.241438513866743 7.999999999999999
    vertex 6.104215417663957 26.241438513866743 1.9999999999999998
    vertex -6.295784582336043 26.241438513866743 1.9999999999999998
  endloop
endfacet
facet normal 0.0 1.0 0.0
  outer loop
    vertex 6.104215417663957 26.241438513866743 1.9999999999999998
    vertex -6.295784582336043 26.241438513866743 7.999999999999999
    vertex 6.104215417663957 26.241438513866743 7.999999999999999
  endloop
endfacet
facet normal 1.0 0.0 0.0
  outer loop
    vertex -6.295784582336043 31.141438513866756 1.9999999999999998
    vertex -6.295784582336043 26.241438513866743 7.999999999999999
    vertex -6.295784582336043 26.241438513866743 1.9999999999999998
  endloop
endfacet
facet normal 1.0 0.0 0.0
  outer loop
    vertex -6.295784582336043 26.241438513866743 7.999999999999999
    vertex -6.295784582336043 31.141438513866756 1.9999999999999998
    vertex -6.295784582336043 31.141438513866756 7.999999999999999
  endloop
endfacet
facet normal 0.0 1.0 0.0
  outer loop
    vertex -6.295784582336043 11.741438513866747 7.999999999999999
    vertex 6.104215417663957 11.741438513866747 1.9999999999999998
    vertex -6.295784582336043 11.741438513866747 1.9999999999999998
  endloop
endfacet
facet normal 0.0 1.0 0.0
  outer loop
    vertex 6.104215417663957 11.741438513866747 1.9999999999999998
    vertex -6.295784582336043 11.741438513866747 7.999999999999999
    vertex 6.104215417663957 11.741438513866747 7.999999999999999
  endloop
endfacet
facet normal 0.0 -1.0 0.0
  outer loop
    vertex 6.104215417663957 31.141438513866756 7.999999999999999
    vertex -6.295784582336043 31.141438513866756 1.9999999999999998
    vertex 6.104215417663957 31.141438513866756 1.9999999999999998
  endloop
endfacet
facet normal 0.0 -1.0 0.0
  outer loop
    vertex -6.295784582336043 31.141438513866756 1.9999999999999998
    vertex 6.104215417663957 31.141438513866756 7.999999999999999
    vertex -6.295784582336043 31.141438513866756 7.999999999999999
  endloop
endfacet
facet normal -1.0 0.0 0.0
  outer loop
    vertex 6.104215417663957 16.64143851386674 7.999999999999999
    vertex 6.104215417663957 11.741438513866747 1.9999999999999998
    vertex 6.104215417663957 11.741438513866747 7.999999999999999
  endloop
endfacet
facet normal -1.0 0.0 0.0
  outer loop
    vertex 6.104215417663957 11.741438513866747 1.9999999999999998
    vertex 6.104215417663957 16.64143851386674 7.999999999999999
    vertex 6.104215417663957 16.64143851386674 1.9999999999999998
  endloop
endfacet
facet normal 0.0 -1.0 0.0
  outer loop
    vertex 6.104215417663957 31.141438513866756 1.9999999999999998
    vertex -6.295784582336043 31.141438513866756 0.9999999999999999
    vertex 6.104215417663957 31.141438513866756 0.9999999999999999
  endloop
endfacet
facet normal 0.0 -1.0 0.0
  outer loop
    vertex -6.295784582336043 31.141438513866756 0.9999999999999999
    vertex 6.104215417663957 31.141438513866756 1.9999999999999998
    vertex -6.295784582336043 31.141438513866756 1.9999999999999998
  endloop
endfacet
facet normal -1.0 0.0 0.0
  outer loop
    vertex 6.104215417663957 31.141438513866756 1.9999999999999998
    vertex 6.104215417663957 26.241438513866743 0.9999999999999999
    vertex 6.104215417663957 26.241438513866743 1.9999999999999998
  endloop
endfacet
facet normal -1.0 0.0 0.0
  outer loop
    vertex 6.104215417663957 26.241438513866743 0.9999999999999999
    vertex 6.104215417663957 31.141438513866756 1.9999999999999998
    vertex 6.104215417663957 31.141438513866756 0.9999999999999999
  endloop
endfacet
facet normal 0.857492925712544 -2.673537087153563e-17 0.5144957554275267
  outer loop
    vertex 7.104215417663955 14.718514240503488 7.999999999999999
    vertex 7.104215417663955 -0.8131899665067339 7.999999999999999
    vertex 10.70421541766395 -0.10856148613324801 1.9999999999999998
  endloop
endfacet
facet normal 0.8574929257125441 -1.7597266239498334e-18 0.5144957554275267
  outer loop
    vertex 10.70421541766395 -0.10856148613324801 1.9999999999999998
    vertex 7.104215417663955 -17.173663502889717 7.999999999999999
    vertex 10.70421541766395 -18.63356148613325 1.9999999999999998
  endloop
endfacet
facet normal 0.8574929257125441 -1.7597266239498334e-18 0.5144957554275267
  outer loop
    vertex 7.104215417663955 -17.173663502889717 7.999999999999999
    vertex 10.70421541766395 -0.10856148613324801 1.9999999999999998
    vertex 7.104215417663955 -0.8131899665067339 7.999999999999999
  endloop
endfacet
facet normal 1.0 0.0 0.0
  outer loop
    vertex -6.295784582336043 2.1414385138667367 0.9999999999999999
    vertex -6.295784582336043 -2.7585614861332544 1.9999999999999998
    vertex -6.295784582336043 -2.7585614861332544 0.9999999999999999
  endloop
endfacet
facet normal 1.0 0.0 0.0
  outer loop
    vertex -6.295784582336043 -2.7585614861332544 1.9999999999999998
    vertex -6.295784582336043 2.1414385138667367 0.9999999999999999
    vertex -6.295784582336043 2.1414385138667367 1.9999999999999998
  endloop
endfacet
facet normal 0.0 0.0 1.0
  outer loop
    vertex 6.104215417663957 -31.758561486133246 0.9999999999999999
    vertex -6.295784582336043 -26.85856148613325 0.9999999999999999
    vertex -6.295784582336043 -31.758561486133246 0.9999999999999999
  endloop
endfacet
facet normal 0.0 0.0 1.0
  outer loop
    vertex -6.295784582336043 -26.85856148613325 0.9999999999999999
    vertex 6.104215417663957 -31.758561486133246 0.9999999999999999
    vertex 6.104215417663957 -26.85856148613325 0.9999999999999999
  endloop
endfacet
facet normal 0.0 0.0 1.0
  outer loop
    vertex 6.104215417663957 26.241438513866743 0.9999999999999999
    vertex -6.295784582336043 31.141438513866756 0.9999999999999999
    vertex -6.295784582336043 26.241438513866743 0.9999999999999999
  endloop
endfacet
facet normal 0.0 0.0 1.0
  outer loop
    vertex -6.295784582336043 31.141438513866756 0.9999999999999999
    vertex 6.104215417663957 26.241438513866743 0.9999999999999999
    vertex 6.104215417663957 31.141438513866756 0.9999999999999999
  endloop
endfacet
facet normal 0.0 0.0 1.0
  outer loop
    vertex 6.104215417663957 11.741438513866747 0.9999999999999999
    vertex -6.295784582336043 16.64143851386674 0.9999999999999999
    vertex -6.295784582336043 11.741438513866747 0.9999999999999999
  endloop
endfacet
facet normal 0.0 0.0 1.0
  outer loop
    vertex -6.295784582336043 16.64143851386674 0.9999999999999999
    vertex 6.104215417663957 11.741438513866747 0.9999999999999999
    vertex 6.104215417663957 16.64143851386674 0.9999999999999999
  endloop
endfacet
facet normal 0.0 0.0 1.0
  outer loop
    vertex 6.104215417663957 -2.7585614861332544 0.9999999999999999
    vertex -6.295784582336043 2.1414385138667367 0.9999999999999999
    vertex -6.295784582336043 -2.7585614861332544 0.9999999999999999
  endloop
endfacet
facet normal 0.0 0.0 1.0
  outer loop
    vertex -6.295784582336043 2.1414385138667367 0.9999999999999999
    vertex 6.104215417663957 -2.7585614861332544 0.9999999999999999
    vertex 6.104215417663957 2.1414385138667367 0.9999999999999999
  endloop
endfacet
facet normal 0.0 0.0 1.0
  outer loop
    vertex 6.104215417663957 -17.25856148613324 0.9999999999999999
    vertex -6.295784582336043 -12.358561486133254 0.9999999999999999
    vertex -6.295784582336043 -17.25856148613324 0.9999999999999999
  endloop
endfacet
facet normal 0.0 0.0 1.0
  outer loop
    vertex -6.295784582336043 -12.358561486133254 0.9999999999999999
    vertex 6.104215417663957 -17.25856148613324 0.9999999999999999
    vertex 6.104215417663957 -12.358561486133254 0.9999999999999999
  endloop
endfacet
facet normal 0.0 0.0 1.0
  outer loop
    vertex -10.895784582336058 35.74143851386675 1.9999999999999998
    vertex -3.0957845823360715 37.94143851386674 1.9999999999999998
    vertex -10.895784582336058 45.741438513866754 1.9999999999999998
  endloop
endfacet
facet normal 0.0 0.0 1.0
  outer loop
    vertex -3.0957845823360715 37.94143851386674 1.9999999999999998
    vertex -10.895784582336058 35.74143851386675 1.9999999999999998
    vertex 10.70421541766395 36.141438513866746 1.9999999999999998
  endloop
endfacet
facet normal 0.0 0.0 1.0
  outer loop
    vertex -3.0957845823360715 37.94143851386674 1.9999999999999998
    vertex 10.70421541766395 36.141438513866746 1.9999999999999998
    vertex 2.90421541766394 37.94143851386674 1.9999999999999998
  endloop
endfacet
facet normal 0.0 0.0 1.0
  outer loop
    vertex 2.90421541766394 37.94143851386674 1.9999999999999998
    vertex 10.70421541766395 36.141438513866746 1.9999999999999998
    vertex 2.9042154176639627 42.441438513866736 1.9999999999999998
  endloop
endfacet
facet normal 0.0 0.0 1.0
  outer loop
    vertex 15.704215417663939 36.141438513866746 1.9999999999999998
    vertex 10.70421541766395 45.741438513866754 1.9999999999999998
    vertex 10.70421541766395 36.141438513866746 1.9999999999999998
  endloop
endfacet
facet normal 0.0 0.0 1.0
  outer loop
    vertex 10.70421541766395 45.741438513866754 1.9999999999999998
    vertex 15.704215417663939 36.141438513866746 1.9999999999999998
    vertex 15.704215417663939 45.741438513866754 1.9999999999999998
  endloop
endfacet
facet normal 0.0 0.0 1.0
  outer loop
    vertex -10.895784582336058 45.741438513866754 1.9999999999999998
    vertex -3.0957845823360715 42.441438513866736 1.9999999999999998
    vertex 0.10421541766394524 45.741438513866754 1.9999999999999998
  endloop
endfacet
facet normal 0.0 0.0 1.0
  outer loop
    vertex -3.0957845823360715 42.441438513866736 1.9999999999999998
    vertex -10.895784582336058 45.741438513866754 1.9999999999999998
    vertex -3.0957845823360715 37.94143851386674 1.9999999999999998
  endloop
endfacet
facet normal 0.0 0.0 1.0
  outer loop
    vertex 0.10421541766394524 45.741438513866754 1.9999999999999998
    vertex -3.0957845823360715 42.441438513866736 1.9999999999999998
    vertex -1.5957845823360517 43.94143851386676 1.9999999999999998
  endloop
endfacet
facet normal 0.0 0.0 1.0
  outer loop
    vertex 0.10421541766394524 45.741438513866754 1.9999999999999998
    vertex -1.5957845823360517 43.94143851386676 1.9999999999999998
    vertex 1.4042154176639428 43.94143851386676 1.9999999999999998
  endloop
endfacet
facet normal 0.0 0.0 1.0
  outer loop
    vertex 0.10421541766394524 45.741438513866754 1.9999999999999998
    vertex 1.4042154176639428 43.94143851386676 1.9999999999999998
    vertex 0.10421541766394524 50.74143851386677 1.9999999999999998
  endloop
endfacet
facet normal 0.0 0.0 1.0
  outer loop
    vertex 0.10421541766394524 50.74143851386677 1.9999999999999998
    vertex 1.4042154176639428 43.94143851386676 1.9999999999999998
    vertex 10.70421541766395 50.74143851386677 1.9999999999999998
  endloop
endfacet
facet normal 0.0 0.0 1.0
  outer loop
    vertex 10.70421541766395 50.74143851386677 1.9999999999999998
    vertex 1.4042154176639428 43.94143851386676 1.9999999999999998
    vertex 2.9042154176639627 42.441438513866736 1.9999999999999998
  endloop
endfacet
facet normal 0.0 0.0 1.0
  outer loop
    vertex 10.70421541766395 50.74143851386677 1.9999999999999998
    vertex 2.9042154176639627 42.441438513866736 1.9999999999999998
    vertex 10.70421541766395 36.141438513866746 1.9999999999999998
  endloop
endfacet
facet normal 0.0 0.0 1.0
  outer loop
    vertex 10.70421541766395 50.74143851386677 1.9999999999999998
    vertex 10.70421541766395 36.141438513866746 1.9999999999999998
    vertex 10.70421541766395 45.741438513866754 1.9999999999999998
  endloop
endfacet
facet normal 0.7071067811865449 -0.7071067811865502 0.0
  outer loop
    vertex -1.5957845823360517 43.94143851386676 1.9999999999999998
    vertex -3.0957845823360715 42.441438513866736 0.0
    vertex -1.5957845823360517 43.94143851386676 0.0
  endloop
endfacet
facet normal 0.7071067811865449 -0.7071067811865502 0.0
  outer loop
    vertex -3.0957845823360715 42.441438513866736 0.0
    vertex -1.5957845823360517 43.94143851386676 1.9999999999999998
    vertex -3.0957845823360715 42.441438513866736 1.9999999999999998
  endloop
endfacet
facet normal 0.0 1.0 0.0
  outer loop
    vertex -3.0957845823360715 37.94143851386674 1.9999999999999998
    vertex 2.90421541766394 37.94143851386674 0.0
    vertex -3.0957845823360715 37.94143851386674 0.0
  endloop
endfacet
facet normal 0.0 1.0 0.0
  outer loop
    vertex 2.90421541766394 37.94143851386674 0.0
    vertex -3.0957845823360715 37.94143851386674 1.9999999999999998
    vertex 2.90421541766394 37.94143851386674 1.9999999999999998
  endloop
endfacet
facet normal -1.0 5.013273746751814e-15 0.0
  outer loop
    vertex 2.9042154176639627 42.441438513866736 1.9999999999999998
    vertex 2.90421541766394 37.94143851386674 0.0
    vertex 2.90421541766394 37.94143851386674 1.9999999999999998
  endloop
endfacet
facet normal -1.0 5.013273746751814e-15 0.0
  outer loop
    vertex 2.90421541766394 37.94143851386674 0.0
    vertex 2.9042154176639627 42.441438513866736 1.9999999999999998
    vertex 2.9042154176639627 42.441438513866736 0.0
  endloop
endfacet
endsolid Untitled-551f0e4e
