solid Untitled-551f0e31
facet normal 0.0 -1.0 0.0
  outer loop
    vertex 6.555490130287656 17.214683734449423 1.9999999999999998
    vertex -5.844509869712343 17.214683734449423 0.9999999999999999
    vertex 6.555490130287656 17.214683734449423 0.9999999999999999
  endloop
endfacet
facet normal 0.0 -1.0 0.0
  outer loop
    vertex -5.844509869712343 17.214683734449423 0.9999999999999999
    vertex 6.555490130287656 17.214683734449423 1.9999999999999998
    vertex -5.844509869712343 17.214683734449423 1.9999999999999998
  endloop
endfacet
facet normal 0.0 -1.0 0.0
  outer loop
    vertex 4.35549013028766 42.51468373444942 1.9999999999999998
    vertex -3.6445098697123477 42.51468373444942 0.0
    vertex 4.35549013028766 42.51468373444942 0.0
  endloop
endfacet
facet normal 0.0 -1.0 0.0
  outer loop
    vertex -3.6445098697123477 42.51468373444942 0.0
    vertex 4.35549013028766 42.51468373444942 1.9999999999999998
    vertex -3.6445098697123477 42.51468373444942 1.9999999999999998
  endloop
endfacet
facet normal -0.7071067811865476 -0.7071067811865476 0.0
  outer loop
    vertex 4.35549013028766 42.51468373444942 1.9999999999999998
    vertex 5.3554901302876585 41.51468373444943 0.0
    vertex 5.3554901302876585 41.51468373444943 1.9999999999999998
  endloop
endfacet
facet normal -0.7071067811865476 -0.7071067811865476 0.0
  outer loop
    vertex 5.3554901302876585 41.51468373444943 0.0
    vertex 4.35549013028766 42.51468373444942 1.9999999999999998
    vertex 4.35549013028766 42.51468373444942 0.0
  endloop
endfacet
facet normal 1.0 0.0 0.0
  outer loop
    vertex -5.844509869712343 31.71468373444944 0.9999999999999999
    vertex -5.844509869712343 26.814683734449428 1.9999999999999998
    vertex -5.844509869712343 26.814683734449428 0.9999999999999999
  endloop
endfacet
facet normal 1.0 0.0 0.0
  outer loop
    vertex -5.844509869712343 26.814683734449428 1.9999999999999998
    vertex -5.844509869712343 31.71468373444944 0.9999999999999999
    vertex -5.844509869712343 31.71468373444944 1.9999999999999998
  endloop
endfacet
facet normal 0.0 0.0 1.0
  outer loop
    vertex 0.15549013028765674 -40.78531626555056 1.9999999999999998
    vertex -10.444509869712347 -33.6756547046699 1.9999999999999998
    vertex -10.444509869712347 -40.78531626555056 1.9999999999999998
  endloop
endfacet
facet normal 0.0 0.0 1.0
  outer loop
    vertex -10.444509869712347 -33.6756547046699 1.9999999999999998
    vertex 0.15549013028765674 -40.78531626555056 1.9999999999999998
    vertex 0.15549013028765674 -35.785316265550556 1.9999999999999998
  endloop
endfacet
facet normal -1.0 0.0 0.0
  outer loop
    vertex 6.555490130287656 -11.785316265550568 1.9999999999999998
    vertex 6.555490130287656 -16.685316265550554 0.9999999999999999
    vertex 6.555490130287656 -16.685316265550554 1.9999999999999998
  endloop
endfacet
facet normal -1.0 0.0 0.0
  outer loop
    vertex 6.555490130287656 -16.685316265550554 0.9999999999999999
    vertex 6.555490130287656 -11.785316265550568 1.9999999999999998
    vertex 6.555490130287656 -11.785316265550568 0.9999999999999999
  endloop
endfacet
facet normal -0.8574929257125443 2.0925267401496893e-17 0.5144957554275265
  outer loop
    vertex -6.844509869712353 32.71468373444944 7.999999999999999
    vertex -10.444509869712347 18.589683734449448 1.9999999999999998
    vertex -6.844509869712353 18.589683734449448 7.999999999999999
  endloop
endfacet
facet normal -0.8574929257125443 2.0925267401496893e-17 0.5144957554275265
  outer loop
    vertex -10.444509869712347 18.589683734449448 1.9999999999999998
    vertex -6.844509869712353 32.71468373444944 7.999999999999999
    vertex -10.444509869712347 36.31468373444943 1.9999999999999998
  endloop
endfacet
facet normal 0.0 -1.0 0.0
  outer loop
    vertex 6.555490130287656 -11.785316265550568 1.9999999999999998
    vertex -5.844509869712343 -11.785316265550568 0.9999999999999999
    vertex 6.555490130287656 -11.785316265550568 0.9999999999999999
  endloop
endfacet
facet normal 0.0 -1.0 0.0
  outer loop
    vertex -5.844509869712343 -11.785316265550568 0.9999999999999999
    vertex 6.555490130287656 -11.785316265550568 1.9999999999999998
    vertex -5.844509869712343 -11.785316265550568 1.9999999999999998
  endloop
endfacet
facet normal 0.8574929257125441 1.0264125456638308e-17 0.5144957554275267
  outer loop
    vertex 11.155490130287648 18.18968373444945 1.9999999999999998
    vertex 7.555490130287654 15.291759461086173 7.999999999999999
    vertex 11.155490130287648 0.4646837344494372 1.9999999999999998
  endloop
endfacet
facet normal 0.0 0.0 1.0
  outer loop
    vertex 16.15549013028766 -40.78531626555056 1.9999999999999998
    vertex 11.555490130287646 -35.785316265550556 1.9999999999999998
    vertex 11.555490130287646 -40.78531626555056 1.9999999999999998
  endloop
endfacet
facet normal 0.0 0.0 1.0
  outer loop
    vertex 11.555490130287646 -35.785316265550556 1.9999999999999998
    vertex 16.15549013028766 -18.06031626555056 1.9999999999999998
    vertex 11.155490130287648 -18.06031626555056 1.9999999999999998
  endloop
endfacet
facet normal 0.0 0.0 1.0
  outer loop
    vertex 16.15549013028766 -18.06031626555056 1.9999999999999998
    vertex 11.555490130287646 -35.785316265550556 1.9999999999999998
    vertex 16.15549013028766 -40.78531626555056 1.9999999999999998
  endloop
endfacet
facet normal -1.0 0.0 0.0
  outer loop
    vertex 6.555490130287656 2.7146837344494217 1.9999999999999998
    vertex 6.555490130287656 -2.1853162655505693 0.9999999999999999
    vertex 6.555490130287656 -2.1853162655505693 1.9999999999999998
  endloop
endfacet
facet normal -1.0 0.0 0.0
  outer loop
    vertex 6.555490130287656 -2.1853162655505693 0.9999999999999999
    vertex 6.555490130287656 2.7146837344494217 1.9999999999999998
    vertex 6.555490130287656 2.7146837344494217 0.9999999999999999
  endloop
endfacet
facet normal 1.0 0.0 0.0
  outer loop
    vertex -5.844509869712343 -11.785316265550568 1.9999999999999998
    vertex -5.844509869712343 -16.685316265550554 7.999999999999999
    vertex -5.844509869712343 -16.685316265550554 1.9999999999999998
  endloop
endfacet
facet normal 1.0 0.0 0.0
  outer loop
    vertex -5.844509869712343 -16.685316265550554 7.999999999999999
    vertex -5.844509869712343 -11.785316265550568 1.9999999999999998
    vertex -5.844509869712343 -11.785316265550568 7.999999999999999
  endloop
endfacet
facet normal 0.0 0.0 1.0
  outer loop
    vertex -10.444509869712347 18.589683734449448 1.9999999999999998
    vertex -15.444509869712348 36.31468373444943 1.9999999999999998
    vertex -15.444509869712348 18.589683734449448 1.9999999999999998
  endloop
endfacet
facet normal 0.0 0.0 1.0
  outer loop
    vertex -15.444509869712348 36.31468373444943 1.9999999999999998
    vertex -10.444509869712347 18.589683734449448 1.9999999999999998
    vertex -10.444509869712347 36.31468373444943 1.9999999999999998
  endloop
endfacet
facet normal 0.8370960922860247 0.018890743972604172 0.546729615140454
  outer loop
    vertex 11.155490130287648 -18.06031626555056 1.9999999999999998
    vertex 7.555490130287654 -32.18531626555056 7.999999999999999
    vertex 11.555490130287646 -35.785316265550556 1.9999999999999998
  endloop
endfacet
facet normal 0.0 0.0 -1.0
  outer loop
    vertex 11.155490130287648 51.31468373444945 0.0
    vertex 0.5554901302876447 46.31468373444944 0.0
    vertex 0.5554901302876447 51.31468373444945 0.0
  endloop
endfacet
facet normal 0.0 0.0 -1.0
  outer loop
    vertex 0.5554901302876447 46.31468373444944 0.0
    vertex 11.155490130287648 51.31468373444945 0.0
    vertex 4.35549013028766 42.51468373444942 0.0
  endloop
endfacet
facet normal 0.0 0.0 -1.0
  outer loop
    vertex 4.35549013028766 42.51468373444942 0.0
    vertex 11.155490130287648 51.31468373444945 0.0
    vertex 5.3554901302876585 41.51468373444943 0.0
  endloop
endfacet
facet normal 0.0 0.0 -1.0
  outer loop
    vertex 5.3554901302876585 41.51468373444943 0.0
    vertex 11.155490130287648 51.31468373444945 0.0
    vertex 5.3554901302876585 40.51468373444943 0.0
  endloop
endfacet
facet normal 0.0 0.0 -1.0
  outer loop
    vertex 16.15549013028766 46.31468373444944 0.0
    vertex 11.155490130287648 36.71468373444943 0.0
    vertex 11.155490130287648 46.31468373444944 0.0
  endloop
endfacet
facet normal 0.0 0.0 -1.0
  outer loop
    vertex 11.155490130287648 36.71468373444943 0.0
    vertex 16.15549013028766 46.31468373444944 0.0
    vertex 16.15549013028766 36.71468373444943 0.0
  endloop
endfacet
facet normal 0.0 0.0 -1.0
  outer loop
    vertex 16.15549013028766 18.18968373444945 0.0
    vertex 11.155490130287648 0.4646837344494372 0.0
    vertex 11.155490130287648 18.18968373444945 0.0
  endloop
endfacet
facet normal 0.0 0.0 -1.0
  outer loop
    vertex 11.155490130287648 0.4646837344494372 0.0
    vertex 16.15549013028766 18.18968373444945 0.0
    vertex 16.15549013028766 0.4646837344494372 0.0
  endloop
endfacet
facet normal 0.0 0.0 -1.0
  outer loop
    vertex 5.3554901302876585 40.51468373444943 0.0
    vertex 0.15549013028765674 -35.785316265550556 0.0
    vertex -4.644509869712346 40.51468373444943 0.0
  endloop
endfacet
facet normal 0.0 0.0 -1.0
  outer loop
    vertex 0.15549013028765674 -35.785316265550556 0.0
    vertex 5.3554901302876585 40.51468373444943 0.0
    vertex 11.555490130287646 -35.785316265550556 0.0
  endloop
endfacet
facet normal 0.0 0.0 -1.0
  outer loop
    vertex 11.555490130287646 -35.785316265550556 0.0
    vertex 5.3554901302876585 40.51468373444943 0.0
    vertex 11.155490130287648 -18.06031626555056 0.0
  endloop
endfacet
facet normal 0.0 0.0 -1.0
  outer loop
    vertex 11.155490130287648 -18.06031626555056 0.0
    vertex 5.3554901302876585 40.51468373444943 0.0
    vertex 11.155490130287648 51.31468373444945 0.0
  endloop
endfacet
facet normal 0.0 0.0 -1.0
  outer loop
    vertex 11.155490130287648 -18.06031626555056 0.0
    vertex 11.155490130287648 51.31468373444945 0.0
    vertex 11.155490130287648 46.31468373444944 0.0
  endloop
endfacet
facet normal 0.0 0.0 -1.0
  outer loop
    vertex 11.155490130287648 -18.06031626555056 0.0
    vertex 11.155490130287648 46.31468373444944 0.0
    vertex 11.155490130287648 36.71468373444943 0.0
  endloop
endfacet
facet normal 0.0 0.0 -1.0
  outer loop
    vertex 11.155490130287648 -18.06031626555056 0.0
    vertex 11.155490130287648 36.71468373444943 0.0
    vertex 11.155490130287648 18.18968373444945 0.0
  endloop
endfacet
facet normal 0.0 0.0 -1.0
  outer loop
    vertex 11.155490130287648 -18.06031626555056 0.0
    vertex 11.155490130287648 18.18968373444945 0.0
    vertex 11.155490130287648 0.4646837344494372 0.0
  endloop
endfacet
facet normal 0.0 0.0 -1.0
  outer loop
    vertex 11.555490130287646 -35.785316265550556 0.0
    vertex 11.155490130287648 -18.06031626555056 0.0
    vertex 16.15549013028766 -18.06031626555056 0.0
  endloop
endfacet
facet normal 0.0 0.0 -1.0
  outer loop
    vertex 11.555490130287646 -35.785316265550556 0.0
    vertex 16.15549013028766 -18.06031626555056 0.0
    vertex 11.555490130287646 -40.78531626555056 0.0
  endloop
endfacet
facet normal 0.0 0.0 -1.0
  outer loop
    vertex 11.555490130287646 -40.78531626555056 0.0
    vertex 16.15549013028766 -18.06031626555056 0.0
    vertex 16.15549013028766 -40.78531626555056 0.0
  endloop
endfacet
facet normal 0.0 0.0 -1.0
  outer loop
    vertex -10.444509869712347 46.31468373444944 0.0
    vertex -3.6445098697123477 42.51468373444942 0.0
    vertex -10.444509869712347 36.31468373444943 0.0
  endloop
endfacet
facet normal 0.0 0.0 -1.0
  outer loop
    vertex -3.6445098697123477 42.51468373444942 0.0
    vertex -10.444509869712347 46.31468373444944 0.0
    vertex 0.5554901302876447 46.31468373444944 0.0
  endloop
endfacet
facet normal 0.0 0.0 -1.0
  outer loop
    vertex -10.444509869712347 36.31468373444943 0.0
    vertex -3.6445098697123477 42.51468373444942 0.0
    vertex -4.644509869712346 41.51468373444943 0.0
  endloop
endfacet
facet normal 0.0 0.0 -1.0
  outer loop
    vertex -10.444509869712347 36.31468373444943 0.0
    vertex -4.644509869712346 41.51468373444943 0.0
    vertex -10.444509869712347 18.589683734449448 0.0
  endloop
endfacet
facet normal 0.0 0.0 -1.0
  outer loop
    vertex -10.444509869712347 18.589683734449448 0.0
    vertex -4.644509869712346 41.51468373444943 0.0
    vertex -10.444509869712347 0.06468373444943798 0.0
  endloop
endfacet
facet normal 0.0 0.0 -1.0
  outer loop
    vertex -10.444509869712347 0.06468373444943798 0.0
    vertex -4.644509869712346 41.51468373444943 0.0
    vertex -10.444509869712347 -17.660316265550563 0.0
  endloop
endfacet
facet normal 0.0 0.0 -1.0
  outer loop
    vertex -10.444509869712347 -17.660316265550563 0.0
    vertex -4.644509869712346 41.51468373444943 0.0
    vertex -10.444509869712347 -40.78531626555056 0.0
  endloop
endfacet
facet normal 0.0 0.0 -1.0
  outer loop
    vertex -3.6445098697123477 42.51468373444942 0.0
    vertex 0.5554901302876447 46.31468373444944 0.0
    vertex 4.35549013028766 42.51468373444942 0.0
  endloop
endfacet
facet normal 0.0 0.0 -1.0
  outer loop
    vertex -10.444509869712347 -40.78531626555056 0.0
    vertex -4.644509869712346 40.51468373444943 0.0
    vertex 0.15549013028765674 -40.78531626555056 0.0
  endloop
endfacet
facet normal 0.0 0.0 -1.0
  outer loop
    vertex -4.644509869712346 40.51468373444943 0.0
    vertex -10.444509869712347 -40.78531626555056 0.0
    vertex -4.644509869712346 41.51468373444943 0.0
  endloop
endfacet
facet normal 0.0 0.0 -1.0
  outer loop
    vertex 0.15549013028765674 -40.78531626555056 0.0
    vertex -4.644509869712346 40.51468373444943 0.0
    vertex 0.15549013028765674 -35.785316265550556 0.0
  endloop
endfacet
facet normal 0.0 0.0 -1.0
  outer loop
    vertex -10.444509869712347 0.06468373444943798 0.0
    vertex -15.444509869712348 -17.660316265550563 0.0
    vertex -15.444509869712348 0.06468373444943798 0.0
  endloop
endfacet
facet normal 0.0 0.0 -1.0
  outer loop
    vertex -15.444509869712348 -17.660316265550563 0.0
    vertex -10.444509869712347 0.06468373444943798 0.0
    vertex -10.444509869712347 -17.660316265550563 0.0
  endloop
endfacet
facet normal 0.0 0.0 -1.0
  outer loop
    vertex -10.444509869712347 36.31468373444943 0.0
    vertex -15.444509869712348 18.589683734449448 0.0
    vertex -15.444509869712348 36.31468373444943 0.0
  endloop
endfacet
facet normal 0.0 0.0 -1.0
  outer loop
    vertex -15.444509869712348 18.589683734449448 0.0
    vertex -10.444509869712347 36.31468373444943 0.0
    vertex -10.444509869712347 18.589683734449448 0.0
  endloop
endfacet
facet normal -1.0 0.0 0.0
  outer loop
    vertex 6.555490130287656 17.214683734449423 1.9999999999999998
    vertex 6.555490130287656 12.314683734449433 0.9999999999999999
    vertex 6.555490130287656 12.314683734449433 1.9999999999999998
  endloop
endfacet
facet normal -1.0 0.0 0.0
  outer loop
    vertex 6.555490130287656 12.314683734449433 0.9999999999999999
    vertex 6.555490130287656 17.214683734449423 1.9999999999999998
    vertex 6.555490130287656 17.214683734449423 0.9999999999999999
  endloop
endfacet
facet normal 0.0 -1.0 0.0
  outer loop
    vertex 6.555490130287656 2.7146837344494217 1.9999999999999998
    vertex -5.844509869712343 2.7146837344494217 0.9999999999999999
    vertex 6.555490130287656 2.7146837344494217 0.9999999999999999
  endloop
endfacet
facet normal 0.0 -1.0 0.0
  outer loop
    vertex -5.844509869712343 2.7146837344494217 0.9999999999999999
    vertex 6.555490130287656 2.7146837344494217 1.9999999999999998
    vertex -5.844509869712343 2.7146837344494217 1.9999999999999998
  endloop
endfacet
facet normal -1.0 -0.0 -0.0
  outer loop
    vertex 6.555490130287656 -11.785316265550568 7.999999999999999
    vertex 6.555490130287656 -16.685316265550554 1.9999999999999998
    vertex 6.555490130287656 -16.685316265550554 7.999999999999999
  endloop
endfacet
facet normal -1.0 -0.0 -0.0
  outer loop
    vertex 6.555490130287656 -16.685316265550554 1.9999999999999998
    vertex 6.555490130287656 -11.785316265550568 7.999999999999999
    vertex 6.555490130287656 -11.785316265550568 1.9999999999999998
  endloop
endfacet
facet normal 0.0 1.0 0.0
  outer loop
    vertex -5.844509869712343 -16.685316265550554 7.999999999999999
    vertex 6.555490130287656 -16.685316265550554 1.9999999999999998
    vertex -5.844509869712343 -16.685316265550554 1.9999999999999998
  endloop
endfacet
facet normal 0.0 1.0 0.0
  outer loop
    vertex 6.555490130287656 -16.685316265550554 1.9999999999999998
    vertex -5.844509869712343 -16.685316265550554 7.999999999999999
    vertex 6.555490130287656 -16.685316265550554 7.999999999999999
  endloop
endfacet
facet normal 0.0 -1.0 0.0
  outer loop
    vertex 6.555490130287656 -11.785316265550568 7.999999999999999
    vertex -5.844509869712343 -11.785316265550568 1.9999999999999998
    vertex 6.555490130287656 -11.785316265550568 1.9999999999999998
  endloop
endfacet
facet normal 0.0 -1.0 0.0
  outer loop
    vertex -5.844509869712343 -11.785316265550568 1.9999999999999998
    vertex 6.555490130287656 -11.785316265550568 7.999999999999999
    vertex -5.844509869712343 -11.785316265550568 7.999999999999999
  endloop
endfacet
facet normal 0.0 0.0 1.0
  outer loop
    vertex -10.444509869712347 -33.6756547046699 1.9999999999999998
    vertex -5.844509869712343 -31.18531626555056 1.9999999999999998
    vertex -10.444509869712347 -17.660316265550563 1.9999999999999998
  endloop
endfacet
facet normal 0.0 0.0 1.0
  outer loop
    vertex -5.844509869712343 -31.18531626555056 1.9999999999999998
    vertex -10.444509869712347 -33.6756547046699 1.9999999999999998
    vertex 0.15549013028765674 -35.785316265550556 1.9999999999999998
  endloop
endfacet
facet normal 0.0 0.0 1.0
  outer loop
    vertex -10.444509869712347 -17.660316265550563 1.9999999999999998
    vertex -5.844509869712343 -31.18531626555056 1.9999999999999998
    vertex -10.444509869712347 0.06468373444943798 1.9999999999999998
  endloop
endfacet
facet normal 0.0 0.0 1.0
  outer loop
    vertex -10.444509869712347 0.06468373444943798 1.9999999999999998
    vertex -5.844509869712343 -31.18531626555056 1.9999999999999998
    vertex -10.444509869712347 18.589683734449448 1.9999999999999998
  endloop
endfacet
facet normal 0.0 0.0 1.0
  outer loop
    vertex -10.444509869712347 18.589683734449448 1.9999999999999998
    vertex -5.844509869712343 -31.18531626555056 1.9999999999999998
    vertex -10.444509869712347 36.31468373444943 1.9999999999999998
  endloop
endfacet
facet normal 0.0 0.0 1.0
  outer loop
    vertex -5.844509869712343 -31.18531626555056 1.9999999999999998
    vertex 0.15549013028765674 -35.785316265550556 1.9999999999999998
    vertex 6.555490130287656 -31.18531626555056 1.9999999999999998
  endloop
endfacet
facet normal 0.0 0.0 1.0
  outer loop
    vertex 6.555490130287656 -31.18531626555056 1.9999999999999998
    vertex 0.15549013028765674 -35.785316265550556 1.9999999999999998
    vertex 11.555490130287646 -35.785316265550556 1.9999999999999998
  endloop
endfacet
facet normal 0.0 0.0 1.0
  outer loop
    vertex 6.555490130287656 -31.18531626555056 1.9999999999999998
    vertex 11.555490130287646 -35.785316265550556 1.9999999999999998
    vertex 6.555490130287656 -26.285316265550563 1.9999999999999998
  endloop
endfacet
facet normal 0.0 0.0 1.0
  outer loop
    vertex 6.555490130287656 -26.285316265550563 1.9999999999999998
    vertex 11.555490130287646 -35.785316265550556 1.9999999999999998
    vertex 6.555490130287656 -16.685316265550554 1.9999999999999998
  endloop
endfacet
facet normal 0.0 0.0 1.0
  outer loop
    vertex 6.555490130287656 -16.685316265550554 1.9999999999999998
    vertex 11.555490130287646 -35.785316265550556 1.9999999999999998
    vertex 6.555490130287656 -11.785316265550568 1.9999999999999998
  endloop
endfacet
facet normal 0.0 0.0 1.0
  outer loop
    vertex 6.555490130287656 -11.785316265550568 1.9999999999999998
    vertex 11.555490130287646 -35.785316265550556 1.9999999999999998
    vertex 6.555490130287656 -2.1853162655505693 1.9999999999999998
  endloop
endfacet
facet normal 0.0 0.0 1.0
  outer loop
    vertex 6.555490130287656 -2.1853162655505693 1.9999999999999998
    vertex 11.555490130287646 -35.785316265550556 1.9999999999999998
    vertex 6.555490130287656 2.7146837344494217 1.9999999999999998
  endloop
endfacet
facet normal 0.0 0.0 1.0
  outer loop
    vertex 6.555490130287656 2.7146837344494217 1.9999999999999998
    vertex 11.555490130287646 -35.785316265550556 1.9999999999999998
    vertex 6.555490130287656 12.314683734449433 1.9999999999999998
  endloop
endfacet
facet normal 0.0 0.0 1.0
  outer loop
    vertex 6.555490130287656 12.314683734449433 1.9999999999999998
    vertex 11.555490130287646 -35.785316265550556 1.9999999999999998
    vertex 6.555490130287656 17.214683734449423 1.9999999999999998
  endloop
endfacet
facet normal 0.0 0.0 1.0
  outer loop
    vertex 6.555490130287656 17.214683734449423 1.9999999999999998
    vertex 11.555490130287646 -35.785316265550556 1.9999999999999998
    vertex 6.555490130287656 26.814683734449428 1.9999999999999998
  endloop
endfacet
facet normal 0.0 0.0 1.0
  outer loop
    vertex 6.555490130287656 26.814683734449428 1.9999999999999998
    vertex 11.555490130287646 -35.785316265550556 1.9999999999999998
    vertex 6.555490130287656 31.71468373444944 1.9999999999999998
  endloop
endfacet
facet normal 0.0 0.0 1.0
  outer loop
    vertex 6.555490130287656 31.71468373444944 1.9999999999999998
    vertex 11.555490130287646 -35.785316265550556 1.9999999999999998
    vertex 11.155490130287648 -18.06031626555056 1.9999999999999998
  endloop
endfacet
facet normal 0.0 0.0 1.0
  outer loop
    vertex -10.444509869712347 36.31468373444943 1.9999999999999998
    vertex -5.844509869712343 31.71468373444944 1.9999999999999998
    vertex 11.155490130287648 36.71468373444943 1.9999999999999998
  endloop
endfacet
facet normal 0.0 0.0 1.0
  outer loop
    vertex -5.844509869712343 31.71468373444944 1.9999999999999998
    vertex -10.444509869712347 36.31468373444943 1.9999999999999998
    vertex -5.844509869712343 -31.18531626555056 1.9999999999999998
  endloop
endfacet
facet normal 0.0 0.0 1.0
  outer loop
    vertex -5.844509869712343 31.71468373444944 1.9999999999999998
    vertex -5.844509869712343 -31.18531626555056 1.9999999999999998
    vertex -5.844509869712343 -26.285316265550563 1.9999999999999998
  endloop
endfacet
facet normal 0.0 0.0 1.0
  outer loop
    vertex -5.844509869712343 31.71468373444944 1.9999999999999998
    vertex -5.844509869712343 -26.285316265550563 1.9999999999999998
    vertex -5.844509869712343 -16.685316265550554 1.9999999999999998
  endloop
endfacet
facet normal 0.0 0.0 1.0
  outer loop
    vertex -5.844509869712343 31.71468373444944 1.9999999999999998
    vertex -5.844509869712343 -16.685316265550554 1.9999999999999998
    vertex -5.844509869712343 -11.785316265550568 1.9999999999999998
  endloop
endfacet
facet normal 0.0 0.0 1.0
  outer loop
    vertex -5.844509869712343 31.71468373444944 1.9999999999999998
    vertex -5.844509869712343 -11.785316265550568 1.9999999999999998
    vertex -5.844509869712343 -2.1853162655505693 1.9999999999999998
  endloop
endfacet
facet normal 0.0 0.0 1.0
  outer loop
    vertex -5.844509869712343 31.71468373444944 1.9999999999999998
    vertex -5.844509869712343 -2.1853162655505693 1.9999999999999998
    vertex -5.844509869712343 2.7146837344494217 1.9999999999999998
  endloop
endfacet
facet normal 0.0 0.0 1.0
  outer loop
    vertex -5.844509869712343 31.71468373444944 1.9999999999999998
    vertex -5.844509869712343 2.7146837344494217 1.9999999999999998
    vertex -5.844509869712343 12.314683734449433 1.9999999999999998
  endloop
endfacet
facet normal 0.0 0.0 1.0
  outer loop
    vertex -5.844509869712343 31.71468373444944 1.9999999999999998
    vertex -5.844509869712343 12.314683734449433 1.9999999999999998
    vertex -5.844509869712343 17.214683734449423 1.9999999999999998
  endloop
endfacet
facet normal 0.0 0.0 1.0
  outer loop
    vertex -5.844509869712343 31.71468373444944 1.9999999999999998
    vertex -5.844509869712343 17.214683734449423 1.9999999999999998
    vertex -5.844509869712343 26.814683734449428 1.9999999999999998
  endloop
endfacet
facet normal 0.0 0.0 1.0
  outer loop
    vertex 11.155490130287648 36.71468373444943 1.9999999999999998
    vertex -5.844509869712343 31.71468373444944 1.9999999999999998
    vertex 6.555490130287656 31.71468373444944 1.9999999999999998
  endloop
endfacet
facet normal 0.0 0.0 1.0
  outer loop
    vertex 11.155490130287648 36.71468373444943 1.9999999999999998
    vertex 6.555490130287656 31.71468373444944 1.9999999999999998
    vertex 11.155490130287648 -18.06031626555056 1.9999999999999998
  endloop
endfacet
facet normal 0.0 0.0 1.0
  outer loop
    vertex 11.155490130287648 36.71468373444943 1.9999999999999998
    vertex 11.155490130287648 -18.06031626555056 1.9999999999999998
    vertex 11.155490130287648 0.4646837344494372 1.9999999999999998
  endloop
endfacet
facet normal 0.0 0.0 1.0
  outer loop
    vertex 11.155490130287648 36.71468373444943 1.9999999999999998
    vertex 11.155490130287648 0.4646837344494372 1.9999999999999998
    vertex 11.155490130287648 18.18968373444945 1.9999999999999998
  endloop
endfacet
facet normal 0.0 0.0 1.0
  outer loop
    vertex 6.555490130287656 17.214683734449423 1.9999999999999998
    vertex -5.844509869712343 26.814683734449428 1.9999999999999998
    vertex -5.844509869712343 17.214683734449423 1.9999999999999998
  endloop
endfacet
facet normal 0.0 0.0 1.0
  outer loop
    vertex -5.844509869712343 26.814683734449428 1.9999999999999998
    vertex 6.555490130287656 17.214683734449423 1.9999999999999998
    vertex 6.555490130287656 26.814683734449428 1.9999999999999998
  endloop
endfacet
facet normal 0.0 0.0 1.0
  outer loop
    vertex 6.555490130287656 2.7146837344494217 1.9999999999999998
    vertex -5.844509869712343 12.314683734449433 1.9999999999999998
    vertex -5.844509869712343 2.7146837344494217 1.9999999999999998
  endloop
endfacet
facet normal 0.0 0.0 1.0
  outer loop
    vertex -5.844509869712343 12.314683734449433 1.9999999999999998
    vertex 6.555490130287656 2.7146837344494217 1.9999999999999998
    vertex 6.555490130287656 12.314683734449433 1.9999999999999998
  endloop
endfacet
facet normal 0.0 0.0 1.0
  outer loop
    vertex 6.555490130287656 -11.785316265550568 1.9999999999999998
    vertex -5.844509869712343 -2.1853162655505693 1.9999999999999998
    vertex -5.844509869712343 -11.785316265550568 1.9999999999999998
  endloop
endfacet
facet normal 0.0 0.0 1.0
  outer loop
    vertex -5.844509869712343 -2.1853162655505693 1.9999999999999998
    vertex 6.555490130287656 -11.785316265550568 1.9999999999999998
    vertex 6.555490130287656 -2.1853162655505693 1.9999999999999998
  endloop
endfacet
facet normal 0.0 0.0 1.0
  outer loop
    vertex 6.555490130287656 -26.285316265550563 1.9999999999999998
    vertex -5.844509869712343 -16.685316265550554 1.9999999999999998
    vertex -5.844509869712343 -26.285316265550563 1.9999999999999998
  endloop
endfacet
facet normal 0.0 0.0 1.0
  outer loop
    vertex -5.844509869712343 -16.685316265550554 1.9999999999999998
    vertex 6.555490130287656 -26.285316265550563 1.9999999999999998
    vertex 6.555490130287656 -16.685316265550554 1.9999999999999998
  endloop
endfacet
facet normal -0.8574929257125443 -8.445766952029212e-18 0.5144957554275265
  outer loop
    vertex -6.844509869712353 -11.011827772666779 7.999999999999999
    vertex -10.444509869712347 0.06468373444943798 1.9999999999999998
    vertex -10.444509869712347 -17.660316265550563 1.9999999999999998
  endloop
endfacet
facet normal -0.8574929257125443 -8.445766952029212e-18 0.5144957554275265
  outer loop
    vertex -10.444509869712347 0.06468373444943798 1.9999999999999998
    vertex -6.844509869712353 -11.011827772666779 7.999999999999999
    vertex -6.844509869712353 2.9493257544029046 7.999999999999999
  endloop
endfacet
facet normal -1.0 0.0 0.0
  outer loop
    vertex -10.444509869712347 18.589683734449448 1.9999999999999998
    vertex -10.444509869712347 0.06468373444943798 0.0
    vertex -10.444509869712347 0.06468373444943798 1.9999999999999998
  endloop
endfacet
facet normal -1.0 0.0 0.0
  outer loop
    vertex -10.444509869712347 0.06468373444943798 0.0
    vertex -10.444509869712347 18.589683734449448 1.9999999999999998
    vertex -10.444509869712347 18.589683734449448 0.0
  endloop
endfacet
facet normal 1.0 0.0 0.0
  outer loop
    vertex -5.844509869712343 -26.285316265550563 1.9999999999999998
    vertex -5.844509869712343 -31.18531626555056 7.999999999999999
    vertex -5.844509869712343 -31.18531626555056 1.9999999999999998
  endloop
endfacet
facet normal 1.0 0.0 0.0
  outer loop
    vertex -5.844509869712343 -31.18531626555056 7.999999999999999
    vertex -5.844509869712343 -26.285316265550563 1.9999999999999998
    vertex -5.844509869712343 -26.285316265550563 7.999999999999999
  endloop
endfacet
facet normal -1.0 -3.9773857299688266e-17 -0.0
  outer loop
    vertex -15.444509869712348 0.06468373444943798 1.9999999999999998
    vertex -15.444509869712348 -17.660316265550563 0.0
    vertex -15.444509869712348 -17.660316265550563 1.9999999999999998
  endloop
endfacet
facet normal -1.0 -3.9773857299688266e-17 -0.0
  outer loop
    vertex -15.444509869712348 -17.660316265550563 0.0
    vertex -15.444509869712348 0.06468373444943798 1.9999999999999998
    vertex -15.444509869712348 0.06468373444943798 0.0
  endloop
endfacet
facet normal -1.0 0.0 0.0
  outer loop
    vertex 11.555490130287646 -35.785316265550556 1.9999999999999998
    vertex 11.555490130287646 -40.78531626555056 0.0
    vertex 11.555490130287646 -40.78531626555056 1.9999999999999998
  endloop
endfacet
facet normal -1.0 0.0 0.0
  outer loop
    vertex 11.555490130287646 -40.78531626555056 0.0
    vertex 11.555490130287646 -35.785316265550556 1.9999999999999998
    vertex 11.555490130287646 -35.785316265550556 0.0
  endloop
endfacet
facet normal -0.0 -1.0 -0.0
  outer loop
    vertex 16.15549013028766 -40.78531626555056 1.9999999999999998
    vertex 11.555490130287646 -40.78531626555056 0.0
    vertex 16.15549013028766 -40.78531626555056 0.0
  endloop
endfacet
facet normal -0.0 -1.0 -0.0
  outer loop
    vertex 11.555490130287646 -40.78531626555056 0.0
    vertex 16.15549013028766 -40.78531626555056 1.9999999999999998
    vertex 11.555490130287646 -40.78531626555056 1.9999999999999998
  endloop
endfacet
facet normal 0.0 1.0 0.0
  outer loop
    vertex -15.444509869712348 0.06468373444943798 1.9999999999999998
    vertex -10.444509869712347 0.06468373444943798 0.0
    vertex -15.444509869712348 0.06468373444943798 0.0
  endloop
endfacet
facet normal 0.0 1.0 0.0
  outer loop
    vertex -10.444509869712347 0.06468373444943798 0.0
    vertex -15.444509869712348 0.06468373444943798 1.9999999999999998
    vertex -10.444509869712347 0.06468373444943798 1.9999999999999998
  endloop
endfacet
facet normal 0.0 1.0 0.0
  outer loop
    vertex 0.5554901302876447 51.31468373444945 1.9999999999999998
    vertex 11.155490130287648 51.31468373444945 0.0
    vertex 0.5554901302876447 51.31468373444945 0.0
  endloop
endfacet
facet normal 0.0 1.0 0.0
  outer loop
    vertex 11.155490130287648 51.31468373444945 0.0
    vertex 0.5554901302876447 51.31468373444945 1.9999999999999998
    vertex 11.155490130287648 51.31468373444945 1.9999999999999998
  endloop
endfacet
facet normal 0.0 1.0 0.0
  outer loop
    vertex -5.844509869712343 -31.18531626555056 7.999999999999999
    vertex 6.555490130287656 -31.18531626555056 1.9999999999999998
    vertex -5.844509869712343 -31.18531626555056 1.9999999999999998
  endloop
endfacet
facet normal 0.0 1.0 0.0
  outer loop
    vertex 6.555490130287656 -31.18531626555056 1.9999999999999998
    vertex -5.844509869712343 -31.18531626555056 7.999999999999999
    vertex 6.555490130287656 -31.18531626555056 7.999999999999999
  endloop
endfacet
facet normal -0.0 -1.0 -0.0
  outer loop
    vertex 11.555490130287646 -35.785316265550556 1.9999999999999998
    vertex 0.15549013028765674 -35.785316265550556 0.0
    vertex 11.555490130287646 -35.785316265550556 0.0
  endloop
endfacet
facet normal -0.0 -1.0 -0.0
  outer loop
    vertex 0.15549013028765674 -35.785316265550556 0.0
    vertex 11.555490130287646 -35.785316265550556 1.9999999999999998
    vertex 0.15549013028765674 -35.785316265550556 1.9999999999999998
  endloop
endfacet
facet normal -0.0 -1.0 -0.0
  outer loop
    vertex -10.444509869712347 -17.660316265550563 1.9999999999999998
    vertex -15.444509869712348 -17.660316265550563 0.0
    vertex -10.444509869712347 -17.660316265550563 0.0
  endloop
endfacet
facet normal -0.0 -1.0 -0.0
  outer loop
    vertex -15.444509869712348 -17.660316265550563 0.0
    vertex -10.444509869712347 -17.660316265550563 1.9999999999999998
    vertex -15.444509869712348 -17.660316265550563 1.9999999999999998
  endloop
endfacet
facet normal 1.0 0.0 0.0
  outer loop
    vertex 11.155490130287648 0.4646837344494372 0.0
    vertex 11.155490130287648 -18.06031626555056 1.9999999999999998
    vertex 11.155490130287648 -18.06031626555056 0.0
  endloop
endfacet
facet normal 1.0 0.0 0.0
  outer loop
    vertex 11.155490130287648 -18.06031626555056 1.9999999999999998
    vertex 11.155490130287648 0.4646837344494372 0.0
    vertex 11.155490130287648 0.4646837344494372 1.9999999999999998
  endloop
endfacet
facet normal -1.0 -0.0 -0.0
  outer loop
    vertex 6.555490130287656 -26.285316265550563 7.999999999999999
    vertex 6.555490130287656 -31.18531626555056 1.9999999999999998
    vertex 6.555490130287656 -31.18531626555056 7.999999999999999
  endloop
endfacet
facet normal -1.0 -0.0 -0.0
  outer loop
    vertex 6.555490130287656 -31.18531626555056 1.9999999999999998
    vertex 6.555490130287656 -26.285316265550563 7.999999999999999
    vertex 6.555490130287656 -26.285316265550563 1.9999999999999998
  endloop
endfacet
facet normal -1.0 0.0 0.0
  outer loop
    vertex 0.5554901302876447 51.31468373444945 1.9999999999999998
    vertex 0.5554901302876447 46.31468373444944 0.0
    vertex 0.5554901302876447 46.31468373444944 1.9999999999999998
  endloop
endfacet
facet normal -1.0 0.0 0.0
  outer loop
    vertex 0.5554901302876447 46.31468373444944 0.0
    vertex 0.5554901302876447 51.31468373444945 1.9999999999999998
    vertex 0.5554901302876447 51.31468373444945 0.0
  endloop
endfacet
facet normal 0.0 -1.0 0.0
  outer loop
    vertex 16.15549013028766 36.71468373444943 1.9999999999999998
    vertex 11.155490130287648 36.71468373444943 0.0
    vertex 16.15549013028766 36.71468373444943 0.0
  endloop
endfacet
facet normal 0.0 -1.0 0.0
  outer loop
    vertex 11.155490130287648 36.71468373444943 0.0
    vertex 16.15549013028766 36.71468373444943 1.9999999999999998
    vertex 11.155490130287648 36.71468373444943 1.9999999999999998
  endloop
endfacet
facet normal 1.0 0.0 0.0
  outer loop
    vertex 0.15549013028765674 -35.785316265550556 0.0
    vertex 0.15549013028765674 -40.78531626555056 1.9999999999999998
    vertex 0.15549013028765674 -40.78531626555056 0.0
  endloop
endfacet
facet normal 1.0 0.0 0.0
  outer loop
    vertex 0.15549013028765674 -40.78531626555056 1.9999999999999998
    vertex 0.15549013028765674 -35.785316265550556 0.0
    vertex 0.15549013028765674 -35.785316265550556 1.9999999999999998
  endloop
endfacet
facet normal 1.0 0.0 0.0
  outer loop
    vertex 11.155490130287648 51.31468373444945 0.0
    vertex 11.155490130287648 46.31468373444944 1.9999999999999998
    vertex 11.155490130287648 46.31468373444944 0.0
  endloop
endfacet
facet normal 1.0 0.0 0.0
  outer loop
    vertex 11.155490130287648 46.31468373444944 1.9999999999999998
    vertex 11.155490130287648 51.31468373444945 0.0
    vertex 11.155490130287648 51.31468373444945 1.9999999999999998
  endloop
endfacet
facet normal -0.0 -1.0 -0.0
  outer loop
    vertex 16.15549013028766 0.4646837344494372 1.9999999999999998
    vertex 11.155490130287648 0.4646837344494372 0.0
    vertex 16.15549013028766 0.4646837344494372 0.0
  endloop
endfacet
facet normal -0.0 -1.0 -0.0
  outer loop
    vertex 11.155490130287648 0.4646837344494372 0.0
    vertex 16.15549013028766 0.4646837344494372 1.9999999999999998
    vertex 11.155490130287648 0.4646837344494372 1.9999999999999998
  endloop
endfacet
facet normal 1.0 0.0 0.0
  outer loop
    vertex 16.15549013028766 18.18968373444945 0.0
    vertex 16.15549013028766 0.4646837344494372 1.9999999999999998
    vertex 16.15549013028766 0.4646837344494372 0.0
  endloop
endfacet
facet normal 1.0 0.0 0.0
  outer loop
    vertex 16.15549013028766 0.4646837344494372 1.9999999999999998
    vertex 16.15549013028766 18.18968373444945 0.0
    vertex 16.15549013028766 18.18968373444945 1.9999999999999998
  endloop
endfacet
facet normal 0.0 1.0 0.0
  outer loop
    vertex -10.444509869712347 46.31468373444944 1.9999999999999998
    vertex 0.5554901302876447 46.31468373444944 0.0
    vertex -10.444509869712347 46.31468373444944 0.0
  endloop
endfacet
facet normal 0.0 1.0 0.0
  outer loop
    vertex 0.5554901302876447 46.31468373444944 0.0
    vertex -10.444509869712347 46.31468373444944 1.9999999999999998
    vertex 0.5554901302876447 46.31468373444944 1.9999999999999998
  endloop
endfacet
facet normal 1.0 0.0 0.0
  outer loop
    vertex 11.155490130287648 36.71468373444943 0.0
    vertex 11.155490130287648 18.18968373444945 1.9999999999999998
    vertex 11.155490130287648 18.18968373444945 0.0
  endloop
endfacet
facet normal 1.0 0.0 0.0
  outer loop
    vertex 11.155490130287648 18.18968373444945 1.9999999999999998
    vertex 11.155490130287648 36.71468373444943 0.0
    vertex 11.155490130287648 36.71468373444943 1.9999999999999998
  endloop
endfacet
facet normal 1.0 0.0 0.0
  outer loop
    vertex 16.15549013028766 46.31468373444944 0.0
    vertex 16.15549013028766 36.71468373444943 1.9999999999999998
    vertex 16.15549013028766 36.71468373444943 0.0
  endloop
endfacet
facet normal 1.0 0.0 0.0
  outer loop
    vertex 16.15549013028766 36.71468373444943 1.9999999999999998
    vertex 16.15549013028766 46.31468373444944 0.0
    vertex 16.15549013028766 46.31468373444944 1.9999999999999998
  endloop
endfacet
facet normal 0.0 1.0 0.0
  outer loop
    vertex 11.155490130287648 -18.06031626555056 1.9999999999999998
    vertex 16.15549013028766 -18.06031626555056 0.0
    vertex 11.155490130287648 -18.06031626555056 0.0
  endloop
endfacet
facet normal 0.0 1.0 0.0
  outer loop
    vertex 16.15549013028766 -18.06031626555056 0.0
    vertex 11.155490130287648 -18.06031626555056 1.9999999999999998
    vertex 16.15549013028766 -18.06031626555056 1.9999999999999998
  endloop
endfacet
facet normal 1.0 0.0 0.0
  outer loop
    vertex 16.15549013028766 -18.06031626555056 0.0
    vertex 16.15549013028766 -40.78531626555056 1.9999999999999998
    vertex 16.15549013028766 -40.78531626555056 0.0
  endloop
endfacet
facet normal 1.0 0.0 0.0
  outer loop
    vertex 16.15549013028766 -40.78531626555056 1.9999999999999998
    vertex 16.15549013028766 -18.06031626555056 0.0
    vertex 16.15549013028766 -18.06031626555056 1.9999999999999998
  endloop
endfacet
facet normal -1.0 0.0 0.0
  outer loop
    vertex -10.444509869712347 46.31468373444944 1.9999999999999998
    vertex -10.444509869712347 36.31468373444943 0.0
    vertex -10.444509869712347 36.31468373444943 1.9999999999999998
  endloop
endfacet
facet normal -1.0 0.0 0.0
  outer loop
    vertex -10.444509869712347 36.31468373444943 0.0
    vertex -10.444509869712347 46.31468373444944 1.9999999999999998
    vertex -10.444509869712347 46.31468373444944 0.0
  endloop
endfacet
facet normal 0.0 1.0 0.0
  outer loop
    vertex 11.155490130287648 46.31468373444944 1.9999999999999998
    vertex 16.15549013028766 46.31468373444944 0.0
    vertex 11.155490130287648 46.31468373444944 0.0
  endloop
endfacet
facet normal 0.0 1.0 0.0
  outer loop
    vertex 16.15549013028766 46.31468373444944 0.0
    vertex 11.155490130287648 46.31468373444944 1.9999999999999998
    vertex 16.15549013028766 46.31468373444944 1.9999999999999998
  endloop
endfacet
facet normal 0.0 1.0 0.0
  outer loop
    vertex 11.155490130287648 18.18968373444945 1.9999999999999998
    vertex 16.15549013028766 18.18968373444945 0.0
    vertex 11.155490130287648 18.18968373444945 0.0
  endloop
endfacet
facet normal 0.0 1.0 0.0
  outer loop
    vertex 16.15549013028766 18.18968373444945 0.0
    vertex 11.155490130287648 18.18968373444945 1.9999999999999998
    vertex 16.15549013028766 18.18968373444945 1.9999999999999998
  endloop
endfacet
facet normal -1.0 0.0 0.0
  outer loop
    vertex -10.444509869712347 -33.6756547046699 1.9999999999999998
    vertex -10.444509869712347 -40.78531626555056 0.0
    vertex -10.444509869712347 -40.78531626555056 1.9999999999999998
  endloop
endfacet
facet normal -1.0 0.0 0.0
  outer loop
    vertex -10.444509869712347 -40.78531626555056 0.0
    vertex -10.444509869712347 -33.6756547046699 1.9999999999999998
    vertex -10.444509869712347 -17.660316265550563 0.0
  endloop
endfacet
facet normal -1.0 0.0 0.0
  outer loop
    vertex -10.444509869712347 -17.660316265550563 0.0
    vertex -10.444509869712347 -33.6756547046699 1.9999999999999998
    vertex -10.444509869712347 -17.660316265550563 1.9999999999999998
  endloop
endfacet
facet normal 0.0 1.0 0.0
  outer loop
    vertex -15.444509869712348 36.31468373444943 1.9999999999999998
    vertex -10.444509869712347 36.31468373444943 0.0
    vertex -15.444509869712348 36.31468373444943 0.0
  endloop
endfacet
facet normal 0.0 1.0 0.0
  outer loop
    vertex -10.444509869712347 36.31468373444943 0.0
    vertex -15.444509869712348 36.31468373444943 1.9999999999999998
    vertex -10.444509869712347 36.31468373444943 1.9999999999999998
  endloop
endfacet
facet normal -0.0 -1.0 -0.0
  outer loop
    vertex -10.444509869712347 18.589683734449448 1.9999999999999998
    vertex -15.444509869712348 18.589683734449448 0.0
    vertex -10.444509869712347 18.589683734449448 0.0
  endloop
endfacet
facet normal -0.0 -1.0 -0.0
  outer loop
    vertex -15.444509869712348 18.589683734449448 0.0
    vertex -10.444509869712347 18.589683734449448 1.9999999999999998
    vertex -15.444509869712348 18.589683734449448 1.9999999999999998
  endloop
endfacet
facet normal -1.0 0.0 0.0
  outer loop
    vertex -15.444509869712348 36.31468373444943 1.9999999999999998
    vertex -15.444509869712348 18.589683734449448 0.0
    vertex -15.444509869712348 18.589683734449448 1.9999999999999998
  endloop
endfacet
facet normal -1.0 0.0 0.0
  outer loop
    vertex -15.444509869712348 18.589683734449448 0.0
    vertex -15.444509869712348 36.31468373444943 1.9999999999999998
    vertex -15.444509869712348 36.31468373444943 0.0
  endloop
endfacet
facet normal 0.0 0.0 1.0
  outer loop
    vertex 16.15549013028766 0.4646837344494372 1.9999999999999998
    vertex 11.155490130287648 18.18968373444945 1.9999999999999998
    vertex 11.155490130287648 0.4646837344494372 1.9999999999999998
  endloop
endfacet
facet normal 0.0 0.0 1.0
  outer loop
    vertex 11.155490130287648 18.18968373444945 1.9999999999999998
    vertex 16.15549013028766 0.4646837344494372 1.9999999999999998
    vertex 16.15549013028766 18.18968373444945 1.9999999999999998
  endloop
endfacet
facet normal -8.31358043203979e-18 -1.0 -0.0
  outer loop
    vertex 0.15549013028765674 -40.78531626555056 1.9999999999999998
    vertex -10.444509869712347 -40.78531626555056 0.0
    vertex 0.15549013028765674 -40.78531626555056 0.0
  endloop
endfacet
facet normal -8.31358043203979e-18 -1.0 -0.0
  outer loop
    vertex -10.444509869712347 -40.78531626555056 0.0
    vertex 0.15549013028765674 -40.78531626555056 1.9999999999999998
    vertex -10.444509869712347 -40.78531626555056 1.9999999999999998
  endloop
endfacet
facet normal 0.0 -1.0 0.0
  outer loop
    vertex 6.555490130287656 -26.285316265550563 7.999999999999999
    vertex -5.844509869712343 -26.285316265550563 1.9999999999999998
    vertex 6.555490130287656 -26.285316265550563 1.9999999999999998
  endloop
endfacet
facet normal 0.0 -1.0 0.0
  outer loop
    vertex -5.844509869712343 -26.285316265550563 1.9999999999999998
    vertex 6.555490130287656 -26.285316265550563 7.999999999999999
    vertex -5.844509869712343 -26.285316265550563 7.999999999999999
  endloop
endfacet
facet normal -0.8574929257125443 -1.8287159213863727e-18 0.5144957554275263
  outer loop
    vertex -6.844509869712353 2.9493257544029046 7.999999999999999
    vertex -10.444509869712347 18.589683734449448 1.9999999999999998
    vertex -10.444509869712347 0.06468373444943798 1.9999999999999998
  endloop
endfacet
facet normal -0.8574929257125443 -1.8287159213863727e-18 0.5144957554275263
  outer loop
    vertex -10.444509869712347 18.589683734449448 1.9999999999999998
    vertex -6.844509869712353 2.9493257544029046 7.999999999999999
    vertex -6.844509869712353 18.589683734449448 7.999999999999999
  endloop
endfacet
facet normal 0.0 -1.0 0.0
  outer loop
    vertex 6.555490130287656 -26.285316265550563 1.9999999999999998
    vertex -5.844509869712343 -26.285316265550563 0.9999999999999999
    vertex 6.555490130287656 -26.285316265550563 0.9999999999999999
  endloop
endfacet
facet normal 0.0 -1.0 0.0
  outer loop
    vertex -5.844509869712343 -26.285316265550563 0.9999999999999999
    vertex 6.555490130287656 -26.285316265550563 1.9999999999999998
    vertex -5.844509869712343 -26.285316265550563 1.9999999999999998
  endloop
endfacet
facet normal -0.8574929257125443 -3.0502297488648756e-17 0.5144957554275263
  outer loop
    vertex -6.844509869712353 -32.18531626555056 7.999999999999999
    vertex -10.444509869712347 -17.660316265550563 1.9999999999999998
    vertex -10.444509869712347 -33.6756547046699 1.9999999999999998
  endloop
endfacet
facet normal -0.8574929257125443 -3.0502297488648756e-17 0.5144957554275263
  outer loop
    vertex -10.444509869712347 -17.660316265550563 1.9999999999999998
    vertex -6.844509869712353 -32.18531626555056 7.999999999999999
    vertex -6.844509869712353 -11.011827772666779 7.999999999999999
  endloop
endfacet
facet normal -2.549300786922609e-17 -0.8574929257125443 0.5144957554275266
  outer loop
    vertex 7.555490130287654 -32.18531626555056 7.999999999999999
    vertex 0.15549013028765674 -35.785316265550556 1.9999999999999998
    vertex 11.555490130287646 -35.785316265550556 1.9999999999999998
  endloop
endfacet
facet normal -2.549300786922609e-17 -0.8574929257125443 0.5144957554275266
  outer loop
    vertex 0.15549013028765674 -35.785316265550556 1.9999999999999998
    vertex 7.555490130287654 -32.18531626555056 7.999999999999999
    vertex -6.844509869712353 -32.18531626555056 7.999999999999999
  endloop
endfacet
facet normal 0.0 0.0 1.0
  outer loop
    vertex -10.444509869712347 -17.660316265550563 1.9999999999999998
    vertex -15.444509869712348 0.06468373444943798 1.9999999999999998
    vertex -15.444509869712348 -17.660316265550563 1.9999999999999998
  endloop
endfacet
facet normal 0.0 0.0 1.0
  outer loop
    vertex -15.444509869712348 0.06468373444943798 1.9999999999999998
    vertex -10.444509869712347 -17.660316265550563 1.9999999999999998
    vertex -10.444509869712347 0.06468373444943798 1.9999999999999998
  endloop
endfacet
facet normal 0.0 0.0 1.0
  outer loop
    vertex -6.844509869712353 -32.18531626555056 7.999999999999999
    vertex -5.844509869712343 -31.18531626555056 7.999999999999999
    vertex -6.844509869712353 -11.011827772666779 7.999999999999999
  endloop
endfacet
facet normal 0.0 0.0 1.0
  outer loop
    vertex -5.844509869712343 -31.18531626555056 7.999999999999999
    vertex -6.844509869712353 -32.18531626555056 7.999999999999999
    vertex 7.555490130287654 -32.18531626555056 7.999999999999999
  endloop
endfacet
facet normal 0.0 0.0 1.0
  outer loop
    vertex -6.844509869712353 -11.011827772666779 7.999999999999999
    vertex -5.844509869712343 -31.18531626555056 7.999999999999999
    vertex -6.844509869712353 2.9493257544029046 7.999999999999999
  endloop
endfacet
facet normal 0.0 0.0 1.0
  outer loop
    vertex -6.844509869712353 2.9493257544029046 7.999999999999999
    vertex -5.844509869712343 -31.18531626555056 7.999999999999999
    vertex -6.844509869712353 18.589683734449448 7.999999999999999
  endloop
endfacet
facet normal 0.0 0.0 1.0
  outer loop
    vertex -6.844509869712353 18.589683734449448 7.999999999999999
    vertex -5.844509869712343 -31.18531626555056 7.999999999999999
    vertex -6.844509869712353 32.71468373444944 7.999999999999999
  endloop
endfacet
facet normal 0.0 0.0 1.0
  outer loop
    vertex -5.844509869712343 -31.18531626555056 7.999999999999999
    vertex 7.555490130287654 -32.18531626555056 7.999999999999999
    vertex 6.555490130287656 -31.18531626555056 7.999999999999999
  endloop
endfacet
facet normal 0.0 0.0 1.0
  outer loop
    vertex 6.555490130287656 -31.18531626555056 7.999999999999999
    vertex 7.555490130287654 -32.18531626555056 7.999999999999999
    vertex 6.555490130287656 -26.285316265550563 7.999999999999999
  endloop
endfacet
facet normal 0.0 0.0 1.0
  outer loop
    vertex 6.555490130287656 -26.285316265550563 7.999999999999999
    vertex 7.555490130287654 -32.18531626555056 7.999999999999999
    vertex 6.555490130287656 -16.685316265550554 7.999999999999999
  endloop
endfacet
facet normal 0.0 0.0 1.0
  outer loop
    vertex 6.555490130287656 -16.685316265550554 7.999999999999999
    vertex 7.555490130287654 -32.18531626555056 7.999999999999999
    vertex 6.555490130287656 -11.785316265550568 7.999999999999999
  endloop
endfacet
facet normal 0.0 0.0 1.0
  outer loop
    vertex 6.555490130287656 -11.785316265550568 7.999999999999999
    vertex 7.555490130287654 -32.18531626555056 7.999999999999999
    vertex 6.555490130287656 -2.1853162655505693 7.999999999999999
  endloop
endfacet
facet normal 0.0 0.0 1.0
  outer loop
    vertex 6.555490130287656 -2.1853162655505693 7.999999999999999
    vertex 7.555490130287654 -32.18531626555056 7.999999999999999
    vertex 6.555490130287656 2.7146837344494217 7.999999999999999
  endloop
endfacet
facet normal 0.0 0.0 1.0
  outer loop
    vertex 6.555490130287656 2.7146837344494217 7.999999999999999
    vertex 7.555490130287654 -32.18531626555056 7.999999999999999
    vertex 6.555490130287656 12.314683734449433 7.999999999999999
  endloop
endfacet
facet normal 0.0 0.0 1.0
  outer loop
    vertex 6.555490130287656 12.314683734449433 7.999999999999999
    vertex 7.555490130287654 -32.18531626555056 7.999999999999999
    vertex 6.555490130287656 17.214683734449423 7.999999999999999
  endloop
endfacet
facet normal 0.0 0.0 1.0
  outer loop
    vertex 6.555490130287656 17.214683734449423 7.999999999999999
    vertex 7.555490130287654 -32.18531626555056 7.999999999999999
    vertex 6.555490130287656 26.814683734449428 7.999999999999999
  endloop
endfacet
facet normal 0.0 0.0 1.0
  outer loop
    vertex 6.555490130287656 26.814683734449428 7.999999999999999
    vertex 7.555490130287654 -32.18531626555056 7.999999999999999
    vertex 6.555490130287656 31.71468373444944 7.999999999999999
  endloop
endfacet
facet normal 0.0 0.0 1.0
  outer loop
    vertex -6.844509869712353 32.71468373444944 7.999999999999999
    vertex -5.844509869712343 31.71468373444944 7.999999999999999
    vertex 7.555490130287654 32.71468373444944 7.999999999999999
  endloop
endfacet
facet normal 0.0 0.0 1.0
  outer loop
    vertex -5.844509869712343 31.71468373444944 7.999999999999999
    vertex -6.844509869712353 32.71468373444944 7.999999999999999
    vertex -5.844509869712343 -31.18531626555056 7.999999999999999
  endloop
endfacet
facet normal 0.0 0.0 1.0
  outer loop
    vertex -5.844509869712343 31.71468373444944 7.999999999999999
    vertex -5.844509869712343 -31.18531626555056 7.999999999999999
    vertex -5.844509869712343 -26.285316265550563 7.999999999999999
  endloop
endfacet
facet normal 0.0 0.0 1.0
  outer loop
    vertex -5.844509869712343 31.71468373444944 7.999999999999999
    vertex -5.844509869712343 -26.285316265550563 7.999999999999999
    vertex -5.844509869712343 -16.685316265550554 7.999999999999999
  endloop
endfacet
facet normal 0.0 0.0 1.0
  outer loop
    vertex -5.844509869712343 31.71468373444944 7.999999999999999
    vertex -5.844509869712343 -16.685316265550554 7.999999999999999
    vertex -5.844509869712343 -11.785316265550568 7.999999999999999
  endloop
endfacet
facet normal 0.0 0.0 1.0
  outer loop
    vertex -5.844509869712343 31.71468373444944 7.999999999999999
    vertex -5.844509869712343 -11.785316265550568 7.999999999999999
    vertex -5.844509869712343 -2.1853162655505693 7.999999999999999
  endloop
endfacet
facet normal 0.0 0.0 1.0
  outer loop
    vertex -5.844509869712343 31.71468373444944 7.999999999999999
    vertex -5.844509869712343 -2.1853162655505693 7.999999999999999
    vertex -5.844509869712343 2.7146837344494217 7.999999999999999
  endloop
endfacet
facet normal 0.0 0.0 1.0
  outer loop
    vertex -5.844509869712343 31.71468373444944 7.999999999999999
    vertex -5.844509869712343 2.7146837344494217 7.999999999999999
    vertex -5.844509869712343 12.314683734449433 7.999999999999999
  endloop
endfacet
facet normal 0.0 0.0 1.0
  outer loop
    vertex -5.844509869712343 31.71468373444944 7.999999999999999
    vertex -5.844509869712343 12.314683734449433 7.999999999999999
    vertex -5.844509869712343 17.214683734449423 7.999999999999999
  endloop
endfacet
facet normal 0.0 0.0 1.0
  outer loop
    vertex -5.844509869712343 31.71468373444944 7.999999999999999
    vertex -5.844509869712343 17.214683734449423 7.999999999999999
    vertex -5.844509869712343 26.814683734449428 7.999999999999999
  endloop
endfacet
facet normal 0.0 0.0 1.0
  outer loop
    vertex 7.555490130287654 32.71468373444944 7.999999999999999
    vertex -5.844509869712343 31.71468373444944 7.999999999999999
    vertex 6.555490130287656 31.71468373444944 7.999999999999999
  endloop
endfacet
facet normal 0.0 0.0 1.0
  outer loop
    vertex 7.555490130287654 32.71468373444944 7.999999999999999
    vertex 6.555490130287656 31.71468373444944 7.999999999999999
    vertex 7.555490130287654 -32.18531626555056 7.999999999999999
  endloop
endfacet
facet normal 0.0 0.0 1.0
  outer loop
    vertex 7.555490130287654 32.71468373444944 7.999999999999999
    vertex 7.555490130287654 -32.18531626555056 7.999999999999999
    vertex 7.555490130287654 -16.600418282307032 7.999999999999999
  endloop
endfacet
facet normal 0.0 0.0 1.0
  outer loop
    vertex 7.555490130287654 32.71468373444944 7.999999999999999
    vertex 7.555490130287654 -16.600418282307032 7.999999999999999
    vertex 7.555490130287654 -0.2399447459240487 7.999999999999999
  endloop
endfacet
facet normal 0.0 0.0 1.0
  outer loop
    vertex 7.555490130287654 32.71468373444944 7.999999999999999
    vertex 7.555490130287654 -0.2399447459240487 7.999999999999999
    vertex 7.555490130287654 15.291759461086173 7.999999999999999
  endloop
endfacet
facet normal 0.0 0.0 1.0
  outer loop
    vertex 6.555490130287656 17.214683734449423 7.999999999999999
    vertex -5.844509869712343 26.814683734449428 7.999999999999999
    vertex -5.844509869712343 17.214683734449423 7.999999999999999
  endloop
endfacet
facet normal 0.0 0.0 1.0
  outer loop
    vertex -5.844509869712343 26.814683734449428 7.999999999999999
    vertex 6.555490130287656 17.214683734449423 7.999999999999999
    vertex 6.555490130287656 26.814683734449428 7.999999999999999
  endloop
endfacet
facet normal 0.0 0.0 1.0
  outer loop
    vertex 6.555490130287656 2.7146837344494217 7.999999999999999
    vertex -5.844509869712343 12.314683734449433 7.999999999999999
    vertex -5.844509869712343 2.7146837344494217 7.999999999999999
  endloop
endfacet
facet normal 0.0 0.0 1.0
  outer loop
    vertex -5.844509869712343 12.314683734449433 7.999999999999999
    vertex 6.555490130287656 2.7146837344494217 7.999999999999999
    vertex 6.555490130287656 12.314683734449433 7.999999999999999
  endloop
endfacet
facet normal 0.0 0.0 1.0
  outer loop
    vertex 6.555490130287656 -11.785316265550568 7.999999999999999
    vertex -5.844509869712343 -2.1853162655505693 7.999999999999999
    vertex -5.844509869712343 -11.785316265550568 7.999999999999999
  endloop
endfacet
facet normal 0.0 0.0 1.0
  outer loop
    vertex -5.844509869712343 -2.1853162655505693 7.999999999999999
    vertex 6.555490130287656 -11.785316265550568 7.999999999999999
    vertex 6.555490130287656 -2.1853162655505693 7.999999999999999
  endloop
endfacet
facet normal 0.0 0.0 1.0
  outer loop
    vertex 6.555490130287656 -26.285316265550563 7.999999999999999
    vertex -5.844509869712343 -16.685316265550554 7.999999999999999
    vertex -5.844509869712343 -26.285316265550563 7.999999999999999
  endloop
endfacet
facet normal 0.0 0.0 1.0
  outer loop
    vertex -5.844509869712343 -16.685316265550554 7.999999999999999
    vertex 6.555490130287656 -26.285316265550563 7.999999999999999
    vertex 6.555490130287656 -16.685316265550554 7.999999999999999
  endloop
endfacet
facet normal 0.8574929257125441 0.0 0.5144957554275267
  outer loop
    vertex 7.555490130287654 -16.600418282307032 7.999999999999999
    vertex 7.555490130287654 -32.18531626555056 7.999999999999999
    vertex 11.155490130287648 -18.06031626555056 1.9999999999999998
  endloop
endfacet
facet normal -0.1836149907889001 -0.9225739988123357 0.3393269100336847
  outer loop
    vertex -6.844509869712353 -32.18531626555056 7.999999999999999
    vertex -10.444509869712347 -33.6756547046699 1.9999999999999998
    vertex 0.15549013028765674 -35.785316265550556 1.9999999999999998
  endloop
endfacet
facet normal 0.0 1.0 0.0
  outer loop
    vertex -5.844509869712343 -31.18531626555056 1.9999999999999998
    vertex 6.555490130287656 -31.18531626555056 0.9999999999999999
    vertex -5.844509869712343 -31.18531626555056 0.9999999999999999
  endloop
endfacet
facet normal 0.0 1.0 0.0
  outer loop
    vertex 6.555490130287656 -31.18531626555056 0.9999999999999999
    vertex -5.844509869712343 -31.18531626555056 1.9999999999999998
    vertex 6.555490130287656 -31.18531626555056 1.9999999999999998
  endloop
endfacet
facet normal 0.0 1.0 0.0
  outer loop
    vertex -5.844509869712343 26.814683734449428 1.9999999999999998
    vertex 6.555490130287656 26.814683734449428 0.9999999999999999
    vertex -5.844509869712343 26.814683734449428 0.9999999999999999
  endloop
endfacet
facet normal 0.0 1.0 0.0
  outer loop
    vertex 6.555490130287656 26.814683734449428 0.9999999999999999
    vertex -5.844509869712343 26.814683734449428 1.9999999999999998
    vertex 6.555490130287656 26.814683734449428 1.9999999999999998
  endloop
endfacet
facet normal 1.0 0.0 0.0
  outer loop
    vertex -5.844509869712343 17.214683734449423 0.9999999999999999
    vertex -5.844509869712343 12.314683734449433 1.9999999999999998
    vertex -5.844509869712343 12.314683734449433 0.9999999999999999
  endloop
endfacet
facet normal 1.0 0.0 0.0
  outer loop
    vertex -5.844509869712343 12.314683734449433 1.9999999999999998
    vertex -5.844509869712343 17.214683734449423 0.9999999999999999
    vertex -5.844509869712343 17.214683734449423 1.9999999999999998
  endloop
endfacet
facet normal 0.0 1.0 0.0
  outer loop
    vertex -5.844509869712343 12.314683734449433 1.9999999999999998
    vertex 6.555490130287656 12.314683734449433 0.9999999999999999
    vertex -5.844509869712343 12.314683734449433 0.9999999999999999
  endloop
endfacet
facet normal 0.0 1.0 0.0
  outer loop
    vertex 6.555490130287656 12.314683734449433 0.9999999999999999
    vertex -5.844509869712343 12.314683734449433 1.9999999999999998
    vertex 6.555490130287656 12.314683734449433 1.9999999999999998
  endloop
endfacet
facet normal 1.0 0.0 0.0
  outer loop
    vertex -5.844509869712343 -26.285316265550563 0.9999999999999999
    vertex -5.844509869712343 -31.18531626555056 1.9999999999999998
    vertex -5.844509869712343 -31.18531626555056 0.9999999999999999
  endloop
endfacet
facet normal 1.0 0.0 0.0
  outer loop
    vertex -5.844509869712343 -31.18531626555056 1.9999999999999998
    vertex -5.844509869712343 -26.285316265550563 0.9999999999999999
    vertex -5.844509869712343 -26.285316265550563 1.9999999999999998
  endloop
endfacet
facet normal -1.0 0.0 0.0
  outer loop
    vertex 6.555490130287656 -26.285316265550563 1.9999999999999998
    vertex 6.555490130287656 -31.18531626555056 0.9999999999999999
    vertex 6.555490130287656 -31.18531626555056 1.9999999999999998
  endloop
endfacet
facet normal -1.0 0.0 0.0
  outer loop
    vertex 6.555490130287656 -31.18531626555056 0.9999999999999999
    vertex 6.555490130287656 -26.285316265550563 1.9999999999999998
    vertex 6.555490130287656 -26.285316265550563 0.9999999999999999
  endloop
endfacet
facet normal -1.0 -0.0 -0.0
  outer loop
    vertex 6.555490130287656 2.7146837344494217 7.999999999999999
    vertex 6.555490130287656 -2.1853162655505693 1.9999999999999998
    vertex 6.555490130287656 -2.1853162655505693 7.999999999999999
  endloop
endfacet
facet normal -1.0 -0.0 -0.0
  outer loop
    vertex 6.555490130287656 -2.1853162655505693 1.9999999999999998
    vertex 6.555490130287656 2.7146837344494217 7.999999999999999
    vertex 6.555490130287656 2.7146837344494217 1.9999999999999998
  endloop
endfacet
facet normal 1.0 0.0 0.0
  outer loop
    vertex -5.844509869712343 2.7146837344494217 1.9999999999999998
    vertex -5.844509869712343 -2.1853162655505693 7.999999999999999
    vertex -5.844509869712343 -2.1853162655505693 1.9999999999999998
  endloop
endfacet
facet normal 1.0 0.0 0.0
  outer loop
    vertex -5.844509869712343 -2.1853162655505693 7.999999999999999
    vertex -5.844509869712343 2.7146837344494217 1.9999999999999998
    vertex -5.844509869712343 2.7146837344494217 7.999999999999999
  endloop
endfacet
facet normal 9.096666072735155e-16 1.0 -1.6954361172086038e-46
  outer loop
    vertex -5.844509869712343 -2.1853162655505693 1.9999999999999998
    vertex 6.555490130287656 -2.1853162655505693 0.9999999999999999
    vertex -5.844509869712343 -2.1853162655505693 0.9999999999999999
  endloop
endfacet
facet normal 9.096666072735155e-16 1.0 -1.6954361172086038e-46
  outer loop
    vertex 6.555490130287656 -2.1853162655505693 0.9999999999999999
    vertex -5.844509869712343 -2.1853162655505693 1.9999999999999998
    vertex 6.555490130287656 -2.1853162655505693 1.9999999999999998
  endloop
endfacet
facet normal 1.0 0.0 0.0
  outer loop
    vertex -5.844509869712343 -11.785316265550568 0.9999999999999999
    vertex -5.844509869712343 -16.685316265550554 1.9999999999999998
    vertex -5.844509869712343 -16.685316265550554 0.9999999999999999
  endloop
endfacet
facet normal 1.0 0.0 0.0
  outer loop
    vertex -5.844509869712343 -16.685316265550554 1.9999999999999998
    vertex -5.844509869712343 -11.785316265550568 0.9999999999999999
    vertex -5.844509869712343 -11.785316265550568 1.9999999999999998
  endloop
endfacet
facet normal 0.0 -1.0 0.0
  outer loop
    vertex 6.555490130287656 2.7146837344494217 7.999999999999999
    vertex -5.844509869712343 2.7146837344494217 1.9999999999999998
    vertex 6.555490130287656 2.7146837344494217 1.9999999999999998
  endloop
endfacet
facet normal 0.0 -1.0 0.0
  outer loop
    vertex -5.844509869712343 2.7146837344494217 1.9999999999999998
    vertex 6.555490130287656 2.7146837344494217 7.999999999999999
    vertex -5.844509869712343 2.7146837344494217 7.999999999999999
  endloop
endfacet
facet normal 0.0 -1.0 0.0
  outer loop
    vertex 6.555490130287656 17.214683734449423 7.999999999999999
    vertex -5.844509869712343 17.214683734449423 1.9999999999999998
    vertex 6.555490130287656 17.214683734449423 1.9999999999999998
  endloop
endfacet
facet normal 0.0 -1.0 0.0
  outer loop
    vertex -5.844509869712343 17.214683734449423 1.9999999999999998
    vertex 6.555490130287656 17.214683734449423 7.999999999999999
    vertex -5.844509869712343 17.214683734449423 7.999999999999999
  endloop
endfacet
facet normal 0.0 1.0 0.0
  outer loop
    vertex -5.844509869712343 -16.685316265550554 1.9999999999999998
    vertex 6.555490130287656 -16.685316265550554 0.9999999999999999
    vertex -5.844509869712343 -16.685316265550554 0.9999999999999999
  endloop
endfacet
facet normal 0.0 1.0 0.0
  outer loop
    vertex 6.555490130287656 -16.685316265550554 0.9999999999999999
    vertex -5.844509869712343 -16.685316265550554 1.9999999999999998
    vertex 6.555490130287656 -16.685316265550554 1.9999999999999998
  endloop
endfacet
facet normal -3.1102797361282345e-17 0.8574929257125438 0.5144957554275272
  outer loop
    vertex 7.555490130287654 32.71468373444944 7.999999999999999
    vertex -10.444509869712347 36.31468373444943 1.9999999999999998
    vertex -6.844509869712353 32.71468373444944 7.999999999999999
  endloop
endfacet
facet normal 1.0 0.0 0.0
  outer loop
    vertex -5.844509869712343 17.214683734449423 1.9999999999999998
    vertex -5.844509869712343 12.314683734449433 7.999999999999999
    vertex -5.844509869712343 12.314683734449433 1.9999999999999998
  endloop
endfacet
facet normal 1.0 0.0 0.0
  outer loop
    vertex -5.844509869712343 12.314683734449433 7.999999999999999
    vertex -5.844509869712343 17.214683734449423 1.9999999999999998
    vertex -5.844509869712343 17.214683734449423 7.999999999999999
  endloop
endfacet
facet normal 0.8574929257125447 6.6482530232839354e-18 0.5144957554275259
  outer loop
    vertex 11.155490130287648 18.18968373444945 1.9999999999999998
    vertex 7.555490130287654 32.71468373444944 7.999999999999999
    vertex 7.555490130287654 15.291759461086173 7.999999999999999
  endloop
endfacet
facet normal 0.8574929257125447 6.6482530232839354e-18 0.5144957554275259
  outer loop
    vertex 7.555490130287654 32.71468373444944 7.999999999999999
    vertex 11.155490130287648 18.18968373444945 1.9999999999999998
    vertex 11.155490130287648 36.71468373444943 1.9999999999999998
  endloop
endfacet
facet normal -0.015485443247068353 0.8362139353416921 0.5481846909462196
  outer loop
    vertex 7.555490130287654 32.71468373444944 7.999999999999999
    vertex 11.155490130287648 36.71468373444943 1.9999999999999998
    vertex -10.444509869712347 36.31468373444943 1.9999999999999998
  endloop
endfacet
facet normal 9.096666072735151e-16 1.0 0.0
  outer loop
    vertex -5.844509869712343 -2.1853162655505693 7.999999999999999
    vertex 6.555490130287656 -2.1853162655505693 1.9999999999999998
    vertex -5.844509869712343 -2.1853162655505693 1.9999999999999998
  endloop
endfacet
facet normal 9.096666072735151e-16 1.0 0.0
  outer loop
    vertex 6.555490130287656 -2.1853162655505693 1.9999999999999998
    vertex -5.844509869712343 -2.1853162655505693 7.999999999999999
    vertex 6.555490130287656 -2.1853162655505693 7.999999999999999
  endloop
endfacet
facet normal -1.0 0.0 0.0
  outer loop
    vertex 6.555490130287656 31.71468373444944 7.999999999999999
    vertex 6.555490130287656 26.814683734449428 1.9999999999999998
    vertex 6.555490130287656 26.814683734449428 7.999999999999999
  endloop
endfacet
facet normal -1.0 0.0 0.0
  outer loop
    vertex 6.555490130287656 26.814683734449428 1.9999999999999998
    vertex 6.555490130287656 31.71468373444944 7.999999999999999
    vertex 6.555490130287656 31.71468373444944 1.9999999999999998
  endloop
endfacet
facet normal 0.0 1.0 0.0
  outer loop
    vertex -5.844509869712343 26.814683734449428 7.999999999999999
    vertex 6.555490130287656 26.814683734449428 1.9999999999999998
    vertex -5.844509869712343 26.814683734449428 1.9999999999999998
  endloop
endfacet
facet normal 0.0 1.0 0.0
  outer loop
    vertex 6.555490130287656 26.814683734449428 1.9999999999999998
    vertex -5.844509869712343 26.814683734449428 7.999999999999999
    vertex 6.555490130287656 26.814683734449428 7.999999999999999
  endloop
endfacet
facet normal 1.0 0.0 0.0
  outer loop
    vertex -5.844509869712343 31.71468373444944 1.9999999999999998
    vertex -5.844509869712343 26.814683734449428 7.999999999999999
    vertex -5.844509869712343 26.814683734449428 1.9999999999999998
  endloop
endfacet
facet normal 1.0 0.0 0.0
  outer loop
    vertex -5.844509869712343 26.814683734449428 7.999999999999999
    vertex -5.844509869712343 31.71468373444944 1.9999999999999998
    vertex -5.844509869712343 31.71468373444944 7.999999999999999
  endloop
endfacet
facet normal 0.0 1.0 0.0
  outer loop
    vertex -5.844509869712343 12.314683734449433 7.999999999999999
    vertex 6.555490130287656 12.314683734449433 1.9999999999999998
    vertex -5.844509869712343 12.314683734449433 1.9999999999999998
  endloop
endfacet
facet normal 0.0 1.0 0.0
  outer loop
    vertex 6.555490130287656 12.314683734449433 1.9999999999999998
    vertex -5.844509869712343 12.314683734449433 7.999999999999999
    vertex 6.555490130287656 12.314683734449433 7.999999999999999
  endloop
endfacet
facet normal 0.0 -1.0 0.0
  outer loop
    vertex 6.555490130287656 31.71468373444944 7.999999999999999
    vertex -5.844509869712343 31.71468373444944 1.9999999999999998
    vertex 6.555490130287656 31.71468373444944 1.9999999999999998
  endloop
endfacet
facet normal 0.0 -1.0 0.0
  outer loop
    vertex -5.844509869712343 31.71468373444944 1.9999999999999998
    vertex 6.555490130287656 31.71468373444944 7.999999999999999
    vertex -5.844509869712343 31.71468373444944 7.999999999999999
  endloop
endfacet
facet normal -1.0 0.0 0.0
  outer loop
    vertex 6.555490130287656 17.214683734449423 7.999999999999999
    vertex 6.555490130287656 12.314683734449433 1.9999999999999998
    vertex 6.555490130287656 12.314683734449433 7.999999999999999
  endloop
endfacet
facet normal -1.0 0.0 0.0
  outer loop
    vertex 6.555490130287656 12.314683734449433 1.9999999999999998
    vertex 6.555490130287656 17.214683734449423 7.999999999999999
    vertex 6.555490130287656 17.214683734449423 1.9999999999999998
  endloop
endfacet
facet normal 0.0 -1.0 0.0
  outer loop
    vertex 6.555490130287656 31.71468373444944 1.9999999999999998
    vertex -5.844509869712343 31.71468373444944 0.9999999999999999
    vertex 6.555490130287656 31.71468373444944 0.9999999999999999
  endloop
endfacet
facet normal 0.0 -1.0 0.0
  outer loop
    vertex -5.844509869712343 31.71468373444944 0.9999999999999999
    vertex 6.555490130287656 31.71468373444944 1.9999999999999998
    vertex -5.844509869712343 31.71468373444944 1.9999999999999998
  endloop
endfacet
facet normal -1.0 0.0 0.0
  outer loop
    vertex 6.555490130287656 31.71468373444944 1.9999999999999998
    vertex 6.555490130287656 26.814683734449428 0.9999999999999999
    vertex 6.555490130287656 26.814683734449428 1.9999999999999998
  endloop
endfacet
facet normal -1.0 0.0 0.0
  outer loop
    vertex 6.555490130287656 26.814683734449428 0.9999999999999999
    vertex 6.555490130287656 31.71468373444944 1.9999999999999998
    vertex 6.555490130287656 31.71468373444944 0.9999999999999999
  endloop
endfacet
facet normal 0.857492925712544 -2.673537087153563e-17 0.5144957554275267
  outer loop
    vertex 7.555490130287654 15.291759461086173 7.999999999999999
    vertex 7.555490130287654 -0.2399447459240487 7.999999999999999
    vertex 11.155490130287648 0.4646837344494372 1.9999999999999998
  endloop
endfacet
facet normal 0.8574929257125441 -1.7597266239498334e-18 0.5144957554275267
  outer loop
    vertex 11.155490130287648 0.4646837344494372 1.9999999999999998
    vertex 7.555490130287654 -16.600418282307032 7.999999999999999
    vertex 11.155490130287648 -18.06031626555056 1.9999999999999998
  endloop
endfacet
facet normal 0.8574929257125441 -1.7597266239498334e-18 0.5144957554275267
  outer loop
    vertex 7.555490130287654 -16.600418282307032 7.999999999999999
    vertex 11.155490130287648 0.4646837344494372 1.9999999999999998
    vertex 7.555490130287654 -0.2399447459240487 7.999999999999999
  endloop
endfacet
facet normal 1.0 0.0 0.0
  outer loop
    vertex -5.844509869712343 2.7146837344494217 0.9999999999999999
    vertex -5.844509869712343 -2.1853162655505693 1.9999999999999998
    vertex -5.844509869712343 -2.1853162655505693 0.9999999999999999
  endloop
endfacet
facet normal 1.0 0.0 0.0
  outer loop
    vertex -5.844509869712343 -2.1853162655505693 1.9999999999999998
    vertex -5.844509869712343 2.7146837344494217 0.9999999999999999
    vertex -5.844509869712343 2.7146837344494217 1.9999999999999998
  endloop
endfacet
facet normal 0.0 0.0 1.0
  outer loop
    vertex 6.555490130287656 -31.18531626555056 0.9999999999999999
    vertex -5.844509869712343 -26.285316265550563 0.9999999999999999
    vertex -5.844509869712343 -31.18531626555056 0.9999999999999999
  endloop
endfacet
facet normal 0.0 0.0 1.0
  outer loop
    vertex -5.844509869712343 -26.285316265550563 0.9999999999999999
    vertex 6.555490130287656 -31.18531626555056 0.9999999999999999
    vertex 6.555490130287656 -26.285316265550563 0.9999999999999999
  endloop
endfacet
facet normal 0.0 0.0 1.0
  outer loop
    vertex 6.555490130287656 26.814683734449428 0.9999999999999999
    vertex -5.844509869712343 31.71468373444944 0.9999999999999999
    vertex -5.844509869712343 26.814683734449428 0.9999999999999999
  endloop
endfacet
facet normal 0.0 0.0 1.0
  outer loop
    vertex -5.844509869712343 31.71468373444944 0.9999999999999999
    vertex 6.555490130287656 26.814683734449428 0.9999999999999999
    vertex 6.555490130287656 31.71468373444944 0.9999999999999999
  endloop
endfacet
facet normal 0.0 0.0 1.0
  outer loop
    vertex 6.555490130287656 12.314683734449433 0.9999999999999999
    vertex -5.844509869712343 17.214683734449423 0.9999999999999999
    vertex -5.844509869712343 12.314683734449433 0.9999999999999999
  endloop
endfacet
facet normal 0.0 0.0 1.0
  outer loop
    vertex -5.844509869712343 17.214683734449423 0.9999999999999999
    vertex 6.555490130287656 12.314683734449433 0.9999999999999999
    vertex 6.555490130287656 17.214683734449423 0.9999999999999999
  endloop
endfacet
facet normal 0.0 0.0 1.0
  outer loop
    vertex 6.555490130287656 -2.1853162655505693 0.9999999999999999
    vertex -5.844509869712343 2.7146837344494217 0.9999999999999999
    vertex -5.844509869712343 -2.1853162655505693 0.9999999999999999
  endloop
endfacet
facet normal 0.0 0.0 1.0
  outer loop
    vertex -5.844509869712343 2.7146837344494217 0.9999999999999999
    vertex 6.555490130287656 -2.1853162655505693 0.9999999999999999
    vertex 6.555490130287656 2.7146837344494217 0.9999999999999999
  endloop
endfacet
facet normal 0.0 0.0 1.0
  outer loop
    vertex 6.555490130287656 -16.685316265550554 0.9999999999999999
    vertex -5.844509869712343 -11.785316265550568 0.9999999999999999
    vertex -5.844509869712343 -16.685316265550554 0.9999999999999999
  endloop
endfacet
facet normal 0.0 0.0 1.0
  outer loop
    vertex -5.844509869712343 -11.785316265550568 0.9999999999999999
    vertex 6.555490130287656 -16.685316265550554 0.9999999999999999
    vertex 6.555490130287656 -11.785316265550568 0.9999999999999999
  endloop
endfacet
facet normal -1.0 -0.0 -0.0
  outer loop
    vertex 5.3554901302876585 41.51468373444943 1.9999999999999998
    vertex 5.3554901302876585 40.51468373444943 0.0
    vertex 5.3554901302876585 40.51468373444943 1.9999999999999998
  endloop
endfacet
facet normal -1.0 -0.0 -0.0
  outer loop
    vertex 5.3554901302876585 40.51468373444943 0.0
    vertex 5.3554901302876585 41.51468373444943 1.9999999999999998
    vertex 5.3554901302876585 41.51468373444943 0.0
  endloop
endfacet
facet normal 0.0 1.0 0.0
  outer loop
    vertex -4.644509869712346 40.51468373444943 1.9999999999999998
    vertex 5.3554901302876585 40.51468373444943 0.0
    vertex -4.644509869712346 40.51468373444943 0.0
  endloop
endfacet
facet normal 0.0 1.0 0.0
  outer loop
    vertex 5.3554901302876585 40.51468373444943 0.0
    vertex -4.644509869712346 40.51468373444943 1.9999999999999998
    vertex 5.3554901302876585 40.51468373444943 1.9999999999999998
  endloop
endfacet
facet normal 1.0 0.0 0.0
  outer loop
    vertex -4.644509869712346 41.51468373444943 0.0
    vertex -4.644509869712346 40.51468373444943 1.9999999999999998
    vertex -4.644509869712346 40.51468373444943 0.0
  endloop
endfacet
facet normal 1.0 0.0 0.0
  outer loop
    vertex -4.644509869712346 40.51468373444943 1.9999999999999998
    vertex -4.644509869712346 41.51468373444943 0.0
    vertex -4.644509869712346 41.51468373444943 1.9999999999999998
  endloop
endfacet
facet normal 0.7071067811865476 -0.7071067811865476 0.0
  outer loop
    vertex -3.6445098697123477 42.51468373444942 0.0
    vertex -4.644509869712346 41.51468373444943 1.9999999999999998
    vertex -4.644509869712346 41.51468373444943 0.0
  endloop
endfacet
facet normal 0.7071067811865476 -0.7071067811865476 0.0
  outer loop
    vertex -4.644509869712346 41.51468373444943 1.9999999999999998
    vertex -3.6445098697123477 42.51468373444942 0.0
    vertex -3.6445098697123477 42.51468373444942 1.9999999999999998
  endloop
endfacet
facet normal 0.0 0.0 1.0
  outer loop
    vertex -10.444509869712347 36.31468373444943 1.9999999999999998
    vertex -4.644509869712346 40.51468373444943 1.9999999999999998
    vertex -10.444509869712347 46.31468373444944 1.9999999999999998
  endloop
endfacet
facet normal 0.0 0.0 1.0
  outer loop
    vertex -4.644509869712346 40.51468373444943 1.9999999999999998
    vertex -10.444509869712347 36.31468373444943 1.9999999999999998
    vertex 11.155490130287648 36.71468373444943 1.9999999999999998
  endloop
endfacet
facet normal 0.0 0.0 1.0
  outer loop
    vertex -4.644509869712346 40.51468373444943 1.9999999999999998
    vertex 11.155490130287648 36.71468373444943 1.9999999999999998
    vertex 5.3554901302876585 40.51468373444943 1.9999999999999998
  endloop
endfacet
facet normal 0.0 0.0 1.0
  outer loop
    vertex 5.3554901302876585 40.51468373444943 1.9999999999999998
    vertex 11.155490130287648 36.71468373444943 1.9999999999999998
    vertex 5.3554901302876585 41.51468373444943 1.9999999999999998
  endloop
endfacet
facet normal 0.0 0.0 1.0
  outer loop
    vertex 16.15549013028766 36.71468373444943 1.9999999999999998
    vertex 11.155490130287648 46.31468373444944 1.9999999999999998
    vertex 11.155490130287648 36.71468373444943 1.9999999999999998
  endloop
endfacet
facet normal 0.0 0.0 1.0
  outer loop
    vertex 11.155490130287648 46.31468373444944 1.9999999999999998
    vertex 16.15549013028766 36.71468373444943 1.9999999999999998
    vertex 16.15549013028766 46.31468373444944 1.9999999999999998
  endloop
endfacet
facet normal 0.0 0.0 1.0
  outer loop
    vertex -10.444509869712347 46.31468373444944 1.9999999999999998
    vertex -3.6445098697123477 42.51468373444942 1.9999999999999998
    vertex 0.5554901302876447 46.31468373444944 1.9999999999999998
  endloop
endfacet
facet normal 0.0 0.0 1.0
  outer loop
    vertex -3.6445098697123477 42.51468373444942 1.9999999999999998
    vertex -10.444509869712347 46.31468373444944 1.9999999999999998
    vertex -4.644509869712346 41.51468373444943 1.9999999999999998
  endloop
endfacet
facet normal 0.0 0.0 1.0
  outer loop
    vertex -4.644509869712346 41.51468373444943 1.9999999999999998
    vertex -10.444509869712347 46.31468373444944 1.9999999999999998
    vertex -4.644509869712346 40.51468373444943 1.9999999999999998
  endloop
endfacet
facet normal 0.0 0.0 1.0
  outer loop
    vertex 0.5554901302876447 46.31468373444944 1.9999999999999998
    vertex -3.6445098697123477 42.51468373444942 1.9999999999999998
    vertex 4.35549013028766 42.51468373444942 1.9999999999999998
  endloop
endfacet
facet normal 0.0 0.0 1.0
  outer loop
    vertex 0.5554901302876447 46.31468373444944 1.9999999999999998
    vertex 4.35549013028766 42.51468373444942 1.9999999999999998
    vertex 0.5554901302876447 51.31468373444945 1.9999999999999998
  endloop
endfacet
facet normal 0.0 0.0 1.0
  outer loop
    vertex 0.5554901302876447 51.31468373444945 1.9999999999999998
    vertex 4.35549013028766 42.51468373444942 1.9999999999999998
    vertex 11.155490130287648 51.31468373444945 1.9999999999999998
  endloop
endfacet
facet normal 0.0 0.0 1.0
  outer loop
    vertex 11.155490130287648 51.31468373444945 1.9999999999999998
    vertex 4.35549013028766 42.51468373444942 1.9999999999999998
    vertex 5.3554901302876585 41.51468373444943 1.9999999999999998
  endloop
endfacet
facet normal 0.0 0.0 1.0
  outer loop
    vertex 11.155490130287648 51.31468373444945 1.9999999999999998
    vertex 5.3554901302876585 41.51468373444943 1.9999999999999998
    vertex 11.155490130287648 36.71468373444943 1.9999999999999998
  endloop
endfacet
facet normal 0.0 0.0 1.0
  outer loop
    vertex 11.155490130287648 51.31468373444945 1.9999999999999998
    vertex 11.155490130287648 36.71468373444943 1.9999999999999998
    vertex 11.155490130287648 46.31468373444944 1.9999999999999998
  endloop
endfacet
endsolid Untitled-551f0e31
