solid Untitled-551f0e79
facet normal -1.0 0.0 0.0
  outer loop
    vertex 5.680762776483464 -12.24576650711121 1.9999999999999998
    vertex 5.680762776483464 -17.1457665071112 0.9999999999999999
    vertex 5.680762776483464 -17.1457665071112 1.9999999999999998
  endloop
endfacet
facet normal -1.0 0.0 0.0
  outer loop
    vertex 5.680762776483464 -17.1457665071112 0.9999999999999999
    vertex 5.680762776483464 -12.24576650711121 1.9999999999999998
    vertex 5.680762776483464 -12.24576650711121 0.9999999999999999
  endloop
endfacet
facet normal 0.0 0.0 1.0
  outer loop
    vertex 5.680762776483464 -31.6457665071112 0.9999999999999999
    vertex -6.719237223516536 -26.745766507111206 0.9999999999999999
    vertex -6.719237223516536 -31.6457665071112 0.9999999999999999
  endloop
endfacet
facet normal 0.0 0.0 1.0
  outer loop
    vertex -6.719237223516536 -26.745766507111206 0.9999999999999999
    vertex 5.680762776483464 -31.6457665071112 0.9999999999999999
    vertex 5.680762776483464 -26.745766507111206 0.9999999999999999
  endloop
endfacet
facet normal 0.0 -1.0 0.0
  outer loop
    vertex 5.680762776483464 31.25423349288879 1.9999999999999998
    vertex -6.719237223516536 31.25423349288879 0.9999999999999999
    vertex 5.680762776483464 31.25423349288879 0.9999999999999999
  endloop
endfacet
facet normal 0.0 -1.0 0.0
  outer loop
    vertex -6.719237223516536 31.25423349288879 0.9999999999999999
    vertex 5.680762776483464 31.25423349288879 1.9999999999999998
    vertex -6.719237223516536 31.25423349288879 1.9999999999999998
  endloop
endfacet
facet normal -1.0 0.0 0.0
  outer loop
    vertex 5.680762776483464 16.754233492888783 7.999999999999999
    vertex 5.680762776483464 11.854233492888792 1.9999999999999998
    vertex 5.680762776483464 11.854233492888792 7.999999999999999
  endloop
endfacet
facet normal -1.0 0.0 0.0
  outer loop
    vertex 5.680762776483464 11.854233492888792 1.9999999999999998
    vertex 5.680762776483464 16.754233492888783 7.999999999999999
    vertex 5.680762776483464 16.754233492888783 1.9999999999999998
  endloop
endfacet
facet normal 1.0 0.0 0.0
  outer loop
    vertex -6.719237223516536 -12.24576650711121 1.9999999999999998
    vertex -6.719237223516536 -17.1457665071112 7.999999999999999
    vertex -6.719237223516536 -17.1457665071112 1.9999999999999998
  endloop
endfacet
facet normal 1.0 0.0 0.0
  outer loop
    vertex -6.719237223516536 -17.1457665071112 7.999999999999999
    vertex -6.719237223516536 -12.24576650711121 1.9999999999999998
    vertex -6.719237223516536 -12.24576650711121 7.999999999999999
  endloop
endfacet
facet normal 0.0 0.0 1.0
  outer loop
    vertex -0.7192372235165241 -41.2457665071112 1.9999999999999998
    vertex -11.31923722351655 -34.13610494623054 1.9999999999999998
    vertex -11.31923722351655 -41.2457665071112 1.9999999999999998
  endloop
endfacet
facet normal 0.0 0.0 1.0
  outer loop
    vertex -11.31923722351655 -34.13610494623054 1.9999999999999998
    vertex -0.7192372235165241 -41.2457665071112 1.9999999999999998
    vertex -0.7192372235165241 -36.2457665071112 1.9999999999999998
  endloop
endfacet
facet normal 0.0 0.0 -1.0
  outer loop
    vertex 3.980762776483467 41.05423349288879 0.0
    vertex -2.5192372235165434 40.0542334928888 0.0
    vertex -5.019237223516561 41.05423349288879 0.0
  endloop
endfacet
facet normal 0.0 0.0 -1.0
  outer loop
    vertex -2.5192372235165434 40.0542334928888 0.0
    vertex 3.980762776483467 41.05423349288879 0.0
    vertex -2.0192372235165443 40.0542334928888 0.0
  endloop
endfacet
facet normal 0.0 0.0 -1.0
  outer loop
    vertex -2.0192372235165443 40.0542334928888 0.0
    vertex 3.980762776483467 41.05423349288879 0.0
    vertex 1.4807627764834492 40.0542334928888 0.0
  endloop
endfacet
facet normal 0.0 0.0 -1.0
  outer loop
    vertex 1.4807627764834492 40.0542334928888 0.0
    vertex 3.980762776483467 41.05423349288879 0.0
    vertex 1.4807627764834492 39.0542334928888 0.0
  endloop
endfacet
facet normal 0.0 0.0 -1.0
  outer loop
    vertex 10.280762776483456 50.85423349288879 0.0
    vertex -0.31923722351654743 45.854233492888795 0.0
    vertex -0.31923722351654743 50.85423349288879 0.0
  endloop
endfacet
facet normal 0.0 0.0 -1.0
  outer loop
    vertex -0.31923722351654743 45.854233492888795 0.0
    vertex 10.280762776483456 50.85423349288879 0.0
    vertex 4.480762776483466 42.05423349288879 0.0
  endloop
endfacet
facet normal 0.0 0.0 -1.0
  outer loop
    vertex 4.480762776483466 42.05423349288879 0.0
    vertex 10.280762776483456 50.85423349288879 0.0
    vertex 4.480762776483466 41.55423349288879 0.0
  endloop
endfacet
facet normal 0.0 0.0 -1.0
  outer loop
    vertex 15.280762776483446 45.854233492888795 0.0
    vertex 10.280762776483456 36.254233492888794 0.0
    vertex 10.280762776483456 45.854233492888795 0.0
  endloop
endfacet
facet normal 0.0 0.0 -1.0
  outer loop
    vertex 10.280762776483456 36.254233492888794 0.0
    vertex 15.280762776483446 45.854233492888795 0.0
    vertex 15.280762776483446 36.254233492888794 0.0
  endloop
endfacet
facet normal 0.0 0.0 -1.0
  outer loop
    vertex 15.280762776483446 17.7292334928888 0.0
    vertex 10.280762776483456 0.0042334928887904685 0.0
    vertex 10.280762776483456 17.7292334928888 0.0
  endloop
endfacet
facet normal 0.0 0.0 -1.0
  outer loop
    vertex 10.280762776483456 0.0042334928887904685 0.0
    vertex 15.280762776483446 17.7292334928888 0.0
    vertex 15.280762776483446 0.0042334928887904685 0.0
  endloop
endfacet
facet normal 0.0 0.0 -1.0
  outer loop
    vertex 1.4807627764834492 39.0542334928888 0.0
    vertex -0.7192372235165241 -36.2457665071112 0.0
    vertex -2.5192372235165434 39.0542334928888 0.0
  endloop
endfacet
facet normal 0.0 0.0 -1.0
  outer loop
    vertex -0.7192372235165241 -36.2457665071112 0.0
    vertex 1.4807627764834492 39.0542334928888 0.0
    vertex 10.680762776483455 -36.2457665071112 0.0
  endloop
endfacet
facet normal 0.0 0.0 -1.0
  outer loop
    vertex 10.680762776483455 -36.2457665071112 0.0
    vertex 1.4807627764834492 39.0542334928888 0.0
    vertex 3.980762776483467 41.05423349288879 0.0
  endloop
endfacet
facet normal 0.0 0.0 -1.0
  outer loop
    vertex 10.680762776483455 -36.2457665071112 0.0
    vertex 3.980762776483467 41.05423349288879 0.0
    vertex 4.480762776483466 41.55423349288879 0.0
  endloop
endfacet
facet normal 0.0 0.0 -1.0
  outer loop
    vertex 10.680762776483455 -36.2457665071112 0.0
    vertex 4.480762776483466 41.55423349288879 0.0
    vertex 10.280762776483456 -18.520766507111205 0.0
  endloop
endfacet
facet normal 0.0 0.0 -1.0
  outer loop
    vertex 10.280762776483456 -18.520766507111205 0.0
    vertex 4.480762776483466 41.55423349288879 0.0
    vertex 10.280762776483456 50.85423349288879 0.0
  endloop
endfacet
facet normal 0.0 0.0 -1.0
  outer loop
    vertex 10.280762776483456 -18.520766507111205 0.0
    vertex 10.280762776483456 50.85423349288879 0.0
    vertex 10.280762776483456 45.854233492888795 0.0
  endloop
endfacet
facet normal 0.0 0.0 -1.0
  outer loop
    vertex 10.280762776483456 -18.520766507111205 0.0
    vertex 10.280762776483456 45.854233492888795 0.0
    vertex 10.280762776483456 36.254233492888794 0.0
  endloop
endfacet
facet normal 0.0 0.0 -1.0
  outer loop
    vertex 10.280762776483456 -18.520766507111205 0.0
    vertex 10.280762776483456 36.254233492888794 0.0
    vertex 10.280762776483456 17.7292334928888 0.0
  endloop
endfacet
facet normal 0.0 0.0 -1.0
  outer loop
    vertex 10.280762776483456 -18.520766507111205 0.0
    vertex 10.280762776483456 17.7292334928888 0.0
    vertex 10.280762776483456 0.0042334928887904685 0.0
  endloop
endfacet
facet normal 0.0 0.0 -1.0
  outer loop
    vertex 10.680762776483455 -36.2457665071112 0.0
    vertex 10.280762776483456 -18.520766507111205 0.0
    vertex 15.280762776483446 -18.520766507111205 0.0
  endloop
endfacet
facet normal 0.0 0.0 -1.0
  outer loop
    vertex 10.680762776483455 -36.2457665071112 0.0
    vertex 15.280762776483446 -18.520766507111205 0.0
    vertex 10.680762776483455 -41.2457665071112 0.0
  endloop
endfacet
facet normal 0.0 0.0 -1.0
  outer loop
    vertex 10.680762776483455 -41.2457665071112 0.0
    vertex 15.280762776483446 -18.520766507111205 0.0
    vertex 15.280762776483446 -41.2457665071112 0.0
  endloop
endfacet
facet normal 0.0 0.0 -1.0
  outer loop
    vertex -11.31923722351655 45.854233492888795 0.0
    vertex -5.51923722351656 42.05423349288879 0.0
    vertex -11.31923722351655 35.854233492888795 0.0
  endloop
endfacet
facet normal 0.0 0.0 -1.0
  outer loop
    vertex -5.51923722351656 42.05423349288879 0.0
    vertex -11.31923722351655 45.854233492888795 0.0
    vertex -0.31923722351654743 45.854233492888795 0.0
  endloop
endfacet
facet normal 0.0 0.0 -1.0
  outer loop
    vertex -11.31923722351655 35.854233492888795 0.0
    vertex -5.51923722351656 42.05423349288879 0.0
    vertex -11.31923722351655 18.129233492888797 0.0
  endloop
endfacet
facet normal 0.0 0.0 -1.0
  outer loop
    vertex -11.31923722351655 18.129233492888797 0.0
    vertex -5.51923722351656 42.05423349288879 0.0
    vertex -11.31923722351655 -0.3957665071112088 0.0
  endloop
endfacet
facet normal 0.0 0.0 -1.0
  outer loop
    vertex -11.31923722351655 -0.3957665071112088 0.0
    vertex -5.51923722351656 42.05423349288879 0.0
    vertex -11.31923722351655 -18.120766507111206 0.0
  endloop
endfacet
facet normal 0.0 0.0 -1.0
  outer loop
    vertex -11.31923722351655 -18.120766507111206 0.0
    vertex -5.51923722351656 42.05423349288879 0.0
    vertex -11.31923722351655 -41.2457665071112 0.0
  endloop
endfacet
facet normal 0.0 0.0 -1.0
  outer loop
    vertex -5.51923722351656 42.05423349288879 0.0
    vertex -0.31923722351654743 45.854233492888795 0.0
    vertex 4.480762776483466 42.05423349288879 0.0
  endloop
endfacet
facet normal 0.0 0.0 -1.0
  outer loop
    vertex -11.31923722351655 -41.2457665071112 0.0
    vertex -5.51923722351656 41.55423349288879 0.0
    vertex -0.7192372235165241 -41.2457665071112 0.0
  endloop
endfacet
facet normal 0.0 0.0 -1.0
  outer loop
    vertex -5.51923722351656 41.55423349288879 0.0
    vertex -11.31923722351655 -41.2457665071112 0.0
    vertex -5.51923722351656 42.05423349288879 0.0
  endloop
endfacet
facet normal 0.0 0.0 -1.0
  outer loop
    vertex -0.7192372235165241 -41.2457665071112 0.0
    vertex -5.51923722351656 41.55423349288879 0.0
    vertex -5.019237223516561 41.05423349288879 0.0
  endloop
endfacet
facet normal 0.0 0.0 -1.0
  outer loop
    vertex -0.7192372235165241 -41.2457665071112 0.0
    vertex -5.019237223516561 41.05423349288879 0.0
    vertex -2.5192372235165434 39.0542334928888 0.0
  endloop
endfacet
facet normal 0.0 0.0 -1.0
  outer loop
    vertex -2.5192372235165434 39.0542334928888 0.0
    vertex -5.019237223516561 41.05423349288879 0.0
    vertex -2.5192372235165434 40.0542334928888 0.0
  endloop
endfacet
facet normal 0.0 0.0 -1.0
  outer loop
    vertex -0.7192372235165241 -41.2457665071112 0.0
    vertex -2.5192372235165434 39.0542334928888 0.0
    vertex -0.7192372235165241 -36.2457665071112 0.0
  endloop
endfacet
facet normal 0.0 0.0 -1.0
  outer loop
    vertex -11.31923722351655 -0.3957665071112088 0.0
    vertex -16.31923722351654 -18.120766507111206 0.0
    vertex -16.31923722351654 -0.3957665071112088 0.0
  endloop
endfacet
facet normal 0.0 0.0 -1.0
  outer loop
    vertex -16.31923722351654 -18.120766507111206 0.0
    vertex -11.31923722351655 -0.3957665071112088 0.0
    vertex -11.31923722351655 -18.120766507111206 0.0
  endloop
endfacet
facet normal 0.0 0.0 -1.0
  outer loop
    vertex -11.31923722351655 35.854233492888795 0.0
    vertex -16.31923722351654 18.129233492888797 0.0
    vertex -16.31923722351654 35.854233492888795 0.0
  endloop
endfacet
facet normal 0.0 0.0 -1.0
  outer loop
    vertex -16.31923722351654 18.129233492888797 0.0
    vertex -11.31923722351655 35.854233492888795 0.0
    vertex -11.31923722351655 18.129233492888797 0.0
  endloop
endfacet
facet normal 0.7071067811865476 0.7071067811865476 0.0
  outer loop
    vertex -5.51923722351656 41.55423349288879 0.0
    vertex -5.019237223516561 41.05423349288879 1.9999999999999998
    vertex -5.019237223516561 41.05423349288879 0.0
  endloop
endfacet
facet normal 0.7071067811865476 0.7071067811865476 0.0
  outer loop
    vertex -5.019237223516561 41.05423349288879 1.9999999999999998
    vertex -5.51923722351656 41.55423349288879 0.0
    vertex -5.51923722351656 41.55423349288879 1.9999999999999998
  endloop
endfacet
facet normal 1.0 0.0 0.0
  outer loop
    vertex -5.51923722351656 42.05423349288879 0.0
    vertex -5.51923722351656 41.55423349288879 1.9999999999999998
    vertex -5.51923722351656 41.55423349288879 0.0
  endloop
endfacet
facet normal 1.0 0.0 0.0
  outer loop
    vertex -5.51923722351656 41.55423349288879 1.9999999999999998
    vertex -5.51923722351656 42.05423349288879 0.0
    vertex -5.51923722351656 42.05423349288879 1.9999999999999998
  endloop
endfacet
facet normal 0.0 -1.0 0.0
  outer loop
    vertex 4.480762776483466 42.05423349288879 1.9999999999999998
    vertex -5.51923722351656 42.05423349288879 0.0
    vertex 4.480762776483466 42.05423349288879 0.0
  endloop
endfacet
facet normal 0.0 -1.0 0.0
  outer loop
    vertex -5.51923722351656 42.05423349288879 0.0
    vertex 4.480762776483466 42.05423349288879 1.9999999999999998
    vertex -5.51923722351656 42.05423349288879 1.9999999999999998
  endloop
endfacet
facet normal -1.0 -0.0 -0.0
  outer loop
    vertex 4.480762776483466 42.05423349288879 1.9999999999999998
    vertex 4.480762776483466 41.55423349288879 0.0
    vertex 4.480762776483466 41.55423349288879 1.9999999999999998
  endloop
endfacet
facet normal -1.0 -0.0 -0.0
  outer loop
    vertex 4.480762776483466 41.55423349288879 0.0
    vertex 4.480762776483466 42.05423349288879 1.9999999999999998
    vertex 4.480762776483466 42.05423349288879 0.0
  endloop
endfacet
facet normal 0.0 1.0 0.0
  outer loop
    vertex -6.719237223516536 11.854233492888792 7.999999999999999
    vertex 5.680762776483464 11.854233492888792 1.9999999999999998
    vertex -6.719237223516536 11.854233492888792 1.9999999999999998
  endloop
endfacet
facet normal 0.0 1.0 0.0
  outer loop
    vertex 5.680762776483464 11.854233492888792 1.9999999999999998
    vertex -6.719237223516536 11.854233492888792 7.999999999999999
    vertex 5.680762776483464 11.854233492888792 7.999999999999999
  endloop
endfacet
facet normal 0.0 -1.0 0.0
  outer loop
    vertex 5.680762776483464 31.25423349288879 7.999999999999999
    vertex -6.719237223516536 31.25423349288879 1.9999999999999998
    vertex 5.680762776483464 31.25423349288879 1.9999999999999998
  endloop
endfacet
facet normal 0.0 -1.0 0.0
  outer loop
    vertex -6.719237223516536 31.25423349288879 1.9999999999999998
    vertex 5.680762776483464 31.25423349288879 7.999999999999999
    vertex -6.719237223516536 31.25423349288879 7.999999999999999
  endloop
endfacet
facet normal 0.0 0.0 1.0
  outer loop
    vertex 5.680762776483464 -2.6457665071112157 0.9999999999999999
    vertex -6.719237223516536 2.2542334928887864 0.9999999999999999
    vertex -6.719237223516536 -2.6457665071112046 0.9999999999999999
  endloop
endfacet
facet normal 0.0 0.0 1.0
  outer loop
    vertex -6.719237223516536 2.2542334928887864 0.9999999999999999
    vertex 5.680762776483464 -2.6457665071112157 0.9999999999999999
    vertex 5.680762776483464 2.2542334928887864 0.9999999999999999
  endloop
endfacet
facet normal 1.0 0.0 0.0
  outer loop
    vertex -6.719237223516536 2.2542334928887864 0.9999999999999999
    vertex -6.719237223516536 -2.6457665071112046 1.9999999999999998
    vertex -6.719237223516536 -2.6457665071112046 0.9999999999999999
  endloop
endfacet
facet normal 1.0 0.0 0.0
  outer loop
    vertex -6.719237223516536 -2.6457665071112046 1.9999999999999998
    vertex -6.719237223516536 2.2542334928887864 0.9999999999999999
    vertex -6.719237223516536 2.2542334928887864 1.9999999999999998
  endloop
endfacet
facet normal 0.0 0.0 1.0
  outer loop
    vertex 5.680762776483464 11.854233492888792 0.9999999999999999
    vertex -6.719237223516536 16.754233492888783 0.9999999999999999
    vertex -6.719237223516536 11.854233492888792 0.9999999999999999
  endloop
endfacet
facet normal 0.0 0.0 1.0
  outer loop
    vertex -6.719237223516536 16.754233492888783 0.9999999999999999
    vertex 5.680762776483464 11.854233492888792 0.9999999999999999
    vertex 5.680762776483464 16.754233492888783 0.9999999999999999
  endloop
endfacet
facet normal 0.0 0.0 1.0
  outer loop
    vertex 5.680762776483464 26.35423349288879 0.9999999999999999
    vertex -6.719237223516536 31.25423349288879 0.9999999999999999
    vertex -6.719237223516536 26.35423349288879 0.9999999999999999
  endloop
endfacet
facet normal 0.0 0.0 1.0
  outer loop
    vertex -6.719237223516536 31.25423349288879 0.9999999999999999
    vertex 5.680762776483464 26.35423349288879 0.9999999999999999
    vertex 5.680762776483464 31.25423349288879 0.9999999999999999
  endloop
endfacet
facet normal 0.857492925712544 -2.673537087153563e-17 0.5144957554275267
  outer loop
    vertex 6.680762776483462 14.831309219525531 7.999999999999999
    vertex 6.680762776483462 -0.7003949874846842 7.999999999999999
    vertex 10.280762776483456 0.0042334928887904685 1.9999999999999998
  endloop
endfacet
facet normal 0.0 0.0 1.0
  outer loop
    vertex 5.680762776483464 -17.1457665071112 0.9999999999999999
    vertex -6.719237223516536 -12.24576650711121 0.9999999999999999
    vertex -6.719237223516536 -17.1457665071112 0.9999999999999999
  endloop
endfacet
facet normal 0.0 0.0 1.0
  outer loop
    vertex -6.719237223516536 -12.24576650711121 0.9999999999999999
    vertex 5.680762776483464 -17.1457665071112 0.9999999999999999
    vertex 5.680762776483464 -12.24576650711121 0.9999999999999999
  endloop
endfacet
facet normal -1.0 0.0 0.0
  outer loop
    vertex 5.680762776483464 31.25423349288879 1.9999999999999998
    vertex 5.680762776483464 26.35423349288879 0.9999999999999999
    vertex 5.680762776483464 26.35423349288879 1.9999999999999998
  endloop
endfacet
facet normal -1.0 0.0 0.0
  outer loop
    vertex 5.680762776483464 26.35423349288879 0.9999999999999999
    vertex 5.680762776483464 31.25423349288879 1.9999999999999998
    vertex 5.680762776483464 31.25423349288879 0.9999999999999999
  endloop
endfacet
facet normal 0.8574929257125441 -1.7597266239498334e-18 0.5144957554275267
  outer loop
    vertex 10.280762776483456 0.0042334928887904685 1.9999999999999998
    vertex 6.680762776483462 -17.060868523867672 7.999999999999999
    vertex 10.280762776483456 -18.520766507111205 1.9999999999999998
  endloop
endfacet
facet normal 0.8574929257125441 -1.7597266239498334e-18 0.5144957554275267
  outer loop
    vertex 6.680762776483462 -17.060868523867672 7.999999999999999
    vertex 10.280762776483456 0.0042334928887904685 1.9999999999999998
    vertex 6.680762776483462 -0.7003949874846842 7.999999999999999
  endloop
endfacet
facet normal 1.0 0.0 0.0
  outer loop
    vertex -6.719237223516536 31.25423349288879 1.9999999999999998
    vertex -6.719237223516536 26.35423349288879 7.999999999999999
    vertex -6.719237223516536 26.35423349288879 1.9999999999999998
  endloop
endfacet
facet normal 1.0 0.0 0.0
  outer loop
    vertex -6.719237223516536 26.35423349288879 7.999999999999999
    vertex -6.719237223516536 31.25423349288879 1.9999999999999998
    vertex -6.719237223516536 31.25423349288879 7.999999999999999
  endloop
endfacet
facet normal 0.0 1.0 0.0
  outer loop
    vertex -6.719237223516536 26.35423349288879 7.999999999999999
    vertex 5.680762776483464 26.35423349288879 1.9999999999999998
    vertex -6.719237223516536 26.35423349288879 1.9999999999999998
  endloop
endfacet
facet normal 0.0 1.0 0.0
  outer loop
    vertex 5.680762776483464 26.35423349288879 1.9999999999999998
    vertex -6.719237223516536 26.35423349288879 7.999999999999999
    vertex 5.680762776483464 26.35423349288879 7.999999999999999
  endloop
endfacet
facet normal -1.0 0.0 0.0
  outer loop
    vertex 5.680762776483464 31.25423349288879 7.999999999999999
    vertex 5.680762776483464 26.35423349288879 1.9999999999999998
    vertex 5.680762776483464 26.35423349288879 7.999999999999999
  endloop
endfacet
facet normal -1.0 0.0 0.0
  outer loop
    vertex 5.680762776483464 26.35423349288879 1.9999999999999998
    vertex 5.680762776483464 31.25423349288879 7.999999999999999
    vertex 5.680762776483464 31.25423349288879 1.9999999999999998
  endloop
endfacet
facet normal 9.096666072735151e-16 1.0 0.0
  outer loop
    vertex -6.719237223516536 -2.6457665071112046 7.999999999999999
    vertex 5.680762776483464 -2.6457665071112157 1.9999999999999998
    vertex -6.719237223516536 -2.6457665071112046 1.9999999999999998
  endloop
endfacet
facet normal 9.096666072735151e-16 1.0 0.0
  outer loop
    vertex 5.680762776483464 -2.6457665071112157 1.9999999999999998
    vertex -6.719237223516536 -2.6457665071112046 7.999999999999999
    vertex 5.680762776483464 -2.6457665071112157 7.999999999999999
  endloop
endfacet
facet normal -0.01548544324706834 0.8362139353416914 0.5481846909462205
  outer loop
    vertex 6.680762776483462 32.25423349288879 7.999999999999999
    vertex 10.280762776483456 36.254233492888794 1.9999999999999998
    vertex -11.31923722351655 35.854233492888795 1.9999999999999998
  endloop
endfacet
facet normal 0.8574929257125447 6.6482530232839354e-18 0.5144957554275259
  outer loop
    vertex 10.280762776483456 17.7292334928888 1.9999999999999998
    vertex 6.680762776483462 32.25423349288879 7.999999999999999
    vertex 6.680762776483462 14.831309219525531 7.999999999999999
  endloop
endfacet
facet normal 0.8574929257125447 6.6482530232839354e-18 0.5144957554275259
  outer loop
    vertex 6.680762776483462 32.25423349288879 7.999999999999999
    vertex 10.280762776483456 17.7292334928888 1.9999999999999998
    vertex 10.280762776483456 36.254233492888794 1.9999999999999998
  endloop
endfacet
facet normal 1.0 0.0 0.0
  outer loop
    vertex -6.719237223516536 16.754233492888783 1.9999999999999998
    vertex -6.719237223516536 11.854233492888792 7.999999999999999
    vertex -6.719237223516536 11.854233492888792 1.9999999999999998
  endloop
endfacet
facet normal 1.0 0.0 0.0
  outer loop
    vertex -6.719237223516536 11.854233492888792 7.999999999999999
    vertex -6.719237223516536 16.754233492888783 1.9999999999999998
    vertex -6.719237223516536 16.754233492888783 7.999999999999999
  endloop
endfacet
facet normal -3.1102797361282345e-17 0.8574929257125438 0.5144957554275272
  outer loop
    vertex 6.680762776483462 32.25423349288879 7.999999999999999
    vertex -11.31923722351655 35.854233492888795 1.9999999999999998
    vertex -7.719237223516534 32.25423349288879 7.999999999999999
  endloop
endfacet
facet normal 0.0 1.0 0.0
  outer loop
    vertex -6.719237223516536 -17.1457665071112 1.9999999999999998
    vertex 5.680762776483464 -17.1457665071112 0.9999999999999999
    vertex -6.719237223516536 -17.1457665071112 0.9999999999999999
  endloop
endfacet
facet normal 0.0 1.0 0.0
  outer loop
    vertex 5.680762776483464 -17.1457665071112 0.9999999999999999
    vertex -6.719237223516536 -17.1457665071112 1.9999999999999998
    vertex 5.680762776483464 -17.1457665071112 1.9999999999999998
  endloop
endfacet
facet normal 0.0 -1.0 0.0
  outer loop
    vertex 5.680762776483464 16.754233492888783 7.999999999999999
    vertex -6.719237223516536 16.754233492888783 1.9999999999999998
    vertex 5.680762776483464 16.754233492888783 1.9999999999999998
  endloop
endfacet
facet normal 0.0 -1.0 0.0
  outer loop
    vertex -6.719237223516536 16.754233492888783 1.9999999999999998
    vertex 5.680762776483464 16.754233492888783 7.999999999999999
    vertex -6.719237223516536 16.754233492888783 7.999999999999999
  endloop
endfacet
facet normal 0.0 -1.0 0.0
  outer loop
    vertex 5.680762776483464 2.2542334928887864 7.999999999999999
    vertex -6.719237223516536 2.2542334928887864 1.9999999999999998
    vertex 5.680762776483464 2.2542334928887864 1.9999999999999998
  endloop
endfacet
facet normal 0.0 -1.0 0.0
  outer loop
    vertex -6.719237223516536 2.2542334928887864 1.9999999999999998
    vertex 5.680762776483464 2.2542334928887864 7.999999999999999
    vertex -6.719237223516536 2.2542334928887864 7.999999999999999
  endloop
endfacet
facet normal 1.0 0.0 0.0
  outer loop
    vertex -6.719237223516536 -12.24576650711121 0.9999999999999999
    vertex -6.719237223516536 -17.1457665071112 1.9999999999999998
    vertex -6.719237223516536 -17.1457665071112 0.9999999999999999
  endloop
endfacet
facet normal 1.0 0.0 0.0
  outer loop
    vertex -6.719237223516536 -17.1457665071112 1.9999999999999998
    vertex -6.719237223516536 -12.24576650711121 0.9999999999999999
    vertex -6.719237223516536 -12.24576650711121 1.9999999999999998
  endloop
endfacet
facet normal 9.096666072735155e-16 1.0 -1.6954361172086038e-46
  outer loop
    vertex -6.719237223516536 -2.6457665071112046 1.9999999999999998
    vertex 5.680762776483464 -2.6457665071112157 0.9999999999999999
    vertex -6.719237223516536 -2.6457665071112046 0.9999999999999999
  endloop
endfacet
facet normal 9.096666072735155e-16 1.0 -1.6954361172086038e-46
  outer loop
    vertex 5.680762776483464 -2.6457665071112157 0.9999999999999999
    vertex -6.719237223516536 -2.6457665071112046 1.9999999999999998
    vertex 5.680762776483464 -2.6457665071112157 1.9999999999999998
  endloop
endfacet
facet normal 1.0 0.0 0.0
  outer loop
    vertex -6.719237223516536 2.2542334928887864 1.9999999999999998
    vertex -6.719237223516536 -2.6457665071112046 7.999999999999999
    vertex -6.719237223516536 -2.6457665071112046 1.9999999999999998
  endloop
endfacet
facet normal 1.0 0.0 0.0
  outer loop
    vertex -6.719237223516536 -2.6457665071112046 7.999999999999999
    vertex -6.719237223516536 2.2542334928887864 1.9999999999999998
    vertex -6.719237223516536 2.2542334928887864 7.999999999999999
  endloop
endfacet
facet normal -1.0 -0.0 -0.0
  outer loop
    vertex 5.680762776483464 2.2542334928887864 7.999999999999999
    vertex 5.680762776483464 -2.6457665071112157 1.9999999999999998
    vertex 5.680762776483464 -2.6457665071112157 7.999999999999999
  endloop
endfacet
facet normal -1.0 -0.0 -0.0
  outer loop
    vertex 5.680762776483464 -2.6457665071112157 1.9999999999999998
    vertex 5.680762776483464 2.2542334928887864 7.999999999999999
    vertex 5.680762776483464 2.2542334928887864 1.9999999999999998
  endloop
endfacet
facet normal -1.0 0.0 0.0
  outer loop
    vertex 5.680762776483464 -26.745766507111206 1.9999999999999998
    vertex 5.680762776483464 -31.6457665071112 0.9999999999999999
    vertex 5.680762776483464 -31.6457665071112 1.9999999999999998
  endloop
endfacet
facet normal -1.0 0.0 0.0
  outer loop
    vertex 5.680762776483464 -31.6457665071112 0.9999999999999999
    vertex 5.680762776483464 -26.745766507111206 1.9999999999999998
    vertex 5.680762776483464 -26.745766507111206 0.9999999999999999
  endloop
endfacet
facet normal 1.0 0.0 0.0
  outer loop
    vertex -6.719237223516536 -26.745766507111206 0.9999999999999999
    vertex -6.719237223516536 -31.6457665071112 1.9999999999999998
    vertex -6.719237223516536 -31.6457665071112 0.9999999999999999
  endloop
endfacet
facet normal 1.0 0.0 0.0
  outer loop
    vertex -6.719237223516536 -31.6457665071112 1.9999999999999998
    vertex -6.719237223516536 -26.745766507111206 0.9999999999999999
    vertex -6.719237223516536 -26.745766507111206 1.9999999999999998
  endloop
endfacet
facet normal 0.0 1.0 0.0
  outer loop
    vertex -6.719237223516536 11.854233492888792 1.9999999999999998
    vertex 5.680762776483464 11.854233492888792 0.9999999999999999
    vertex -6.719237223516536 11.854233492888792 0.9999999999999999
  endloop
endfacet
facet normal 0.0 1.0 0.0
  outer loop
    vertex 5.680762776483464 11.854233492888792 0.9999999999999999
    vertex -6.719237223516536 11.854233492888792 1.9999999999999998
    vertex 5.680762776483464 11.854233492888792 1.9999999999999998
  endloop
endfacet
facet normal 1.0 0.0 0.0
  outer loop
    vertex -6.719237223516536 16.754233492888783 0.9999999999999999
    vertex -6.719237223516536 11.854233492888792 1.9999999999999998
    vertex -6.719237223516536 11.854233492888792 0.9999999999999999
  endloop
endfacet
facet normal 1.0 0.0 0.0
  outer loop
    vertex -6.719237223516536 11.854233492888792 1.9999999999999998
    vertex -6.719237223516536 16.754233492888783 0.9999999999999999
    vertex -6.719237223516536 16.754233492888783 1.9999999999999998
  endloop
endfacet
facet normal 0.0 1.0 0.0
  outer loop
    vertex -6.719237223516536 26.35423349288879 1.9999999999999998
    vertex 5.680762776483464 26.35423349288879 0.9999999999999999
    vertex -6.719237223516536 26.35423349288879 0.9999999999999999
  endloop
endfacet
facet normal 0.0 1.0 0.0
  outer loop
    vertex 5.680762776483464 26.35423349288879 0.9999999999999999
    vertex -6.719237223516536 26.35423349288879 1.9999999999999998
    vertex 5.680762776483464 26.35423349288879 1.9999999999999998
  endloop
endfacet
facet normal 0.0 1.0 0.0
  outer loop
    vertex -6.719237223516536 -31.6457665071112 1.9999999999999998
    vertex 5.680762776483464 -31.6457665071112 0.9999999999999999
    vertex -6.719237223516536 -31.6457665071112 0.9999999999999999
  endloop
endfacet
facet normal 0.0 1.0 0.0
  outer loop
    vertex 5.680762776483464 -31.6457665071112 0.9999999999999999
    vertex -6.719237223516536 -31.6457665071112 1.9999999999999998
    vertex 5.680762776483464 -31.6457665071112 1.9999999999999998
  endloop
endfacet
facet normal -0.1836149907889001 -0.9225739988123357 0.3393269100336847
  outer loop
    vertex -7.719237223516534 -32.6457665071112 7.999999999999999
    vertex -11.31923722351655 -34.13610494623054 1.9999999999999998
    vertex -0.7192372235165241 -36.2457665071112 1.9999999999999998
  endloop
endfacet
facet normal 0.8574929257125441 0.0 0.5144957554275267
  outer loop
    vertex 6.680762776483462 -17.060868523867672 7.999999999999999
    vertex 6.680762776483462 -32.6457665071112 7.999999999999999
    vertex 10.280762776483456 -18.520766507111205 1.9999999999999998
  endloop
endfacet
facet normal 0.0 0.0 1.0
  outer loop
    vertex -7.719237223516534 -32.6457665071112 7.999999999999999
    vertex -6.719237223516536 -31.6457665071112 7.999999999999999
    vertex -7.719237223516534 -11.472278014227419 7.999999999999999
  endloop
endfacet
facet normal 0.0 0.0 1.0
  outer loop
    vertex -6.719237223516536 -31.6457665071112 7.999999999999999
    vertex -7.719237223516534 -32.6457665071112 7.999999999999999
    vertex 6.680762776483462 -32.6457665071112 7.999999999999999
  endloop
endfacet
facet normal 0.0 0.0 1.0
  outer loop
    vertex -7.719237223516534 -11.472278014227419 7.999999999999999
    vertex -6.719237223516536 -31.6457665071112 7.999999999999999
    vertex -7.719237223516534 2.4888755128422577 7.999999999999999
  endloop
endfacet
facet normal 0.0 0.0 1.0
  outer loop
    vertex -7.719237223516534 2.4888755128422577 7.999999999999999
    vertex -6.719237223516536 -31.6457665071112 7.999999999999999
    vertex -7.719237223516534 18.129233492888797 7.999999999999999
  endloop
endfacet
facet normal 0.0 0.0 1.0
  outer loop
    vertex -7.719237223516534 18.129233492888797 7.999999999999999
    vertex -6.719237223516536 -31.6457665071112 7.999999999999999
    vertex -7.719237223516534 32.25423349288879 7.999999999999999
  endloop
endfacet
facet normal 0.0 0.0 1.0
  outer loop
    vertex -6.719237223516536 -31.6457665071112 7.999999999999999
    vertex 6.680762776483462 -32.6457665071112 7.999999999999999
    vertex 5.680762776483464 -31.6457665071112 7.999999999999999
  endloop
endfacet
facet normal 0.0 0.0 1.0
  outer loop
    vertex 5.680762776483464 -31.6457665071112 7.999999999999999
    vertex 6.680762776483462 -32.6457665071112 7.999999999999999
    vertex 5.680762776483464 -26.745766507111206 7.999999999999999
  endloop
endfacet
facet normal 0.0 0.0 1.0
  outer loop
    vertex 5.680762776483464 -26.745766507111206 7.999999999999999
    vertex 6.680762776483462 -32.6457665071112 7.999999999999999
    vertex 5.680762776483464 -17.1457665071112 7.999999999999999
  endloop
endfacet
facet normal 0.0 0.0 1.0
  outer loop
    vertex 5.680762776483464 -17.1457665071112 7.999999999999999
    vertex 6.680762776483462 -32.6457665071112 7.999999999999999
    vertex 5.680762776483464 -12.24576650711121 7.999999999999999
  endloop
endfacet
facet normal 0.0 0.0 1.0
  outer loop
    vertex 5.680762776483464 -12.24576650711121 7.999999999999999
    vertex 6.680762776483462 -32.6457665071112 7.999999999999999
    vertex 5.680762776483464 -2.6457665071112157 7.999999999999999
  endloop
endfacet
facet normal 0.0 0.0 1.0
  outer loop
    vertex 5.680762776483464 -2.6457665071112157 7.999999999999999
    vertex 6.680762776483462 -32.6457665071112 7.999999999999999
    vertex 5.680762776483464 2.2542334928887864 7.999999999999999
  endloop
endfacet
facet normal 0.0 0.0 1.0
  outer loop
    vertex 5.680762776483464 2.2542334928887864 7.999999999999999
    vertex 6.680762776483462 -32.6457665071112 7.999999999999999
    vertex 5.680762776483464 11.854233492888792 7.999999999999999
  endloop
endfacet
facet normal 0.0 0.0 1.0
  outer loop
    vertex 5.680762776483464 11.854233492888792 7.999999999999999
    vertex 6.680762776483462 -32.6457665071112 7.999999999999999
    vertex 5.680762776483464 16.754233492888783 7.999999999999999
  endloop
endfacet
facet normal 0.0 0.0 1.0
  outer loop
    vertex 5.680762776483464 16.754233492888783 7.999999999999999
    vertex 6.680762776483462 -32.6457665071112 7.999999999999999
    vertex 5.680762776483464 26.35423349288879 7.999999999999999
  endloop
endfacet
facet normal 0.0 0.0 1.0
  outer loop
    vertex 5.680762776483464 26.35423349288879 7.999999999999999
    vertex 6.680762776483462 -32.6457665071112 7.999999999999999
    vertex 5.680762776483464 31.25423349288879 7.999999999999999
  endloop
endfacet
facet normal 0.0 0.0 1.0
  outer loop
    vertex -7.719237223516534 32.25423349288879 7.999999999999999
    vertex -6.719237223516536 31.25423349288879 7.999999999999999
    vertex 6.680762776483462 32.25423349288879 7.999999999999999
  endloop
endfacet
facet normal 0.0 0.0 1.0
  outer loop
    vertex -6.719237223516536 31.25423349288879 7.999999999999999
    vertex -7.719237223516534 32.25423349288879 7.999999999999999
    vertex -6.719237223516536 -31.6457665071112 7.999999999999999
  endloop
endfacet
facet normal 0.0 0.0 1.0
  outer loop
    vertex -6.719237223516536 31.25423349288879 7.999999999999999
    vertex -6.719237223516536 -31.6457665071112 7.999999999999999
    vertex -6.719237223516536 -26.745766507111206 7.999999999999999
  endloop
endfacet
facet normal 0.0 0.0 1.0
  outer loop
    vertex -6.719237223516536 31.25423349288879 7.999999999999999
    vertex -6.719237223516536 -26.745766507111206 7.999999999999999
    vertex -6.719237223516536 -17.1457665071112 7.999999999999999
  endloop
endfacet
facet normal 0.0 0.0 1.0
  outer loop
    vertex -6.719237223516536 31.25423349288879 7.999999999999999
    vertex -6.719237223516536 -17.1457665071112 7.999999999999999
    vertex -6.719237223516536 -12.24576650711121 7.999999999999999
  endloop
endfacet
facet normal 0.0 0.0 1.0
  outer loop
    vertex -6.719237223516536 31.25423349288879 7.999999999999999
    vertex -6.719237223516536 -12.24576650711121 7.999999999999999
    vertex -6.719237223516536 -2.6457665071112046 7.999999999999999
  endloop
endfacet
facet normal 0.0 0.0 1.0
  outer loop
    vertex -6.719237223516536 31.25423349288879 7.999999999999999
    vertex -6.719237223516536 -2.6457665071112046 7.999999999999999
    vertex -6.719237223516536 2.2542334928887864 7.999999999999999
  endloop
endfacet
facet normal 0.0 0.0 1.0
  outer loop
    vertex -6.719237223516536 31.25423349288879 7.999999999999999
    vertex -6.719237223516536 2.2542334928887864 7.999999999999999
    vertex -6.719237223516536 11.854233492888792 7.999999999999999
  endloop
endfacet
facet normal 0.0 0.0 1.0
  outer loop
    vertex -6.719237223516536 31.25423349288879 7.999999999999999
    vertex -6.719237223516536 11.854233492888792 7.999999999999999
    vertex -6.719237223516536 16.754233492888783 7.999999999999999
  endloop
endfacet
facet normal 0.0 0.0 1.0
  outer loop
    vertex -6.719237223516536 31.25423349288879 7.999999999999999
    vertex -6.719237223516536 16.754233492888783 7.999999999999999
    vertex -6.719237223516536 26.35423349288879 7.999999999999999
  endloop
endfacet
facet normal 0.0 0.0 1.0
  outer loop
    vertex 6.680762776483462 32.25423349288879 7.999999999999999
    vertex -6.719237223516536 31.25423349288879 7.999999999999999
    vertex 5.680762776483464 31.25423349288879 7.999999999999999
  endloop
endfacet
facet normal 0.0 0.0 1.0
  outer loop
    vertex 6.680762776483462 32.25423349288879 7.999999999999999
    vertex 5.680762776483464 31.25423349288879 7.999999999999999
    vertex 6.680762776483462 -32.6457665071112 7.999999999999999
  endloop
endfacet
facet normal 0.0 0.0 1.0
  outer loop
    vertex 6.680762776483462 32.25423349288879 7.999999999999999
    vertex 6.680762776483462 -32.6457665071112 7.999999999999999
    vertex 6.680762776483462 -17.060868523867672 7.999999999999999
  endloop
endfacet
facet normal 0.0 0.0 1.0
  outer loop
    vertex 6.680762776483462 32.25423349288879 7.999999999999999
    vertex 6.680762776483462 -17.060868523867672 7.999999999999999
    vertex 6.680762776483462 -0.7003949874846842 7.999999999999999
  endloop
endfacet
facet normal 0.0 0.0 1.0
  outer loop
    vertex 6.680762776483462 32.25423349288879 7.999999999999999
    vertex 6.680762776483462 -0.7003949874846842 7.999999999999999
    vertex 6.680762776483462 14.831309219525531 7.999999999999999
  endloop
endfacet
facet normal 0.0 0.0 1.0
  outer loop
    vertex 5.680762776483464 16.754233492888783 7.999999999999999
    vertex -6.719237223516536 26.35423349288879 7.999999999999999
    vertex -6.719237223516536 16.754233492888783 7.999999999999999
  endloop
endfacet
facet normal 0.0 0.0 1.0
  outer loop
    vertex -6.719237223516536 26.35423349288879 7.999999999999999
    vertex 5.680762776483464 16.754233492888783 7.999999999999999
    vertex 5.680762776483464 26.35423349288879 7.999999999999999
  endloop
endfacet
facet normal 0.0 0.0 1.0
  outer loop
    vertex 5.680762776483464 2.2542334928887864 7.999999999999999
    vertex -6.719237223516536 11.854233492888792 7.999999999999999
    vertex -6.719237223516536 2.2542334928887864 7.999999999999999
  endloop
endfacet
facet normal 0.0 0.0 1.0
  outer loop
    vertex -6.719237223516536 11.854233492888792 7.999999999999999
    vertex 5.680762776483464 2.2542334928887864 7.999999999999999
    vertex 5.680762776483464 11.854233492888792 7.999999999999999
  endloop
endfacet
facet normal 0.0 0.0 1.0
  outer loop
    vertex 5.680762776483464 -12.24576650711121 7.999999999999999
    vertex -6.719237223516536 -2.6457665071112046 7.999999999999999
    vertex -6.719237223516536 -12.24576650711121 7.999999999999999
  endloop
endfacet
facet normal 0.0 0.0 1.0
  outer loop
    vertex -6.719237223516536 -2.6457665071112046 7.999999999999999
    vertex 5.680762776483464 -12.24576650711121 7.999999999999999
    vertex 5.680762776483464 -2.6457665071112157 7.999999999999999
  endloop
endfacet
facet normal 0.0 0.0 1.0
  outer loop
    vertex 5.680762776483464 -26.745766507111206 7.999999999999999
    vertex -6.719237223516536 -17.1457665071112 7.999999999999999
    vertex -6.719237223516536 -26.745766507111206 7.999999999999999
  endloop
endfacet
facet normal 0.0 0.0 1.0
  outer loop
    vertex -6.719237223516536 -17.1457665071112 7.999999999999999
    vertex 5.680762776483464 -26.745766507111206 7.999999999999999
    vertex 5.680762776483464 -17.1457665071112 7.999999999999999
  endloop
endfacet
facet normal 0.0 0.0 1.0
  outer loop
    vertex -11.31923722351655 -18.120766507111206 1.9999999999999998
    vertex -16.31923722351654 -0.3957665071112088 1.9999999999999998
    vertex -16.31923722351654 -18.120766507111206 1.9999999999999998
  endloop
endfacet
facet normal 0.0 0.0 1.0
  outer loop
    vertex -16.31923722351654 -0.3957665071112088 1.9999999999999998
    vertex -11.31923722351655 -18.120766507111206 1.9999999999999998
    vertex -11.31923722351655 -0.3957665071112088 1.9999999999999998
  endloop
endfacet
facet normal -2.549300786922609e-17 -0.8574929257125443 0.5144957554275266
  outer loop
    vertex 6.680762776483462 -32.6457665071112 7.999999999999999
    vertex -0.7192372235165241 -36.2457665071112 1.9999999999999998
    vertex 10.680762776483455 -36.2457665071112 1.9999999999999998
  endloop
endfacet
facet normal -2.549300786922609e-17 -0.8574929257125443 0.5144957554275266
  outer loop
    vertex -0.7192372235165241 -36.2457665071112 1.9999999999999998
    vertex 6.680762776483462 -32.6457665071112 7.999999999999999
    vertex -7.719237223516534 -32.6457665071112 7.999999999999999
  endloop
endfacet
facet normal -0.8574929257125443 -3.0502297488648756e-17 0.5144957554275263
  outer loop
    vertex -7.719237223516534 -32.6457665071112 7.999999999999999
    vertex -11.31923722351655 -18.120766507111206 1.9999999999999998
    vertex -11.31923722351655 -34.13610494623054 1.9999999999999998
  endloop
endfacet
facet normal -0.8574929257125443 -3.0502297488648756e-17 0.5144957554275263
  outer loop
    vertex -11.31923722351655 -18.120766507111206 1.9999999999999998
    vertex -7.719237223516534 -32.6457665071112 7.999999999999999
    vertex -7.719237223516534 -11.472278014227419 7.999999999999999
  endloop
endfacet
facet normal 0.0 -1.0 0.0
  outer loop
    vertex 5.680762776483464 -26.745766507111206 1.9999999999999998
    vertex -6.719237223516536 -26.745766507111206 0.9999999999999999
    vertex 5.680762776483464 -26.745766507111206 0.9999999999999999
  endloop
endfacet
facet normal 0.0 -1.0 0.0
  outer loop
    vertex -6.719237223516536 -26.745766507111206 0.9999999999999999
    vertex 5.680762776483464 -26.745766507111206 1.9999999999999998
    vertex -6.719237223516536 -26.745766507111206 1.9999999999999998
  endloop
endfacet
facet normal -0.8574929257125443 -1.8287159213863727e-18 0.5144957554275263
  outer loop
    vertex -7.719237223516534 2.4888755128422577 7.999999999999999
    vertex -11.31923722351655 18.129233492888797 1.9999999999999998
    vertex -11.31923722351655 -0.3957665071112088 1.9999999999999998
  endloop
endfacet
facet normal -0.8574929257125443 -1.8287159213863727e-18 0.5144957554275263
  outer loop
    vertex -11.31923722351655 18.129233492888797 1.9999999999999998
    vertex -7.719237223516534 2.4888755128422577 7.999999999999999
    vertex -7.719237223516534 18.129233492888797 7.999999999999999
  endloop
endfacet
facet normal 0.0 -1.0 0.0
  outer loop
    vertex 5.680762776483464 -26.745766507111206 7.999999999999999
    vertex -6.719237223516536 -26.745766507111206 1.9999999999999998
    vertex 5.680762776483464 -26.745766507111206 1.9999999999999998
  endloop
endfacet
facet normal 0.0 -1.0 0.0
  outer loop
    vertex -6.719237223516536 -26.745766507111206 1.9999999999999998
    vertex 5.680762776483464 -26.745766507111206 7.999999999999999
    vertex -6.719237223516536 -26.745766507111206 7.999999999999999
  endloop
endfacet
facet normal -8.31358043203979e-18 -1.0 -0.0
  outer loop
    vertex -0.7192372235165241 -41.2457665071112 1.9999999999999998
    vertex -11.31923722351655 -41.2457665071112 0.0
    vertex -0.7192372235165241 -41.2457665071112 0.0
  endloop
endfacet
facet normal -8.31358043203979e-18 -1.0 -0.0
  outer loop
    vertex -11.31923722351655 -41.2457665071112 0.0
    vertex -0.7192372235165241 -41.2457665071112 1.9999999999999998
    vertex -11.31923722351655 -41.2457665071112 1.9999999999999998
  endloop
endfacet
facet normal 0.0 0.0 1.0
  outer loop
    vertex 15.280762776483446 0.0042334928887904685 1.9999999999999998
    vertex 10.280762776483456 17.7292334928888 1.9999999999999998
    vertex 10.280762776483456 0.0042334928887904685 1.9999999999999998
  endloop
endfacet
facet normal 0.0 0.0 1.0
  outer loop
    vertex 10.280762776483456 17.7292334928888 1.9999999999999998
    vertex 15.280762776483446 0.0042334928887904685 1.9999999999999998
    vertex 15.280762776483446 17.7292334928888 1.9999999999999998
  endloop
endfacet
facet normal -1.0 0.0 0.0
  outer loop
    vertex -16.31923722351654 35.854233492888795 1.9999999999999998
    vertex -16.31923722351654 18.129233492888797 0.0
    vertex -16.31923722351654 18.129233492888797 1.9999999999999998
  endloop
endfacet
facet normal -1.0 0.0 0.0
  outer loop
    vertex -16.31923722351654 18.129233492888797 0.0
    vertex -16.31923722351654 35.854233492888795 1.9999999999999998
    vertex -16.31923722351654 35.854233492888795 0.0
  endloop
endfacet
facet normal -0.0 -1.0 -0.0
  outer loop
    vertex -11.31923722351655 18.129233492888797 1.9999999999999998
    vertex -16.31923722351654 18.129233492888797 0.0
    vertex -11.31923722351655 18.129233492888797 0.0
  endloop
endfacet
facet normal -0.0 -1.0 -0.0
  outer loop
    vertex -16.31923722351654 18.129233492888797 0.0
    vertex -11.31923722351655 18.129233492888797 1.9999999999999998
    vertex -16.31923722351654 18.129233492888797 1.9999999999999998
  endloop
endfacet
facet normal 0.0 1.0 0.0
  outer loop
    vertex -16.31923722351654 35.854233492888795 1.9999999999999998
    vertex -11.31923722351655 35.854233492888795 0.0
    vertex -16.31923722351654 35.854233492888795 0.0
  endloop
endfacet
facet normal 0.0 1.0 0.0
  outer loop
    vertex -11.31923722351655 35.854233492888795 0.0
    vertex -16.31923722351654 35.854233492888795 1.9999999999999998
    vertex -11.31923722351655 35.854233492888795 1.9999999999999998
  endloop
endfacet
facet normal -1.0 0.0 0.0
  outer loop
    vertex -11.31923722351655 -34.13610494623054 1.9999999999999998
    vertex -11.31923722351655 -41.2457665071112 0.0
    vertex -11.31923722351655 -41.2457665071112 1.9999999999999998
  endloop
endfacet
facet normal -1.0 0.0 0.0
  outer loop
    vertex -11.31923722351655 -41.2457665071112 0.0
    vertex -11.31923722351655 -34.13610494623054 1.9999999999999998
    vertex -11.31923722351655 -18.120766507111206 0.0
  endloop
endfacet
facet normal -1.0 0.0 0.0
  outer loop
    vertex -11.31923722351655 -18.120766507111206 0.0
    vertex -11.31923722351655 -34.13610494623054 1.9999999999999998
    vertex -11.31923722351655 -18.120766507111206 1.9999999999999998
  endloop
endfacet
facet normal 0.0 1.0 0.0
  outer loop
    vertex 10.280762776483456 17.7292334928888 1.9999999999999998
    vertex 15.280762776483446 17.7292334928888 0.0
    vertex 10.280762776483456 17.7292334928888 0.0
  endloop
endfacet
facet normal 0.0 1.0 0.0
  outer loop
    vertex 15.280762776483446 17.7292334928888 0.0
    vertex 10.280762776483456 17.7292334928888 1.9999999999999998
    vertex 15.280762776483446 17.7292334928888 1.9999999999999998
  endloop
endfacet
facet normal 0.0 1.0 0.0
  outer loop
    vertex 10.280762776483456 45.854233492888795 1.9999999999999998
    vertex 15.280762776483446 45.854233492888795 0.0
    vertex 10.280762776483456 45.854233492888795 0.0
  endloop
endfacet
facet normal 0.0 1.0 0.0
  outer loop
    vertex 15.280762776483446 45.854233492888795 0.0
    vertex 10.280762776483456 45.854233492888795 1.9999999999999998
    vertex 15.280762776483446 45.854233492888795 1.9999999999999998
  endloop
endfacet
facet normal -1.0 0.0 0.0
  outer loop
    vertex -11.31923722351655 45.854233492888795 1.9999999999999998
    vertex -11.31923722351655 35.854233492888795 0.0
    vertex -11.31923722351655 35.854233492888795 1.9999999999999998
  endloop
endfacet
facet normal -1.0 0.0 0.0
  outer loop
    vertex -11.31923722351655 35.854233492888795 0.0
    vertex -11.31923722351655 45.854233492888795 1.9999999999999998
    vertex -11.31923722351655 45.854233492888795 0.0
  endloop
endfacet
facet normal 1.0 0.0 0.0
  outer loop
    vertex 15.280762776483446 -18.520766507111205 0.0
    vertex 15.280762776483446 -41.2457665071112 1.9999999999999998
    vertex 15.280762776483446 -41.2457665071112 0.0
  endloop
endfacet
facet normal 1.0 0.0 0.0
  outer loop
    vertex 15.280762776483446 -41.2457665071112 1.9999999999999998
    vertex 15.280762776483446 -18.520766507111205 0.0
    vertex 15.280762776483446 -18.520766507111205 1.9999999999999998
  endloop
endfacet
facet normal 0.0 1.0 0.0
  outer loop
    vertex 10.280762776483456 -18.520766507111205 1.9999999999999998
    vertex 15.280762776483446 -18.520766507111205 0.0
    vertex 10.280762776483456 -18.520766507111205 0.0
  endloop
endfacet
facet normal 0.0 1.0 0.0
  outer loop
    vertex 15.280762776483446 -18.520766507111205 0.0
    vertex 10.280762776483456 -18.520766507111205 1.9999999999999998
    vertex 15.280762776483446 -18.520766507111205 1.9999999999999998
  endloop
endfacet
facet normal 1.0 0.0 0.0
  outer loop
    vertex 15.280762776483446 45.854233492888795 0.0
    vertex 15.280762776483446 36.254233492888794 1.9999999999999998
    vertex 15.280762776483446 36.254233492888794 0.0
  endloop
endfacet
facet normal 1.0 0.0 0.0
  outer loop
    vertex 15.280762776483446 36.254233492888794 1.9999999999999998
    vertex 15.280762776483446 45.854233492888795 0.0
    vertex 15.280762776483446 45.854233492888795 1.9999999999999998
  endloop
endfacet
facet normal 1.0 0.0 0.0
  outer loop
    vertex 10.280762776483456 36.254233492888794 0.0
    vertex 10.280762776483456 17.7292334928888 1.9999999999999998
    vertex 10.280762776483456 17.7292334928888 0.0
  endloop
endfacet
facet normal 1.0 0.0 0.0
  outer loop
    vertex 10.280762776483456 17.7292334928888 1.9999999999999998
    vertex 10.280762776483456 36.254233492888794 0.0
    vertex 10.280762776483456 36.254233492888794 1.9999999999999998
  endloop
endfacet
facet normal 0.0 1.0 0.0
  outer loop
    vertex -11.31923722351655 45.854233492888795 1.9999999999999998
    vertex -0.31923722351654743 45.854233492888795 0.0
    vertex -11.31923722351655 45.854233492888795 0.0
  endloop
endfacet
facet normal 0.0 1.0 0.0
  outer loop
    vertex -0.31923722351654743 45.854233492888795 0.0
    vertex -11.31923722351655 45.854233492888795 1.9999999999999998
    vertex -0.31923722351654743 45.854233492888795 1.9999999999999998
  endloop
endfacet
facet normal 1.0 0.0 0.0
  outer loop
    vertex 15.280762776483446 17.7292334928888 0.0
    vertex 15.280762776483446 0.0042334928887904685 1.9999999999999998
    vertex 15.280762776483446 0.0042334928887904685 0.0
  endloop
endfacet
facet normal 1.0 0.0 0.0
  outer loop
    vertex 15.280762776483446 0.0042334928887904685 1.9999999999999998
    vertex 15.280762776483446 17.7292334928888 0.0
    vertex 15.280762776483446 17.7292334928888 1.9999999999999998
  endloop
endfacet
facet normal -0.0 -1.0 -0.0
  outer loop
    vertex 15.280762776483446 0.0042334928887904685 1.9999999999999998
    vertex 10.280762776483456 0.0042334928887904685 0.0
    vertex 15.280762776483446 0.0042334928887904685 0.0
  endloop
endfacet
facet normal -0.0 -1.0 -0.0
  outer loop
    vertex 10.280762776483456 0.0042334928887904685 0.0
    vertex 15.280762776483446 0.0042334928887904685 1.9999999999999998
    vertex 10.280762776483456 0.0042334928887904685 1.9999999999999998
  endloop
endfacet
facet normal 1.0 0.0 0.0
  outer loop
    vertex 10.280762776483456 50.85423349288879 0.0
    vertex 10.280762776483456 45.854233492888795 1.9999999999999998
    vertex 10.280762776483456 45.854233492888795 0.0
  endloop
endfacet
facet normal 1.0 0.0 0.0
  outer loop
    vertex 10.280762776483456 45.854233492888795 1.9999999999999998
    vertex 10.280762776483456 50.85423349288879 0.0
    vertex 10.280762776483456 50.85423349288879 1.9999999999999998
  endloop
endfacet
facet normal 1.0 0.0 0.0
  outer loop
    vertex -0.7192372235165241 -36.2457665071112 0.0
    vertex -0.7192372235165241 -41.2457665071112 1.9999999999999998
    vertex -0.7192372235165241 -41.2457665071112 0.0
  endloop
endfacet
facet normal 1.0 0.0 0.0
  outer loop
    vertex -0.7192372235165241 -41.2457665071112 1.9999999999999998
    vertex -0.7192372235165241 -36.2457665071112 0.0
    vertex -0.7192372235165241 -36.2457665071112 1.9999999999999998
  endloop
endfacet
facet normal 0.0 -1.0 0.0
  outer loop
    vertex 15.280762776483446 36.254233492888794 1.9999999999999998
    vertex 10.280762776483456 36.254233492888794 0.0
    vertex 15.280762776483446 36.254233492888794 0.0
  endloop
endfacet
facet normal 0.0 -1.0 0.0
  outer loop
    vertex 10.280762776483456 36.254233492888794 0.0
    vertex 15.280762776483446 36.254233492888794 1.9999999999999998
    vertex 10.280762776483456 36.254233492888794 1.9999999999999998
  endloop
endfacet
facet normal -1.0 0.0 0.0
  outer loop
    vertex -0.31923722351654743 50.85423349288879 1.9999999999999998
    vertex -0.31923722351654743 45.854233492888795 0.0
    vertex -0.31923722351654743 45.854233492888795 1.9999999999999998
  endloop
endfacet
facet normal -1.0 0.0 0.0
  outer loop
    vertex -0.31923722351654743 45.854233492888795 0.0
    vertex -0.31923722351654743 50.85423349288879 1.9999999999999998
    vertex -0.31923722351654743 50.85423349288879 0.0
  endloop
endfacet
facet normal -1.0 -0.0 -0.0
  outer loop
    vertex 5.680762776483464 -26.745766507111206 7.999999999999999
    vertex 5.680762776483464 -31.6457665071112 1.9999999999999998
    vertex 5.680762776483464 -31.6457665071112 7.999999999999999
  endloop
endfacet
facet normal -1.0 -0.0 -0.0
  outer loop
    vertex 5.680762776483464 -31.6457665071112 1.9999999999999998
    vertex 5.680762776483464 -26.745766507111206 7.999999999999999
    vertex 5.680762776483464 -26.745766507111206 1.9999999999999998
  endloop
endfacet
facet normal 1.0 0.0 0.0
  outer loop
    vertex 10.280762776483456 0.0042334928887904685 0.0
    vertex 10.280762776483456 -18.520766507111205 1.9999999999999998
    vertex 10.280762776483456 -18.520766507111205 0.0
  endloop
endfacet
facet normal 1.0 0.0 0.0
  outer loop
    vertex 10.280762776483456 -18.520766507111205 1.9999999999999998
    vertex 10.280762776483456 0.0042334928887904685 0.0
    vertex 10.280762776483456 0.0042334928887904685 1.9999999999999998
  endloop
endfacet
facet normal -0.0 -1.0 -0.0
  outer loop
    vertex -11.31923722351655 -18.120766507111206 1.9999999999999998
    vertex -16.31923722351654 -18.120766507111206 0.0
    vertex -11.31923722351655 -18.120766507111206 0.0
  endloop
endfacet
facet normal -0.0 -1.0 -0.0
  outer loop
    vertex -16.31923722351654 -18.120766507111206 0.0
    vertex -11.31923722351655 -18.120766507111206 1.9999999999999998
    vertex -16.31923722351654 -18.120766507111206 1.9999999999999998
  endloop
endfacet
facet normal -0.0 -1.0 -0.0
  outer loop
    vertex 10.680762776483455 -36.2457665071112 1.9999999999999998
    vertex -0.7192372235165241 -36.2457665071112 0.0
    vertex 10.680762776483455 -36.2457665071112 0.0
  endloop
endfacet
facet normal -0.0 -1.0 -0.0
  outer loop
    vertex -0.7192372235165241 -36.2457665071112 0.0
    vertex 10.680762776483455 -36.2457665071112 1.9999999999999998
    vertex -0.7192372235165241 -36.2457665071112 1.9999999999999998
  endloop
endfacet
facet normal 0.0 1.0 0.0
  outer loop
    vertex -6.719237223516536 -31.6457665071112 7.999999999999999
    vertex 5.680762776483464 -31.6457665071112 1.9999999999999998
    vertex -6.719237223516536 -31.6457665071112 1.9999999999999998
  endloop
endfacet
facet normal 0.0 1.0 0.0
  outer loop
    vertex 5.680762776483464 -31.6457665071112 1.9999999999999998
    vertex -6.719237223516536 -31.6457665071112 7.999999999999999
    vertex 5.680762776483464 -31.6457665071112 7.999999999999999
  endloop
endfacet
facet normal 0.0 1.0 0.0
  outer loop
    vertex -0.31923722351654743 50.85423349288879 1.9999999999999998
    vertex 10.280762776483456 50.85423349288879 0.0
    vertex -0.31923722351654743 50.85423349288879 0.0
  endloop
endfacet
facet normal 0.0 1.0 0.0
  outer loop
    vertex 10.280762776483456 50.85423349288879 0.0
    vertex -0.31923722351654743 50.85423349288879 1.9999999999999998
    vertex 10.280762776483456 50.85423349288879 1.9999999999999998
  endloop
endfacet
facet normal 0.0 1.0 0.0
  outer loop
    vertex -16.31923722351654 -0.3957665071112088 1.9999999999999998
    vertex -11.31923722351655 -0.3957665071112088 0.0
    vertex -16.31923722351654 -0.3957665071112088 0.0
  endloop
endfacet
facet normal 0.0 1.0 0.0
  outer loop
    vertex -11.31923722351655 -0.3957665071112088 0.0
    vertex -16.31923722351654 -0.3957665071112088 1.9999999999999998
    vertex -11.31923722351655 -0.3957665071112088 1.9999999999999998
  endloop
endfacet
facet normal 0.8574929257125441 1.0264125456638308e-17 0.5144957554275267
  outer loop
    vertex 10.280762776483456 17.7292334928888 1.9999999999999998
    vertex 6.680762776483462 14.831309219525531 7.999999999999999
    vertex 10.280762776483456 0.0042334928887904685 1.9999999999999998
  endloop
endfacet
facet normal 0.0 -1.0 0.0
  outer loop
    vertex 5.680762776483464 -12.24576650711121 1.9999999999999998
    vertex -6.719237223516536 -12.24576650711121 0.9999999999999999
    vertex 5.680762776483464 -12.24576650711121 0.9999999999999999
  endloop
endfacet
facet normal 0.0 -1.0 0.0
  outer loop
    vertex -6.719237223516536 -12.24576650711121 0.9999999999999999
    vertex 5.680762776483464 -12.24576650711121 1.9999999999999998
    vertex -6.719237223516536 -12.24576650711121 1.9999999999999998
  endloop
endfacet
facet normal 1.0 0.0 0.0
  outer loop
    vertex -6.719237223516536 31.25423349288879 0.9999999999999999
    vertex -6.719237223516536 26.35423349288879 1.9999999999999998
    vertex -6.719237223516536 26.35423349288879 0.9999999999999999
  endloop
endfacet
facet normal 1.0 0.0 0.0
  outer loop
    vertex -6.719237223516536 26.35423349288879 1.9999999999999998
    vertex -6.719237223516536 31.25423349288879 0.9999999999999999
    vertex -6.719237223516536 31.25423349288879 1.9999999999999998
  endloop
endfacet
facet normal -1.0 -0.0 -0.0
  outer loop
    vertex 5.680762776483464 -12.24576650711121 7.999999999999999
    vertex 5.680762776483464 -17.1457665071112 1.9999999999999998
    vertex 5.680762776483464 -17.1457665071112 7.999999999999999
  endloop
endfacet
facet normal -1.0 -0.0 -0.0
  outer loop
    vertex 5.680762776483464 -17.1457665071112 1.9999999999999998
    vertex 5.680762776483464 -12.24576650711121 7.999999999999999
    vertex 5.680762776483464 -12.24576650711121 1.9999999999999998
  endloop
endfacet
facet normal -1.0 -3.9773857299688266e-17 -0.0
  outer loop
    vertex -16.31923722351654 -0.3957665071112088 1.9999999999999998
    vertex -16.31923722351654 -18.120766507111206 0.0
    vertex -16.31923722351654 -18.120766507111206 1.9999999999999998
  endloop
endfacet
facet normal -1.0 -3.9773857299688266e-17 -0.0
  outer loop
    vertex -16.31923722351654 -18.120766507111206 0.0
    vertex -16.31923722351654 -0.3957665071112088 1.9999999999999998
    vertex -16.31923722351654 -0.3957665071112088 0.0
  endloop
endfacet
facet normal -0.0 -1.0 -0.0
  outer loop
    vertex 15.280762776483446 -41.2457665071112 1.9999999999999998
    vertex 10.680762776483455 -41.2457665071112 0.0
    vertex 15.280762776483446 -41.2457665071112 0.0
  endloop
endfacet
facet normal -0.0 -1.0 -0.0
  outer loop
    vertex 10.680762776483455 -41.2457665071112 0.0
    vertex 15.280762776483446 -41.2457665071112 1.9999999999999998
    vertex 10.680762776483455 -41.2457665071112 1.9999999999999998
  endloop
endfacet
facet normal 0.0 0.0 1.0
  outer loop
    vertex -11.31923722351655 35.854233492888795 1.9999999999999998
    vertex -2.5192372235165434 39.0542334928888 1.9999999999999998
    vertex -11.31923722351655 45.854233492888795 1.9999999999999998
  endloop
endfacet
facet normal 0.0 0.0 1.0
  outer loop
    vertex -2.5192372235165434 39.0542334928888 1.9999999999999998
    vertex -11.31923722351655 35.854233492888795 1.9999999999999998
    vertex 10.280762776483456 36.254233492888794 1.9999999999999998
  endloop
endfacet
facet normal 0.0 0.0 1.0
  outer loop
    vertex -11.31923722351655 45.854233492888795 1.9999999999999998
    vertex -2.5192372235165434 39.0542334928888 1.9999999999999998
    vertex -5.019237223516561 41.05423349288879 1.9999999999999998
  endloop
endfacet
facet normal 0.0 0.0 1.0
  outer loop
    vertex -11.31923722351655 45.854233492888795 1.9999999999999998
    vertex -5.019237223516561 41.05423349288879 1.9999999999999998
    vertex -5.51923722351656 41.55423349288879 1.9999999999999998
  endloop
endfacet
facet normal 0.0 0.0 1.0
  outer loop
    vertex -2.5192372235165434 39.0542334928888 1.9999999999999998
    vertex 10.280762776483456 36.254233492888794 1.9999999999999998
    vertex 1.4807627764834492 39.0542334928888 1.9999999999999998
  endloop
endfacet
facet normal 0.0 0.0 1.0
  outer loop
    vertex 1.4807627764834492 39.0542334928888 1.9999999999999998
    vertex 10.280762776483456 36.254233492888794 1.9999999999999998
    vertex 1.4807627764834492 40.0542334928888 1.9999999999999998
  endloop
endfacet
facet normal 0.0 0.0 1.0
  outer loop
    vertex 1.4807627764834492 40.0542334928888 1.9999999999999998
    vertex 10.280762776483456 36.254233492888794 1.9999999999999998
    vertex 3.980762776483467 41.05423349288879 1.9999999999999998
  endloop
endfacet
facet normal 0.0 0.0 1.0
  outer loop
    vertex 3.980762776483467 41.05423349288879 1.9999999999999998
    vertex 10.280762776483456 36.254233492888794 1.9999999999999998
    vertex 4.480762776483466 41.55423349288879 1.9999999999999998
  endloop
endfacet
facet normal 0.0 0.0 1.0
  outer loop
    vertex 4.480762776483466 41.55423349288879 1.9999999999999998
    vertex 10.280762776483456 36.254233492888794 1.9999999999999998
    vertex 4.480762776483466 42.05423349288879 1.9999999999999998
  endloop
endfacet
facet normal 0.0 0.0 1.0
  outer loop
    vertex 15.280762776483446 36.254233492888794 1.9999999999999998
    vertex 10.280762776483456 45.854233492888795 1.9999999999999998
    vertex 10.280762776483456 36.254233492888794 1.9999999999999998
  endloop
endfacet
facet normal 0.0 0.0 1.0
  outer loop
    vertex 10.280762776483456 45.854233492888795 1.9999999999999998
    vertex 15.280762776483446 36.254233492888794 1.9999999999999998
    vertex 15.280762776483446 45.854233492888795 1.9999999999999998
  endloop
endfacet
facet normal 0.0 0.0 1.0
  outer loop
    vertex -11.31923722351655 45.854233492888795 1.9999999999999998
    vertex -5.51923722351656 42.05423349288879 1.9999999999999998
    vertex -0.31923722351654743 45.854233492888795 1.9999999999999998
  endloop
endfacet
facet normal 0.0 0.0 1.0
  outer loop
    vertex -5.51923722351656 42.05423349288879 1.9999999999999998
    vertex -11.31923722351655 45.854233492888795 1.9999999999999998
    vertex -5.51923722351656 41.55423349288879 1.9999999999999998
  endloop
endfacet
facet normal 0.0 0.0 1.0
  outer loop
    vertex -0.31923722351654743 45.854233492888795 1.9999999999999998
    vertex -5.51923722351656 42.05423349288879 1.9999999999999998
    vertex 4.480762776483466 42.05423349288879 1.9999999999999998
  endloop
endfacet
facet normal 0.0 0.0 1.0
  outer loop
    vertex -0.31923722351654743 45.854233492888795 1.9999999999999998
    vertex 4.480762776483466 42.05423349288879 1.9999999999999998
    vertex -0.31923722351654743 50.85423349288879 1.9999999999999998
  endloop
endfacet
facet normal 0.0 0.0 1.0
  outer loop
    vertex -0.31923722351654743 50.85423349288879 1.9999999999999998
    vertex 4.480762776483466 42.05423349288879 1.9999999999999998
    vertex 10.280762776483456 50.85423349288879 1.9999999999999998
  endloop
endfacet
facet normal 0.0 0.0 1.0
  outer loop
    vertex 10.280762776483456 50.85423349288879 1.9999999999999998
    vertex 4.480762776483466 42.05423349288879 1.9999999999999998
    vertex 10.280762776483456 36.254233492888794 1.9999999999999998
  endloop
endfacet
facet normal 0.0 0.0 1.0
  outer loop
    vertex 10.280762776483456 50.85423349288879 1.9999999999999998
    vertex 10.280762776483456 36.254233492888794 1.9999999999999998
    vertex 10.280762776483456 45.854233492888795 1.9999999999999998
  endloop
endfacet
facet normal 0.0 0.0 1.0
  outer loop
    vertex -5.019237223516561 41.05423349288879 1.9999999999999998
    vertex -2.5192372235165434 40.0542334928888 1.9999999999999998
    vertex 3.980762776483467 41.05423349288879 1.9999999999999998
  endloop
endfacet
facet normal 0.0 0.0 1.0
  outer loop
    vertex -2.5192372235165434 40.0542334928888 1.9999999999999998
    vertex -5.019237223516561 41.05423349288879 1.9999999999999998
    vertex -2.5192372235165434 39.0542334928888 1.9999999999999998
  endloop
endfacet
facet normal 0.0 0.0 1.0
  outer loop
    vertex 3.980762776483467 41.05423349288879 1.9999999999999998
    vertex -2.5192372235165434 40.0542334928888 1.9999999999999998
    vertex -2.0192372235165443 40.0542334928888 1.9999999999999998
  endloop
endfacet
facet normal 0.0 0.0 1.0
  outer loop
    vertex 3.980762776483467 41.05423349288879 1.9999999999999998
    vertex -2.0192372235165443 40.0542334928888 1.9999999999999998
    vertex 1.4807627764834492 40.0542334928888 1.9999999999999998
  endloop
endfacet
facet normal 0.0 -1.0 0.0
  outer loop
    vertex 5.680762776483464 2.2542334928887864 1.9999999999999998
    vertex -6.719237223516536 2.2542334928887864 0.9999999999999999
    vertex 5.680762776483464 2.2542334928887864 0.9999999999999999
  endloop
endfacet
facet normal 0.0 -1.0 0.0
  outer loop
    vertex -6.719237223516536 2.2542334928887864 0.9999999999999999
    vertex 5.680762776483464 2.2542334928887864 1.9999999999999998
    vertex -6.719237223516536 2.2542334928887864 1.9999999999999998
  endloop
endfacet
facet normal 0.0 0.0 1.0
  outer loop
    vertex -11.31923722351655 18.129233492888797 1.9999999999999998
    vertex -16.31923722351654 35.854233492888795 1.9999999999999998
    vertex -16.31923722351654 18.129233492888797 1.9999999999999998
  endloop
endfacet
facet normal 0.0 0.0 1.0
  outer loop
    vertex -16.31923722351654 35.854233492888795 1.9999999999999998
    vertex -11.31923722351655 18.129233492888797 1.9999999999999998
    vertex -11.31923722351655 35.854233492888795 1.9999999999999998
  endloop
endfacet
facet normal 0.8370960922860247 0.018890743972604172 0.546729615140454
  outer loop
    vertex 10.280762776483456 -18.520766507111205 1.9999999999999998
    vertex 6.680762776483462 -32.6457665071112 7.999999999999999
    vertex 10.680762776483455 -36.2457665071112 1.9999999999999998
  endloop
endfacet
facet normal -0.8574929257125443 2.0925267401496893e-17 0.5144957554275265
  outer loop
    vertex -7.719237223516534 32.25423349288879 7.999999999999999
    vertex -11.31923722351655 18.129233492888797 1.9999999999999998
    vertex -7.719237223516534 18.129233492888797 7.999999999999999
  endloop
endfacet
facet normal -0.8574929257125443 2.0925267401496893e-17 0.5144957554275265
  outer loop
    vertex -11.31923722351655 18.129233492888797 1.9999999999999998
    vertex -7.719237223516534 32.25423349288879 7.999999999999999
    vertex -11.31923722351655 35.854233492888795 1.9999999999999998
  endloop
endfacet
facet normal -0.7071067811865476 0.7071067811865476 0.0
  outer loop
    vertex 4.480762776483466 41.55423349288879 1.9999999999999998
    vertex 3.980762776483467 41.05423349288879 0.0
    vertex 3.980762776483467 41.05423349288879 1.9999999999999998
  endloop
endfacet
facet normal -0.7071067811865476 0.7071067811865476 0.0
  outer loop
    vertex 3.980762776483467 41.05423349288879 0.0
    vertex 4.480762776483466 41.55423349288879 1.9999999999999998
    vertex 4.480762776483466 41.55423349288879 0.0
  endloop
endfacet
facet normal 0.0 0.0 1.0
  outer loop
    vertex 15.280762776483446 -41.2457665071112 1.9999999999999998
    vertex 10.680762776483455 -36.2457665071112 1.9999999999999998
    vertex 10.680762776483455 -41.2457665071112 1.9999999999999998
  endloop
endfacet
facet normal 0.0 0.0 1.0
  outer loop
    vertex 10.680762776483455 -36.2457665071112 1.9999999999999998
    vertex 15.280762776483446 -18.520766507111205 1.9999999999999998
    vertex 10.280762776483456 -18.520766507111205 1.9999999999999998
  endloop
endfacet
facet normal 0.0 0.0 1.0
  outer loop
    vertex 15.280762776483446 -18.520766507111205 1.9999999999999998
    vertex 10.680762776483455 -36.2457665071112 1.9999999999999998
    vertex 15.280762776483446 -41.2457665071112 1.9999999999999998
  endloop
endfacet
facet normal -1.0 0.0 0.0
  outer loop
    vertex 10.680762776483455 -36.2457665071112 1.9999999999999998
    vertex 10.680762776483455 -41.2457665071112 0.0
    vertex 10.680762776483455 -41.2457665071112 1.9999999999999998
  endloop
endfacet
facet normal -1.0 0.0 0.0
  outer loop
    vertex 10.680762776483455 -41.2457665071112 0.0
    vertex 10.680762776483455 -36.2457665071112 1.9999999999999998
    vertex 10.680762776483455 -36.2457665071112 0.0
  endloop
endfacet
facet normal -1.0 0.0 0.0
  outer loop
    vertex 5.680762776483464 16.754233492888783 1.9999999999999998
    vertex 5.680762776483464 11.854233492888792 0.9999999999999999
    vertex 5.680762776483464 11.854233492888792 1.9999999999999998
  endloop
endfacet
facet normal -1.0 0.0 0.0
  outer loop
    vertex 5.680762776483464 11.854233492888792 0.9999999999999999
    vertex 5.680762776483464 16.754233492888783 1.9999999999999998
    vertex 5.680762776483464 16.754233492888783 0.9999999999999999
  endloop
endfacet
facet normal 0.0 -1.0 0.0
  outer loop
    vertex 5.680762776483464 -12.24576650711121 7.999999999999999
    vertex -6.719237223516536 -12.24576650711121 1.9999999999999998
    vertex 5.680762776483464 -12.24576650711121 1.9999999999999998
  endloop
endfacet
facet normal 0.0 -1.0 0.0
  outer loop
    vertex -6.719237223516536 -12.24576650711121 1.9999999999999998
    vertex 5.680762776483464 -12.24576650711121 7.999999999999999
    vertex -6.719237223516536 -12.24576650711121 7.999999999999999
  endloop
endfacet
facet normal 0.0 0.0 1.0
  outer loop
    vertex -11.31923722351655 -34.13610494623054 1.9999999999999998
    vertex -6.719237223516536 -31.6457665071112 1.9999999999999998
    vertex -11.31923722351655 -18.120766507111206 1.9999999999999998
  endloop
endfacet
facet normal 0.0 0.0 1.0
  outer loop
    vertex -6.719237223516536 -31.6457665071112 1.9999999999999998
    vertex -11.31923722351655 -34.13610494623054 1.9999999999999998
    vertex -0.7192372235165241 -36.2457665071112 1.9999999999999998
  endloop
endfacet
facet normal 0.0 0.0 1.0
  outer loop
    vertex -11.31923722351655 -18.120766507111206 1.9999999999999998
    vertex -6.719237223516536 -31.6457665071112 1.9999999999999998
    vertex -11.31923722351655 -0.3957665071112088 1.9999999999999998
  endloop
endfacet
facet normal 0.0 0.0 1.0
  outer loop
    vertex -11.31923722351655 -0.3957665071112088 1.9999999999999998
    vertex -6.719237223516536 -31.6457665071112 1.9999999999999998
    vertex -11.31923722351655 18.129233492888797 1.9999999999999998
  endloop
endfacet
facet normal 0.0 0.0 1.0
  outer loop
    vertex -11.31923722351655 18.129233492888797 1.9999999999999998
    vertex -6.719237223516536 -31.6457665071112 1.9999999999999998
    vertex -11.31923722351655 35.854233492888795 1.9999999999999998
  endloop
endfacet
facet normal 0.0 0.0 1.0
  outer loop
    vertex -6.719237223516536 -31.6457665071112 1.9999999999999998
    vertex -0.7192372235165241 -36.2457665071112 1.9999999999999998
    vertex 5.680762776483464 -31.6457665071112 1.9999999999999998
  endloop
endfacet
facet normal 0.0 0.0 1.0
  outer loop
    vertex 5.680762776483464 -31.6457665071112 1.9999999999999998
    vertex -0.7192372235165241 -36.2457665071112 1.9999999999999998
    vertex 10.680762776483455 -36.2457665071112 1.9999999999999998
  endloop
endfacet
facet normal 0.0 0.0 1.0
  outer loop
    vertex 5.680762776483464 -31.6457665071112 1.9999999999999998
    vertex 10.680762776483455 -36.2457665071112 1.9999999999999998
    vertex 5.680762776483464 -26.745766507111206 1.9999999999999998
  endloop
endfacet
facet normal 0.0 0.0 1.0
  outer loop
    vertex 5.680762776483464 -26.745766507111206 1.9999999999999998
    vertex 10.680762776483455 -36.2457665071112 1.9999999999999998
    vertex 5.680762776483464 -17.1457665071112 1.9999999999999998
  endloop
endfacet
facet normal 0.0 0.0 1.0
  outer loop
    vertex 5.680762776483464 -17.1457665071112 1.9999999999999998
    vertex 10.680762776483455 -36.2457665071112 1.9999999999999998
    vertex 5.680762776483464 -12.24576650711121 1.9999999999999998
  endloop
endfacet
facet normal 0.0 0.0 1.0
  outer loop
    vertex 5.680762776483464 -12.24576650711121 1.9999999999999998
    vertex 10.680762776483455 -36.2457665071112 1.9999999999999998
    vertex 5.680762776483464 -2.6457665071112157 1.9999999999999998
  endloop
endfacet
facet normal 0.0 0.0 1.0
  outer loop
    vertex 5.680762776483464 -2.6457665071112157 1.9999999999999998
    vertex 10.680762776483455 -36.2457665071112 1.9999999999999998
    vertex 5.680762776483464 2.2542334928887864 1.9999999999999998
  endloop
endfacet
facet normal 0.0 0.0 1.0
  outer loop
    vertex 5.680762776483464 2.2542334928887864 1.9999999999999998
    vertex 10.680762776483455 -36.2457665071112 1.9999999999999998
    vertex 5.680762776483464 11.854233492888792 1.9999999999999998
  endloop
endfacet
facet normal 0.0 0.0 1.0
  outer loop
    vertex 5.680762776483464 11.854233492888792 1.9999999999999998
    vertex 10.680762776483455 -36.2457665071112 1.9999999999999998
    vertex 5.680762776483464 16.754233492888783 1.9999999999999998
  endloop
endfacet
facet normal 0.0 0.0 1.0
  outer loop
    vertex 5.680762776483464 16.754233492888783 1.9999999999999998
    vertex 10.680762776483455 -36.2457665071112 1.9999999999999998
    vertex 5.680762776483464 26.35423349288879 1.9999999999999998
  endloop
endfacet
facet normal 0.0 0.0 1.0
  outer loop
    vertex 5.680762776483464 26.35423349288879 1.9999999999999998
    vertex 10.680762776483455 -36.2457665071112 1.9999999999999998
    vertex 5.680762776483464 31.25423349288879 1.9999999999999998
  endloop
endfacet
facet normal 0.0 0.0 1.0
  outer loop
    vertex 5.680762776483464 31.25423349288879 1.9999999999999998
    vertex 10.680762776483455 -36.2457665071112 1.9999999999999998
    vertex 10.280762776483456 -18.520766507111205 1.9999999999999998
  endloop
endfacet
facet normal 0.0 0.0 1.0
  outer loop
    vertex -11.31923722351655 35.854233492888795 1.9999999999999998
    vertex -6.719237223516536 31.25423349288879 1.9999999999999998
    vertex 10.280762776483456 36.254233492888794 1.9999999999999998
  endloop
endfacet
facet normal 0.0 0.0 1.0
  outer loop
    vertex -6.719237223516536 31.25423349288879 1.9999999999999998
    vertex -11.31923722351655 35.854233492888795 1.9999999999999998
    vertex -6.719237223516536 -31.6457665071112 1.9999999999999998
  endloop
endfacet
facet normal 0.0 0.0 1.0
  outer loop
    vertex -6.719237223516536 31.25423349288879 1.9999999999999998
    vertex -6.719237223516536 -31.6457665071112 1.9999999999999998
    vertex -6.719237223516536 -26.745766507111206 1.9999999999999998
  endloop
endfacet
facet normal 0.0 0.0 1.0
  outer loop
    vertex -6.719237223516536 31.25423349288879 1.9999999999999998
    vertex -6.719237223516536 -26.745766507111206 1.9999999999999998
    vertex -6.719237223516536 -17.1457665071112 1.9999999999999998
  endloop
endfacet
facet normal 0.0 0.0 1.0
  outer loop
    vertex -6.719237223516536 31.25423349288879 1.9999999999999998
    vertex -6.719237223516536 -17.1457665071112 1.9999999999999998
    vertex -6.719237223516536 -12.24576650711121 1.9999999999999998
  endloop
endfacet
facet normal 0.0 0.0 1.0
  outer loop
    vertex -6.719237223516536 31.25423349288879 1.9999999999999998
    vertex -6.719237223516536 -12.24576650711121 1.9999999999999998
    vertex -6.719237223516536 -2.6457665071112046 1.9999999999999998
  endloop
endfacet
facet normal 0.0 0.0 1.0
  outer loop
    vertex -6.719237223516536 31.25423349288879 1.9999999999999998
    vertex -6.719237223516536 -2.6457665071112046 1.9999999999999998
    vertex -6.719237223516536 2.2542334928887864 1.9999999999999998
  endloop
endfacet
facet normal 0.0 0.0 1.0
  outer loop
    vertex -6.719237223516536 31.25423349288879 1.9999999999999998
    vertex -6.719237223516536 2.2542334928887864 1.9999999999999998
    vertex -6.719237223516536 11.854233492888792 1.9999999999999998
  endloop
endfacet
facet normal 0.0 0.0 1.0
  outer loop
    vertex -6.719237223516536 31.25423349288879 1.9999999999999998
    vertex -6.719237223516536 11.854233492888792 1.9999999999999998
    vertex -6.719237223516536 16.754233492888783 1.9999999999999998
  endloop
endfacet
facet normal 0.0 0.0 1.0
  outer loop
    vertex -6.719237223516536 31.25423349288879 1.9999999999999998
    vertex -6.719237223516536 16.754233492888783 1.9999999999999998
    vertex -6.719237223516536 26.35423349288879 1.9999999999999998
  endloop
endfacet
facet normal 0.0 0.0 1.0
  outer loop
    vertex 10.280762776483456 36.254233492888794 1.9999999999999998
    vertex -6.719237223516536 31.25423349288879 1.9999999999999998
    vertex 5.680762776483464 31.25423349288879 1.9999999999999998
  endloop
endfacet
facet normal 0.0 0.0 1.0
  outer loop
    vertex 10.280762776483456 36.254233492888794 1.9999999999999998
    vertex 5.680762776483464 31.25423349288879 1.9999999999999998
    vertex 10.280762776483456 -18.520766507111205 1.9999999999999998
  endloop
endfacet
facet normal 0.0 0.0 1.0
  outer loop
    vertex 10.280762776483456 36.254233492888794 1.9999999999999998
    vertex 10.280762776483456 -18.520766507111205 1.9999999999999998
    vertex 10.280762776483456 0.0042334928887904685 1.9999999999999998
  endloop
endfacet
facet normal 0.0 0.0 1.0
  outer loop
    vertex 10.280762776483456 36.254233492888794 1.9999999999999998
    vertex 10.280762776483456 0.0042334928887904685 1.9999999999999998
    vertex 10.280762776483456 17.7292334928888 1.9999999999999998
  endloop
endfacet
facet normal 0.0 0.0 1.0
  outer loop
    vertex 5.680762776483464 16.754233492888783 1.9999999999999998
    vertex -6.719237223516536 26.35423349288879 1.9999999999999998
    vertex -6.719237223516536 16.754233492888783 1.9999999999999998
  endloop
endfacet
facet normal 0.0 0.0 1.0
  outer loop
    vertex -6.719237223516536 26.35423349288879 1.9999999999999998
    vertex 5.680762776483464 16.754233492888783 1.9999999999999998
    vertex 5.680762776483464 26.35423349288879 1.9999999999999998
  endloop
endfacet
facet normal 0.0 0.0 1.0
  outer loop
    vertex 5.680762776483464 2.2542334928887864 1.9999999999999998
    vertex -6.719237223516536 11.854233492888792 1.9999999999999998
    vertex -6.719237223516536 2.2542334928887864 1.9999999999999998
  endloop
endfacet
facet normal 0.0 0.0 1.0
  outer loop
    vertex -6.719237223516536 11.854233492888792 1.9999999999999998
    vertex 5.680762776483464 2.2542334928887864 1.9999999999999998
    vertex 5.680762776483464 11.854233492888792 1.9999999999999998
  endloop
endfacet
facet normal 0.0 0.0 1.0
  outer loop
    vertex 5.680762776483464 -12.24576650711121 1.9999999999999998
    vertex -6.719237223516536 -2.6457665071112046 1.9999999999999998
    vertex -6.719237223516536 -12.24576650711121 1.9999999999999998
  endloop
endfacet
facet normal 0.0 0.0 1.0
  outer loop
    vertex -6.719237223516536 -2.6457665071112046 1.9999999999999998
    vertex 5.680762776483464 -12.24576650711121 1.9999999999999998
    vertex 5.680762776483464 -2.6457665071112157 1.9999999999999998
  endloop
endfacet
facet normal 0.0 0.0 1.0
  outer loop
    vertex 5.680762776483464 -26.745766507111206 1.9999999999999998
    vertex -6.719237223516536 -17.1457665071112 1.9999999999999998
    vertex -6.719237223516536 -26.745766507111206 1.9999999999999998
  endloop
endfacet
facet normal 0.0 0.0 1.0
  outer loop
    vertex -6.719237223516536 -17.1457665071112 1.9999999999999998
    vertex 5.680762776483464 -26.745766507111206 1.9999999999999998
    vertex 5.680762776483464 -17.1457665071112 1.9999999999999998
  endloop
endfacet
facet normal 0.0 -1.0 0.0
  outer loop
    vertex 5.680762776483464 16.754233492888783 1.9999999999999998
    vertex -6.719237223516536 16.754233492888783 0.9999999999999999
    vertex 5.680762776483464 16.754233492888783 0.9999999999999999
  endloop
endfacet
facet normal 0.0 -1.0 0.0
  outer loop
    vertex -6.719237223516536 16.754233492888783 0.9999999999999999
    vertex 5.680762776483464 16.754233492888783 1.9999999999999998
    vertex -6.719237223516536 16.754233492888783 1.9999999999999998
  endloop
endfacet
facet normal 1.0 0.0 0.0
  outer loop
    vertex -6.719237223516536 -26.745766507111206 1.9999999999999998
    vertex -6.719237223516536 -31.6457665071112 7.999999999999999
    vertex -6.719237223516536 -31.6457665071112 1.9999999999999998
  endloop
endfacet
facet normal 1.0 0.0 0.0
  outer loop
    vertex -6.719237223516536 -31.6457665071112 7.999999999999999
    vertex -6.719237223516536 -26.745766507111206 1.9999999999999998
    vertex -6.719237223516536 -26.745766507111206 7.999999999999999
  endloop
endfacet
facet normal -1.0 0.0 0.0
  outer loop
    vertex 5.680762776483464 2.2542334928887864 1.9999999999999998
    vertex 5.680762776483464 -2.6457665071112157 0.9999999999999999
    vertex 5.680762776483464 -2.6457665071112157 1.9999999999999998
  endloop
endfacet
facet normal -1.0 0.0 0.0
  outer loop
    vertex 5.680762776483464 -2.6457665071112157 0.9999999999999999
    vertex 5.680762776483464 2.2542334928887864 1.9999999999999998
    vertex 5.680762776483464 2.2542334928887864 0.9999999999999999
  endloop
endfacet
facet normal 0.0 1.0 0.0
  outer loop
    vertex -5.019237223516561 41.05423349288879 1.9999999999999998
    vertex 3.980762776483467 41.05423349288879 0.0
    vertex -5.019237223516561 41.05423349288879 0.0
  endloop
endfacet
facet normal 0.0 1.0 0.0
  outer loop
    vertex 3.980762776483467 41.05423349288879 0.0
    vertex -5.019237223516561 41.05423349288879 1.9999999999999998
    vertex 3.980762776483467 41.05423349288879 1.9999999999999998
  endloop
endfacet
facet normal -1.0 0.0 0.0
  outer loop
    vertex -11.31923722351655 18.129233492888797 1.9999999999999998
    vertex -11.31923722351655 -0.3957665071112088 0.0
    vertex -11.31923722351655 -0.3957665071112088 1.9999999999999998
  endloop
endfacet
facet normal -1.0 0.0 0.0
  outer loop
    vertex -11.31923722351655 -0.3957665071112088 0.0
    vertex -11.31923722351655 18.129233492888797 1.9999999999999998
    vertex -11.31923722351655 18.129233492888797 0.0
  endloop
endfacet
facet normal 0.0 1.0 0.0
  outer loop
    vertex -6.719237223516536 -17.1457665071112 7.999999999999999
    vertex 5.680762776483464 -17.1457665071112 1.9999999999999998
    vertex -6.719237223516536 -17.1457665071112 1.9999999999999998
  endloop
endfacet
facet normal 0.0 1.0 0.0
  outer loop
    vertex 5.680762776483464 -17.1457665071112 1.9999999999999998
    vertex -6.719237223516536 -17.1457665071112 7.999999999999999
    vertex 5.680762776483464 -17.1457665071112 7.999999999999999
  endloop
endfacet
facet normal -0.8574929257125443 -8.445766952029212e-18 0.5144957554275265
  outer loop
    vertex -7.719237223516534 -11.472278014227419 7.999999999999999
    vertex -11.31923722351655 -0.3957665071112088 1.9999999999999998
    vertex -11.31923722351655 -18.120766507111206 1.9999999999999998
  endloop
endfacet
facet normal -0.8574929257125443 -8.445766952029212e-18 0.5144957554275265
  outer loop
    vertex -11.31923722351655 -0.3957665071112088 1.9999999999999998
    vertex -7.719237223516534 -11.472278014227419 7.999999999999999
    vertex -7.719237223516534 2.4888755128422577 7.999999999999999
  endloop
endfacet
facet normal 0.0 1.0 0.0
  outer loop
    vertex -2.5192372235165434 39.0542334928888 1.9999999999999998
    vertex 1.4807627764834492 39.0542334928888 0.0
    vertex -2.5192372235165434 39.0542334928888 0.0
  endloop
endfacet
facet normal 0.0 1.0 0.0
  outer loop
    vertex 1.4807627764834492 39.0542334928888 0.0
    vertex -2.5192372235165434 39.0542334928888 1.9999999999999998
    vertex 1.4807627764834492 39.0542334928888 1.9999999999999998
  endloop
endfacet
facet normal -1.0 -0.0 -0.0
  outer loop
    vertex 1.4807627764834492 40.0542334928888 1.9999999999999998
    vertex 1.4807627764834492 39.0542334928888 0.0
    vertex 1.4807627764834492 39.0542334928888 1.9999999999999998
  endloop
endfacet
facet normal -1.0 -0.0 -0.0
  outer loop
    vertex 1.4807627764834492 39.0542334928888 0.0
    vertex 1.4807627764834492 40.0542334928888 1.9999999999999998
    vertex 1.4807627764834492 40.0542334928888 0.0
  endloop
endfacet
facet normal 0.0 -1.0 0.0
  outer loop
    vertex -2.0192372235165443 40.0542334928888 1.9999999999999998
    vertex -2.5192372235165434 40.0542334928888 0.0
    vertex -2.0192372235165443 40.0542334928888 0.0
  endloop
endfacet
facet normal 0.0 -1.0 0.0
  outer loop
    vertex -2.5192372235165434 40.0542334928888 0.0
    vertex -2.0192372235165443 40.0542334928888 1.9999999999999998
    vertex -2.5192372235165434 40.0542334928888 1.9999999999999998
  endloop
endfacet
facet normal 1.0 0.0 0.0
  outer loop
    vertex -2.5192372235165434 40.0542334928888 0.0
    vertex -2.5192372235165434 39.0542334928888 1.9999999999999998
    vertex -2.5192372235165434 39.0542334928888 0.0
  endloop
endfacet
facet normal 1.0 0.0 0.0
  outer loop
    vertex -2.5192372235165434 39.0542334928888 1.9999999999999998
    vertex -2.5192372235165434 40.0542334928888 0.0
    vertex -2.5192372235165434 40.0542334928888 1.9999999999999998
  endloop
endfacet
facet normal 0.0 -1.0 0.0
  outer loop
    vertex 1.4807627764834492 40.0542334928888 1.9999999999999998
    vertex -2.0192372235165443 40.0542334928888 0.0
    vertex 1.4807627764834492 40.0542334928888 0.0
  endloop
endfacet
facet normal 0.0 -1.0 0.0
  outer loop
    vertex -2.0192372235165443 40.0542334928888 0.0
    vertex 1.4807627764834492 40.0542334928888 1.9999999999999998
    vertex -2.0192372235165443 40.0542334928888 1.9999999999999998
  endloop
endfacet
endsolid Untitled-551f0e79
