solid Untitled-551f0e0f
facet normal 0.7071067811865476 0.7071067811865476 0.0
  outer loop
    vertex -5.150584057696662 40.572599567130816 0.0
    vertex -4.443477276510112 39.86549278594427 1.9999999999999998
    vertex -4.443477276510112 39.86549278594427 0.0
  endloop
endfacet
facet normal 0.7071067811865476 0.7071067811865476 0.0
  outer loop
    vertex -4.443477276510112 39.86549278594427 1.9999999999999998
    vertex -5.150584057696662 40.572599567130816 0.0
    vertex -5.150584057696662 40.572599567130816 1.9999999999999998
  endloop
endfacet
facet normal 0.0 1.0 0.0
  outer loop
    vertex -15.950584057696664 -1.8774004328691667 1.9999999999999998
    vertex -10.950584057696663 -1.8774004328691667 0.0
    vertex -15.950584057696664 -1.8774004328691667 0.0
  endloop
endfacet
facet normal 0.0 1.0 0.0
  outer loop
    vertex -10.950584057696663 -1.8774004328691667 0.0
    vertex -15.950584057696664 -1.8774004328691667 1.9999999999999998
    vertex -10.950584057696663 -1.8774004328691667 1.9999999999999998
  endloop
endfacet
facet normal 0.0 0.0 -1.0
  outer loop
    vertex 4.849415942303331 40.572599567130816 0.0
    vertex 3.8494159423033327 38.57259956713082 0.0
    vertex 3.8494159423033327 39.57259956713082 0.0
  endloop
endfacet
facet normal 0.0 0.0 -1.0
  outer loop
    vertex 10.649415942303332 49.37259956713085 0.0
    vertex 0.04941594230333415 44.372599567130834 0.0
    vertex 0.04941594230333415 49.37259956713085 0.0
  endloop
endfacet
facet normal 0.0 0.0 -1.0
  outer loop
    vertex 0.04941594230333415 44.372599567130834 0.0
    vertex 10.649415942303332 49.37259956713085 0.0
    vertex 4.849415942303331 41.572599567130816 0.0
  endloop
endfacet
facet normal 0.0 0.0 -1.0
  outer loop
    vertex 4.849415942303331 41.572599567130816 0.0
    vertex 10.649415942303332 49.37259956713085 0.0
    vertex 4.849415942303331 40.572599567130816 0.0
  endloop
endfacet
facet normal 0.0 0.0 -1.0
  outer loop
    vertex 15.649415942303333 44.372599567130834 0.0
    vertex 10.649415942303332 34.772599567130825 0.0
    vertex 10.649415942303332 44.372599567130834 0.0
  endloop
endfacet
facet normal 0.0 0.0 -1.0
  outer loop
    vertex 10.649415942303332 34.772599567130825 0.0
    vertex 15.649415942303333 44.372599567130834 0.0
    vertex 15.649415942303333 34.772599567130825 0.0
  endloop
endfacet
facet normal 0.0 0.0 -1.0
  outer loop
    vertex 15.649415942303333 16.247599567130845 0.0
    vertex 10.649415942303332 -1.4774004328691672 0.0
    vertex 10.649415942303332 16.247599567130845 0.0
  endloop
endfacet
facet normal 0.0 0.0 -1.0
  outer loop
    vertex 10.649415942303332 -1.4774004328691672 0.0
    vertex 15.649415942303333 16.247599567130845 0.0
    vertex 15.649415942303333 -1.4774004328691672 0.0
  endloop
endfacet
facet normal 0.0 0.0 -1.0
  outer loop
    vertex 3.8494159423033327 38.57259956713082 0.0
    vertex -0.35058405769665946 -37.72740043286916 0.0
    vertex -4.150584057696664 38.57259956713082 0.0
  endloop
endfacet
facet normal 0.0 0.0 -1.0
  outer loop
    vertex -0.35058405769665946 -37.72740043286916 0.0
    vertex 3.8494159423033327 38.57259956713082 0.0
    vertex 11.04941594230333 -37.72740043286916 0.0
  endloop
endfacet
facet normal 0.0 0.0 -1.0
  outer loop
    vertex 11.04941594230333 -37.72740043286916 0.0
    vertex 3.8494159423033327 38.57259956713082 0.0
    vertex 4.849415942303331 40.572599567130816 0.0
  endloop
endfacet
facet normal 0.0 0.0 -1.0
  outer loop
    vertex 11.04941594230333 -37.72740043286916 0.0
    vertex 4.849415942303331 40.572599567130816 0.0
    vertex 10.649415942303332 -20.002400432869166 0.0
  endloop
endfacet
facet normal 0.0 0.0 -1.0
  outer loop
    vertex 10.649415942303332 -20.002400432869166 0.0
    vertex 4.849415942303331 40.572599567130816 0.0
    vertex 10.649415942303332 49.37259956713085 0.0
  endloop
endfacet
facet normal 0.0 0.0 -1.0
  outer loop
    vertex 10.649415942303332 -20.002400432869166 0.0
    vertex 10.649415942303332 49.37259956713085 0.0
    vertex 10.649415942303332 44.372599567130834 0.0
  endloop
endfacet
facet normal 0.0 0.0 -1.0
  outer loop
    vertex 10.649415942303332 -20.002400432869166 0.0
    vertex 10.649415942303332 44.372599567130834 0.0
    vertex 10.649415942303332 34.772599567130825 0.0
  endloop
endfacet
facet normal 0.0 0.0 -1.0
  outer loop
    vertex 10.649415942303332 -20.002400432869166 0.0
    vertex 10.649415942303332 34.772599567130825 0.0
    vertex 10.649415942303332 16.247599567130845 0.0
  endloop
endfacet
facet normal 0.0 0.0 -1.0
  outer loop
    vertex 10.649415942303332 -20.002400432869166 0.0
    vertex 10.649415942303332 16.247599567130845 0.0
    vertex 10.649415942303332 -1.4774004328691672 0.0
  endloop
endfacet
facet normal 0.0 0.0 -1.0
  outer loop
    vertex 11.04941594230333 -37.72740043286916 0.0
    vertex 10.649415942303332 -20.002400432869166 0.0
    vertex 15.649415942303333 -20.002400432869166 0.0
  endloop
endfacet
facet normal 0.0 0.0 -1.0
  outer loop
    vertex 11.04941594230333 -37.72740043286916 0.0
    vertex 15.649415942303333 -20.002400432869166 0.0
    vertex 11.04941594230333 -42.72740043286917 0.0
  endloop
endfacet
facet normal 0.0 0.0 -1.0
  outer loop
    vertex 11.04941594230333 -42.72740043286917 0.0
    vertex 15.649415942303333 -20.002400432869166 0.0
    vertex 15.649415942303333 -42.72740043286917 0.0
  endloop
endfacet
facet normal 0.0 0.0 -1.0
  outer loop
    vertex -10.950584057696663 44.372599567130834 0.0
    vertex -5.150584057696662 41.572599567130816 0.0
    vertex -10.950584057696663 34.37259956713083 0.0
  endloop
endfacet
facet normal 0.0 0.0 -1.0
  outer loop
    vertex -5.150584057696662 41.572599567130816 0.0
    vertex -10.950584057696663 44.372599567130834 0.0
    vertex 0.04941594230333415 44.372599567130834 0.0
  endloop
endfacet
facet normal 0.0 0.0 -1.0
  outer loop
    vertex -10.950584057696663 34.37259956713083 0.0
    vertex -5.150584057696662 41.572599567130816 0.0
    vertex -10.950584057696663 16.647599567130843 0.0
  endloop
endfacet
facet normal 0.0 0.0 -1.0
  outer loop
    vertex -10.950584057696663 16.647599567130843 0.0
    vertex -5.150584057696662 41.572599567130816 0.0
    vertex -10.950584057696663 -1.8774004328691667 0.0
  endloop
endfacet
facet normal 0.0 0.0 -1.0
  outer loop
    vertex -10.950584057696663 -1.8774004328691667 0.0
    vertex -5.150584057696662 41.572599567130816 0.0
    vertex -10.950584057696663 -19.602400432869167 0.0
  endloop
endfacet
facet normal 0.0 0.0 -1.0
  outer loop
    vertex -10.950584057696663 -19.602400432869167 0.0
    vertex -5.150584057696662 41.572599567130816 0.0
    vertex -10.950584057696663 -42.72740043286917 0.0
  endloop
endfacet
facet normal 0.0 0.0 -1.0
  outer loop
    vertex -5.150584057696662 41.572599567130816 0.0
    vertex 0.04941594230333415 44.372599567130834 0.0
    vertex 4.849415942303331 41.572599567130816 0.0
  endloop
endfacet
facet normal 0.0 0.0 -1.0
  outer loop
    vertex -10.950584057696663 -42.72740043286917 0.0
    vertex -5.150584057696662 40.572599567130816 0.0
    vertex -0.35058405769665946 -42.72740043286917 0.0
  endloop
endfacet
facet normal 0.0 0.0 -1.0
  outer loop
    vertex -5.150584057696662 40.572599567130816 0.0
    vertex -10.950584057696663 -42.72740043286917 0.0
    vertex -5.150584057696662 41.572599567130816 0.0
  endloop
endfacet
facet normal 0.0 0.0 -1.0
  outer loop
    vertex -0.35058405769665946 -42.72740043286917 0.0
    vertex -5.150584057696662 40.572599567130816 0.0
    vertex -4.443477276510112 39.86549278594427 0.0
  endloop
endfacet
facet normal 0.0 0.0 -1.0
  outer loop
    vertex -0.35058405769665946 -42.72740043286917 0.0
    vertex -4.443477276510112 39.86549278594427 0.0
    vertex -4.150584057696664 38.57259956713082 0.0
  endloop
endfacet
facet normal 0.0 0.0 -1.0
  outer loop
    vertex -4.150584057696664 38.57259956713082 0.0
    vertex -4.443477276510112 39.86549278594427 0.0
    vertex -4.150584057696664 39.57259956713082 0.0
  endloop
endfacet
facet normal 0.0 0.0 -1.0
  outer loop
    vertex -0.35058405769665946 -42.72740043286917 0.0
    vertex -4.150584057696664 38.57259956713082 0.0
    vertex -0.35058405769665946 -37.72740043286916 0.0
  endloop
endfacet
facet normal 0.0 0.0 -1.0
  outer loop
    vertex -10.950584057696663 -1.8774004328691667 0.0
    vertex -15.950584057696664 -19.602400432869167 0.0
    vertex -15.950584057696664 -1.8774004328691667 0.0
  endloop
endfacet
facet normal 0.0 0.0 -1.0
  outer loop
    vertex -15.950584057696664 -19.602400432869167 0.0
    vertex -10.950584057696663 -1.8774004328691667 0.0
    vertex -10.950584057696663 -19.602400432869167 0.0
  endloop
endfacet
facet normal 0.0 0.0 -1.0
  outer loop
    vertex -10.950584057696663 34.37259956713083 0.0
    vertex -15.950584057696664 16.647599567130843 0.0
    vertex -15.950584057696664 34.37259956713083 0.0
  endloop
endfacet
facet normal 0.0 0.0 -1.0
  outer loop
    vertex -15.950584057696664 16.647599567130843 0.0
    vertex -10.950584057696663 34.37259956713083 0.0
    vertex -10.950584057696663 16.647599567130843 0.0
  endloop
endfacet
facet normal 1.0 0.0 0.0
  outer loop
    vertex -5.150584057696662 41.572599567130816 0.0
    vertex -5.150584057696662 40.572599567130816 1.9999999999999998
    vertex -5.150584057696662 40.572599567130816 0.0
  endloop
endfacet
facet normal 1.0 0.0 0.0
  outer loop
    vertex -5.150584057696662 40.572599567130816 1.9999999999999998
    vertex -5.150584057696662 41.572599567130816 0.0
    vertex -5.150584057696662 41.572599567130816 1.9999999999999998
  endloop
endfacet
facet normal 0.0 -1.0 0.0
  outer loop
    vertex 4.849415942303331 41.572599567130816 1.9999999999999998
    vertex -5.150584057696662 41.572599567130816 0.0
    vertex 4.849415942303331 41.572599567130816 0.0
  endloop
endfacet
facet normal 0.0 -1.0 0.0
  outer loop
    vertex -5.150584057696662 41.572599567130816 0.0
    vertex 4.849415942303331 41.572599567130816 1.9999999999999998
    vertex -5.150584057696662 41.572599567130816 1.9999999999999998
  endloop
endfacet
facet normal 0.0 1.0 0.0
  outer loop
    vertex 0.04941594230333415 49.37259956713085 1.9999999999999998
    vertex 10.649415942303332 49.37259956713085 0.0
    vertex 0.04941594230333415 49.37259956713085 0.0
  endloop
endfacet
facet normal 0.0 1.0 0.0
  outer loop
    vertex 10.649415942303332 49.37259956713085 0.0
    vertex 0.04941594230333415 49.37259956713085 1.9999999999999998
    vertex 10.649415942303332 49.37259956713085 1.9999999999999998
  endloop
endfacet
facet normal 1.0 0.0 0.0
  outer loop
    vertex -6.350584057696666 -13.727400432869173 1.9999999999999998
    vertex -6.350584057696666 -18.62740043286916 7.999999999999999
    vertex -6.350584057696666 -18.62740043286916 1.9999999999999998
  endloop
endfacet
facet normal 1.0 0.0 0.0
  outer loop
    vertex -6.350584057696666 -18.62740043286916 7.999999999999999
    vertex -6.350584057696666 -13.727400432869173 1.9999999999999998
    vertex -6.350584057696666 -13.727400432869173 7.999999999999999
  endloop
endfacet
facet normal 0.0 1.0 0.0
  outer loop
    vertex -6.350584057696666 -18.62740043286916 7.999999999999999
    vertex 6.04941594230334 -18.62740043286916 1.9999999999999998
    vertex -6.350584057696666 -18.62740043286916 1.9999999999999998
  endloop
endfacet
facet normal 0.0 1.0 0.0
  outer loop
    vertex 6.04941594230334 -18.62740043286916 1.9999999999999998
    vertex -6.350584057696666 -18.62740043286916 7.999999999999999
    vertex 6.04941594230334 -18.62740043286916 7.999999999999999
  endloop
endfacet
facet normal 0.0 0.0 1.0
  outer loop
    vertex 15.649415942303333 -42.72740043286917 1.9999999999999998
    vertex 11.04941594230333 -37.72740043286916 1.9999999999999998
    vertex 11.04941594230333 -42.72740043286917 1.9999999999999998
  endloop
endfacet
facet normal 0.0 0.0 1.0
  outer loop
    vertex 11.04941594230333 -37.72740043286916 1.9999999999999998
    vertex 15.649415942303333 -20.002400432869166 1.9999999999999998
    vertex 10.649415942303332 -20.002400432869166 1.9999999999999998
  endloop
endfacet
facet normal 0.0 0.0 1.0
  outer loop
    vertex 15.649415942303333 -20.002400432869166 1.9999999999999998
    vertex 11.04941594230333 -37.72740043286916 1.9999999999999998
    vertex 15.649415942303333 -42.72740043286917 1.9999999999999998
  endloop
endfacet
facet normal 1.0 0.0 0.0
  outer loop
    vertex -6.350584057696666 -28.227400432869167 1.9999999999999998
    vertex -6.350584057696666 -33.127400432869166 7.999999999999999
    vertex -6.350584057696666 -33.127400432869166 1.9999999999999998
  endloop
endfacet
facet normal 1.0 0.0 0.0
  outer loop
    vertex -6.350584057696666 -33.127400432869166 7.999999999999999
    vertex -6.350584057696666 -28.227400432869167 1.9999999999999998
    vertex -6.350584057696666 -28.227400432869167 7.999999999999999
  endloop
endfacet
facet normal -1.0 0.0 0.0
  outer loop
    vertex 6.04941594230334 0.7725995671308172 1.9999999999999998
    vertex 6.04941594230334 -4.127400432869174 0.9999999999999999
    vertex 6.04941594230334 -4.127400432869174 1.9999999999999998
  endloop
endfacet
facet normal -1.0 0.0 0.0
  outer loop
    vertex 6.04941594230334 -4.127400432869174 0.9999999999999999
    vertex 6.04941594230334 0.7725995671308172 1.9999999999999998
    vertex 6.04941594230334 0.7725995671308172 0.9999999999999999
  endloop
endfacet
facet normal 0.0 0.0 1.0
  outer loop
    vertex -10.950584057696663 16.647599567130843 1.9999999999999998
    vertex -15.950584057696664 34.37259956713083 1.9999999999999998
    vertex -15.950584057696664 16.647599567130843 1.9999999999999998
  endloop
endfacet
facet normal 0.0 0.0 1.0
  outer loop
    vertex -15.950584057696664 34.37259956713083 1.9999999999999998
    vertex -10.950584057696663 16.647599567130843 1.9999999999999998
    vertex -10.950584057696663 34.37259956713083 1.9999999999999998
  endloop
endfacet
facet normal -1.0 -0.0 -0.0
  outer loop
    vertex 4.849415942303331 41.572599567130816 1.9999999999999998
    vertex 4.849415942303331 40.572599567130816 0.0
    vertex 4.849415942303331 40.572599567130816 1.9999999999999998
  endloop
endfacet
facet normal -1.0 -0.0 -0.0
  outer loop
    vertex 4.849415942303331 40.572599567130816 0.0
    vertex 4.849415942303331 41.572599567130816 1.9999999999999998
    vertex 4.849415942303331 41.572599567130816 0.0
  endloop
endfacet
facet normal -0.0 -1.0 -0.0
  outer loop
    vertex 15.649415942303333 -42.72740043286917 1.9999999999999998
    vertex 11.04941594230333 -42.72740043286917 0.0
    vertex 15.649415942303333 -42.72740043286917 0.0
  endloop
endfacet
facet normal -0.0 -1.0 -0.0
  outer loop
    vertex 11.04941594230333 -42.72740043286917 0.0
    vertex 15.649415942303333 -42.72740043286917 1.9999999999999998
    vertex 11.04941594230333 -42.72740043286917 1.9999999999999998
  endloop
endfacet
facet normal -0.7071067811865476 0.7071067811865476 0.0
  outer loop
    vertex 4.849415942303331 40.572599567130816 1.9999999999999998
    vertex 3.8494159423033327 39.57259956713082 0.0
    vertex 3.8494159423033327 39.57259956713082 1.9999999999999998
  endloop
endfacet
facet normal -0.7071067811865476 0.7071067811865476 0.0
  outer loop
    vertex 3.8494159423033327 39.57259956713082 0.0
    vertex 4.849415942303331 40.572599567130816 1.9999999999999998
    vertex 4.849415942303331 40.572599567130816 0.0
  endloop
endfacet
facet normal -1.0 -0.0 -0.0
  outer loop
    vertex 3.8494159423033327 39.57259956713082 1.9999999999999998
    vertex 3.8494159423033327 38.57259956713082 0.0
    vertex 3.8494159423033327 38.57259956713082 1.9999999999999998
  endloop
endfacet
facet normal -1.0 -0.0 -0.0
  outer loop
    vertex 3.8494159423033327 38.57259956713082 0.0
    vertex 3.8494159423033327 39.57259956713082 1.9999999999999998
    vertex 3.8494159423033327 39.57259956713082 0.0
  endloop
endfacet
facet normal 0.0 1.0 0.0
  outer loop
    vertex -4.150584057696664 38.57259956713082 1.9999999999999998
    vertex 3.8494159423033327 38.57259956713082 0.0
    vertex -4.150584057696664 38.57259956713082 0.0
  endloop
endfacet
facet normal 0.0 1.0 0.0
  outer loop
    vertex 3.8494159423033327 38.57259956713082 0.0
    vertex -4.150584057696664 38.57259956713082 1.9999999999999998
    vertex 3.8494159423033327 38.57259956713082 1.9999999999999998
  endloop
endfacet
facet normal 0.0 1.0 0.0
  outer loop
    vertex -6.350584057696666 -33.127400432869166 7.999999999999999
    vertex 6.04941594230334 -33.127400432869166 1.9999999999999998
    vertex -6.350584057696666 -33.127400432869166 1.9999999999999998
  endloop
endfacet
facet normal 0.0 1.0 0.0
  outer loop
    vertex 6.04941594230334 -33.127400432869166 1.9999999999999998
    vertex -6.350584057696666 -33.127400432869166 7.999999999999999
    vertex 6.04941594230334 -33.127400432869166 7.999999999999999
  endloop
endfacet
facet normal 0.0 -1.0 0.0
  outer loop
    vertex 6.04941594230334 -13.727400432869173 7.999999999999999
    vertex -6.350584057696666 -13.727400432869173 1.9999999999999998
    vertex 6.04941594230334 -13.727400432869173 1.9999999999999998
  endloop
endfacet
facet normal 0.0 -1.0 0.0
  outer loop
    vertex -6.350584057696666 -13.727400432869173 1.9999999999999998
    vertex 6.04941594230334 -13.727400432869173 7.999999999999999
    vertex -6.350584057696666 -13.727400432869173 7.999999999999999
  endloop
endfacet
facet normal -1.0 0.0 0.0
  outer loop
    vertex 11.04941594230333 -37.72740043286916 1.9999999999999998
    vertex 11.04941594230333 -42.72740043286917 0.0
    vertex 11.04941594230333 -42.72740043286917 1.9999999999999998
  endloop
endfacet
facet normal -1.0 0.0 0.0
  outer loop
    vertex 11.04941594230333 -42.72740043286917 0.0
    vertex 11.04941594230333 -37.72740043286916 1.9999999999999998
    vertex 11.04941594230333 -37.72740043286916 0.0
  endloop
endfacet
facet normal -0.0 -1.0 -0.0
  outer loop
    vertex 11.04941594230333 -37.72740043286916 1.9999999999999998
    vertex -0.35058405769665946 -37.72740043286916 0.0
    vertex 11.04941594230333 -37.72740043286916 0.0
  endloop
endfacet
facet normal -0.0 -1.0 -0.0
  outer loop
    vertex -0.35058405769665946 -37.72740043286916 0.0
    vertex 11.04941594230333 -37.72740043286916 1.9999999999999998
    vertex -0.35058405769665946 -37.72740043286916 1.9999999999999998
  endloop
endfacet
facet normal -0.0 -1.0 -0.0
  outer loop
    vertex -10.950584057696663 -19.602400432869167 1.9999999999999998
    vertex -15.950584057696664 -19.602400432869167 0.0
    vertex -10.950584057696663 -19.602400432869167 0.0
  endloop
endfacet
facet normal -0.0 -1.0 -0.0
  outer loop
    vertex -15.950584057696664 -19.602400432869167 0.0
    vertex -10.950584057696663 -19.602400432869167 1.9999999999999998
    vertex -15.950584057696664 -19.602400432869167 1.9999999999999998
  endloop
endfacet
facet normal 1.0 0.0 0.0
  outer loop
    vertex 10.649415942303332 -1.4774004328691672 0.0
    vertex 10.649415942303332 -20.002400432869166 1.9999999999999998
    vertex 10.649415942303332 -20.002400432869166 0.0
  endloop
endfacet
facet normal 1.0 0.0 0.0
  outer loop
    vertex 10.649415942303332 -20.002400432869166 1.9999999999999998
    vertex 10.649415942303332 -1.4774004328691672 0.0
    vertex 10.649415942303332 -1.4774004328691672 1.9999999999999998
  endloop
endfacet
facet normal -1.0 0.0 0.0
  outer loop
    vertex 0.04941594230333415 49.37259956713085 1.9999999999999998
    vertex 0.04941594230333415 44.372599567130834 0.0
    vertex 0.04941594230333415 44.372599567130834 1.9999999999999998
  endloop
endfacet
facet normal -1.0 0.0 0.0
  outer loop
    vertex 0.04941594230333415 44.372599567130834 0.0
    vertex 0.04941594230333415 49.37259956713085 1.9999999999999998
    vertex 0.04941594230333415 49.37259956713085 0.0
  endloop
endfacet
facet normal 0.0 -1.0 0.0
  outer loop
    vertex 15.649415942303333 34.772599567130825 1.9999999999999998
    vertex 10.649415942303332 34.772599567130825 0.0
    vertex 15.649415942303333 34.772599567130825 0.0
  endloop
endfacet
facet normal 0.0 -1.0 0.0
  outer loop
    vertex 10.649415942303332 34.772599567130825 0.0
    vertex 15.649415942303333 34.772599567130825 1.9999999999999998
    vertex 10.649415942303332 34.772599567130825 1.9999999999999998
  endloop
endfacet
facet normal -1.0 0.0 0.0
  outer loop
    vertex -10.950584057696663 16.647599567130843 1.9999999999999998
    vertex -10.950584057696663 -1.8774004328691667 0.0
    vertex -10.950584057696663 -1.8774004328691667 1.9999999999999998
  endloop
endfacet
facet normal -1.0 0.0 0.0
  outer loop
    vertex -10.950584057696663 -1.8774004328691667 0.0
    vertex -10.950584057696663 16.647599567130843 1.9999999999999998
    vertex -10.950584057696663 16.647599567130843 0.0
  endloop
endfacet
facet normal -1.0 -0.0 -0.0
  outer loop
    vertex 6.04941594230334 -28.227400432869167 7.999999999999999
    vertex 6.04941594230334 -33.127400432869166 1.9999999999999998
    vertex 6.04941594230334 -33.127400432869166 7.999999999999999
  endloop
endfacet
facet normal -1.0 -0.0 -0.0
  outer loop
    vertex 6.04941594230334 -33.127400432869166 1.9999999999999998
    vertex 6.04941594230334 -28.227400432869167 7.999999999999999
    vertex 6.04941594230334 -28.227400432869167 1.9999999999999998
  endloop
endfacet
facet normal -1.0 0.0 0.0
  outer loop
    vertex 6.04941594230334 -13.727400432869173 1.9999999999999998
    vertex 6.04941594230334 -18.62740043286916 0.9999999999999999
    vertex 6.04941594230334 -18.62740043286916 1.9999999999999998
  endloop
endfacet
facet normal -1.0 0.0 0.0
  outer loop
    vertex 6.04941594230334 -18.62740043286916 0.9999999999999999
    vertex 6.04941594230334 -13.727400432869173 1.9999999999999998
    vertex 6.04941594230334 -13.727400432869173 0.9999999999999999
  endloop
endfacet
facet normal 1.0 0.0 0.0
  outer loop
    vertex -6.350584057696666 29.772599567130836 0.9999999999999999
    vertex -6.350584057696666 24.872599567130823 1.9999999999999998
    vertex -6.350584057696666 24.872599567130823 0.9999999999999999
  endloop
endfacet
facet normal 1.0 0.0 0.0
  outer loop
    vertex -6.350584057696666 24.872599567130823 1.9999999999999998
    vertex -6.350584057696666 29.772599567130836 0.9999999999999999
    vertex -6.350584057696666 29.772599567130836 1.9999999999999998
  endloop
endfacet
facet normal -1.0 0.0 0.0
  outer loop
    vertex 6.04941594230334 15.272599567130818 1.9999999999999998
    vertex 6.04941594230334 10.372599567130829 0.9999999999999999
    vertex 6.04941594230334 10.372599567130829 1.9999999999999998
  endloop
endfacet
facet normal -1.0 0.0 0.0
  outer loop
    vertex 6.04941594230334 10.372599567130829 0.9999999999999999
    vertex 6.04941594230334 15.272599567130818 1.9999999999999998
    vertex 6.04941594230334 15.272599567130818 0.9999999999999999
  endloop
endfacet
facet normal 1.0 0.0 0.0
  outer loop
    vertex -0.35058405769665946 -37.72740043286916 0.0
    vertex -0.35058405769665946 -42.72740043286917 1.9999999999999998
    vertex -0.35058405769665946 -42.72740043286917 0.0
  endloop
endfacet
facet normal 1.0 0.0 0.0
  outer loop
    vertex -0.35058405769665946 -42.72740043286917 1.9999999999999998
    vertex -0.35058405769665946 -37.72740043286916 0.0
    vertex -0.35058405769665946 -37.72740043286916 1.9999999999999998
  endloop
endfacet
facet normal -0.8574929257125443 -8.445766952029212e-18 0.5144957554275265
  outer loop
    vertex -7.350584057696669 -12.953911939985383 7.999999999999999
    vertex -10.950584057696663 -1.8774004328691667 1.9999999999999998
    vertex -10.950584057696663 -19.602400432869167 1.9999999999999998
  endloop
endfacet
facet normal -0.8574929257125443 -8.445766952029212e-18 0.5144957554275265
  outer loop
    vertex -10.950584057696663 -1.8774004328691667 1.9999999999999998
    vertex -7.350584057696669 -12.953911939985383 7.999999999999999
    vertex -7.350584057696669 1.0072415870843 7.999999999999999
  endloop
endfacet
facet normal 1.0 0.0 0.0
  outer loop
    vertex 10.649415942303332 49.37259956713085 0.0
    vertex 10.649415942303332 44.372599567130834 1.9999999999999998
    vertex 10.649415942303332 44.372599567130834 0.0
  endloop
endfacet
facet normal 1.0 0.0 0.0
  outer loop
    vertex 10.649415942303332 44.372599567130834 1.9999999999999998
    vertex 10.649415942303332 49.37259956713085 0.0
    vertex 10.649415942303332 49.37259956713085 1.9999999999999998
  endloop
endfacet
facet normal 0.0 -1.0 0.0
  outer loop
    vertex 6.04941594230334 15.272599567130818 1.9999999999999998
    vertex -6.350584057696666 15.272599567130818 0.9999999999999999
    vertex 6.04941594230334 15.272599567130818 0.9999999999999999
  endloop
endfacet
facet normal 0.0 -1.0 0.0
  outer loop
    vertex -6.350584057696666 15.272599567130818 0.9999999999999999
    vertex 6.04941594230334 15.272599567130818 1.9999999999999998
    vertex -6.350584057696666 15.272599567130818 1.9999999999999998
  endloop
endfacet
facet normal 0.0 -1.0 0.0
  outer loop
    vertex 6.04941594230334 0.7725995671308172 1.9999999999999998
    vertex -6.350584057696666 0.7725995671308172 0.9999999999999999
    vertex 6.04941594230334 0.7725995671308172 0.9999999999999999
  endloop
endfacet
facet normal 0.0 -1.0 0.0
  outer loop
    vertex -6.350584057696666 0.7725995671308172 0.9999999999999999
    vertex 6.04941594230334 0.7725995671308172 1.9999999999999998
    vertex -6.350584057696666 0.7725995671308172 1.9999999999999998
  endloop
endfacet
facet normal -0.8574929257125443 2.0925267401496893e-17 0.5144957554275265
  outer loop
    vertex -7.350584057696669 30.772599567130836 7.999999999999999
    vertex -10.950584057696663 16.647599567130843 1.9999999999999998
    vertex -7.350584057696669 16.647599567130843 7.999999999999999
  endloop
endfacet
facet normal -0.8574929257125443 2.0925267401496893e-17 0.5144957554275265
  outer loop
    vertex -10.950584057696663 16.647599567130843 1.9999999999999998
    vertex -7.350584057696669 30.772599567130836 7.999999999999999
    vertex -10.950584057696663 34.37259956713083 1.9999999999999998
  endloop
endfacet
facet normal 0.0 0.0 1.0
  outer loop
    vertex -0.35058405769665946 -42.72740043286917 1.9999999999999998
    vertex -10.950584057696663 -35.61773887198851 1.9999999999999998
    vertex -10.950584057696663 -42.72740043286917 1.9999999999999998
  endloop
endfacet
facet normal 0.0 0.0 1.0
  outer loop
    vertex -10.950584057696663 -35.61773887198851 1.9999999999999998
    vertex -0.35058405769665946 -42.72740043286917 1.9999999999999998
    vertex -0.35058405769665946 -37.72740043286916 1.9999999999999998
  endloop
endfacet
facet normal 0.8370960922860247 0.018890743972604172 0.546729615140454
  outer loop
    vertex 10.649415942303332 -20.002400432869166 1.9999999999999998
    vertex 7.049415942303338 -34.127400432869166 7.999999999999999
    vertex 11.04941594230333 -37.72740043286916 1.9999999999999998
  endloop
endfacet
facet normal 0.0 0.0 1.0
  outer loop
    vertex -10.950584057696663 -35.61773887198851 1.9999999999999998
    vertex -6.350584057696666 -33.127400432869166 1.9999999999999998
    vertex -10.950584057696663 -19.602400432869167 1.9999999999999998
  endloop
endfacet
facet normal 0.0 0.0 1.0
  outer loop
    vertex -6.350584057696666 -33.127400432869166 1.9999999999999998
    vertex -10.950584057696663 -35.61773887198851 1.9999999999999998
    vertex -0.35058405769665946 -37.72740043286916 1.9999999999999998
  endloop
endfacet
facet normal 0.0 0.0 1.0
  outer loop
    vertex -10.950584057696663 -19.602400432869167 1.9999999999999998
    vertex -6.350584057696666 -33.127400432869166 1.9999999999999998
    vertex -10.950584057696663 -1.8774004328691667 1.9999999999999998
  endloop
endfacet
facet normal 0.0 0.0 1.0
  outer loop
    vertex -10.950584057696663 -1.8774004328691667 1.9999999999999998
    vertex -6.350584057696666 -33.127400432869166 1.9999999999999998
    vertex -10.950584057696663 16.647599567130843 1.9999999999999998
  endloop
endfacet
facet normal 0.0 0.0 1.0
  outer loop
    vertex -10.950584057696663 16.647599567130843 1.9999999999999998
    vertex -6.350584057696666 -33.127400432869166 1.9999999999999998
    vertex -10.950584057696663 34.37259956713083 1.9999999999999998
  endloop
endfacet
facet normal 0.0 0.0 1.0
  outer loop
    vertex -6.350584057696666 -33.127400432869166 1.9999999999999998
    vertex -0.35058405769665946 -37.72740043286916 1.9999999999999998
    vertex 6.04941594230334 -33.127400432869166 1.9999999999999998
  endloop
endfacet
facet normal 0.0 0.0 1.0
  outer loop
    vertex 6.04941594230334 -33.127400432869166 1.9999999999999998
    vertex -0.35058405769665946 -37.72740043286916 1.9999999999999998
    vertex 11.04941594230333 -37.72740043286916 1.9999999999999998
  endloop
endfacet
facet normal 0.0 0.0 1.0
  outer loop
    vertex 6.04941594230334 -33.127400432869166 1.9999999999999998
    vertex 11.04941594230333 -37.72740043286916 1.9999999999999998
    vertex 6.04941594230334 -28.227400432869167 1.9999999999999998
  endloop
endfacet
facet normal 0.0 0.0 1.0
  outer loop
    vertex 6.04941594230334 -28.227400432869167 1.9999999999999998
    vertex 11.04941594230333 -37.72740043286916 1.9999999999999998
    vertex 6.04941594230334 -18.62740043286916 1.9999999999999998
  endloop
endfacet
facet normal 0.0 0.0 1.0
  outer loop
    vertex 6.04941594230334 -18.62740043286916 1.9999999999999998
    vertex 11.04941594230333 -37.72740043286916 1.9999999999999998
    vertex 6.04941594230334 -13.727400432869173 1.9999999999999998
  endloop
endfacet
facet normal 0.0 0.0 1.0
  outer loop
    vertex 6.04941594230334 -13.727400432869173 1.9999999999999998
    vertex 11.04941594230333 -37.72740043286916 1.9999999999999998
    vertex 6.04941594230334 -4.127400432869174 1.9999999999999998
  endloop
endfacet
facet normal 0.0 0.0 1.0
  outer loop
    vertex 6.04941594230334 -4.127400432869174 1.9999999999999998
    vertex 11.04941594230333 -37.72740043286916 1.9999999999999998
    vertex 6.04941594230334 0.7725995671308172 1.9999999999999998
  endloop
endfacet
facet normal 0.0 0.0 1.0
  outer loop
    vertex 6.04941594230334 0.7725995671308172 1.9999999999999998
    vertex 11.04941594230333 -37.72740043286916 1.9999999999999998
    vertex 6.04941594230334 10.372599567130829 1.9999999999999998
  endloop
endfacet
facet normal 0.0 0.0 1.0
  outer loop
    vertex 6.04941594230334 10.372599567130829 1.9999999999999998
    vertex 11.04941594230333 -37.72740043286916 1.9999999999999998
    vertex 6.04941594230334 15.272599567130818 1.9999999999999998
  endloop
endfacet
facet normal 0.0 0.0 1.0
  outer loop
    vertex 6.04941594230334 15.272599567130818 1.9999999999999998
    vertex 11.04941594230333 -37.72740043286916 1.9999999999999998
    vertex 6.04941594230334 24.872599567130823 1.9999999999999998
  endloop
endfacet
facet normal 0.0 0.0 1.0
  outer loop
    vertex 6.04941594230334 24.872599567130823 1.9999999999999998
    vertex 11.04941594230333 -37.72740043286916 1.9999999999999998
    vertex 6.04941594230334 29.772599567130836 1.9999999999999998
  endloop
endfacet
facet normal 0.0 0.0 1.0
  outer loop
    vertex 6.04941594230334 29.772599567130836 1.9999999999999998
    vertex 11.04941594230333 -37.72740043286916 1.9999999999999998
    vertex 10.649415942303332 -20.002400432869166 1.9999999999999998
  endloop
endfacet
facet normal 0.0 0.0 1.0
  outer loop
    vertex -10.950584057696663 34.37259956713083 1.9999999999999998
    vertex -6.350584057696666 29.772599567130836 1.9999999999999998
    vertex 10.649415942303332 34.772599567130825 1.9999999999999998
  endloop
endfacet
facet normal 0.0 0.0 1.0
  outer loop
    vertex -6.350584057696666 29.772599567130836 1.9999999999999998
    vertex -10.950584057696663 34.37259956713083 1.9999999999999998
    vertex -6.350584057696666 -33.127400432869166 1.9999999999999998
  endloop
endfacet
facet normal 0.0 0.0 1.0
  outer loop
    vertex -6.350584057696666 29.772599567130836 1.9999999999999998
    vertex -6.350584057696666 -33.127400432869166 1.9999999999999998
    vertex -6.350584057696666 -28.227400432869167 1.9999999999999998
  endloop
endfacet
facet normal 0.0 0.0 1.0
  outer loop
    vertex -6.350584057696666 29.772599567130836 1.9999999999999998
    vertex -6.350584057696666 -28.227400432869167 1.9999999999999998
    vertex -6.350584057696666 -18.62740043286916 1.9999999999999998
  endloop
endfacet
facet normal 0.0 0.0 1.0
  outer loop
    vertex -6.350584057696666 29.772599567130836 1.9999999999999998
    vertex -6.350584057696666 -18.62740043286916 1.9999999999999998
    vertex -6.350584057696666 -13.727400432869173 1.9999999999999998
  endloop
endfacet
facet normal 0.0 0.0 1.0
  outer loop
    vertex -6.350584057696666 29.772599567130836 1.9999999999999998
    vertex -6.350584057696666 -13.727400432869173 1.9999999999999998
    vertex -6.350584057696666 -4.127400432869174 1.9999999999999998
  endloop
endfacet
facet normal 0.0 0.0 1.0
  outer loop
    vertex -6.350584057696666 29.772599567130836 1.9999999999999998
    vertex -6.350584057696666 -4.127400432869174 1.9999999999999998
    vertex -6.350584057696666 0.7725995671308172 1.9999999999999998
  endloop
endfacet
facet normal 0.0 0.0 1.0
  outer loop
    vertex -6.350584057696666 29.772599567130836 1.9999999999999998
    vertex -6.350584057696666 0.7725995671308172 1.9999999999999998
    vertex -6.350584057696666 10.372599567130829 1.9999999999999998
  endloop
endfacet
facet normal 0.0 0.0 1.0
  outer loop
    vertex -6.350584057696666 29.772599567130836 1.9999999999999998
    vertex -6.350584057696666 10.372599567130829 1.9999999999999998
    vertex -6.350584057696666 15.272599567130818 1.9999999999999998
  endloop
endfacet
facet normal 0.0 0.0 1.0
  outer loop
    vertex -6.350584057696666 29.772599567130836 1.9999999999999998
    vertex -6.350584057696666 15.272599567130818 1.9999999999999998
    vertex -6.350584057696666 24.872599567130823 1.9999999999999998
  endloop
endfacet
facet normal 0.0 0.0 1.0
  outer loop
    vertex 10.649415942303332 34.772599567130825 1.9999999999999998
    vertex -6.350584057696666 29.772599567130836 1.9999999999999998
    vertex 6.04941594230334 29.772599567130836 1.9999999999999998
  endloop
endfacet
facet normal 0.0 0.0 1.0
  outer loop
    vertex 10.649415942303332 34.772599567130825 1.9999999999999998
    vertex 6.04941594230334 29.772599567130836 1.9999999999999998
    vertex 10.649415942303332 -20.002400432869166 1.9999999999999998
  endloop
endfacet
facet normal 0.0 0.0 1.0
  outer loop
    vertex 10.649415942303332 34.772599567130825 1.9999999999999998
    vertex 10.649415942303332 -20.002400432869166 1.9999999999999998
    vertex 10.649415942303332 -1.4774004328691672 1.9999999999999998
  endloop
endfacet
facet normal 0.0 0.0 1.0
  outer loop
    vertex 10.649415942303332 34.772599567130825 1.9999999999999998
    vertex 10.649415942303332 -1.4774004328691672 1.9999999999999998
    vertex 10.649415942303332 16.247599567130845 1.9999999999999998
  endloop
endfacet
facet normal 0.0 0.0 1.0
  outer loop
    vertex 6.04941594230334 15.272599567130818 1.9999999999999998
    vertex -6.350584057696666 24.872599567130823 1.9999999999999998
    vertex -6.350584057696666 15.272599567130818 1.9999999999999998
  endloop
endfacet
facet normal 0.0 0.0 1.0
  outer loop
    vertex -6.350584057696666 24.872599567130823 1.9999999999999998
    vertex 6.04941594230334 15.272599567130818 1.9999999999999998
    vertex 6.04941594230334 24.872599567130823 1.9999999999999998
  endloop
endfacet
facet normal 0.0 0.0 1.0
  outer loop
    vertex 6.04941594230334 0.7725995671308172 1.9999999999999998
    vertex -6.350584057696666 10.372599567130829 1.9999999999999998
    vertex -6.350584057696666 0.7725995671308172 1.9999999999999998
  endloop
endfacet
facet normal 0.0 0.0 1.0
  outer loop
    vertex -6.350584057696666 10.372599567130829 1.9999999999999998
    vertex 6.04941594230334 0.7725995671308172 1.9999999999999998
    vertex 6.04941594230334 10.372599567130829 1.9999999999999998
  endloop
endfacet
facet normal 0.0 0.0 1.0
  outer loop
    vertex 6.04941594230334 -13.727400432869173 1.9999999999999998
    vertex -6.350584057696666 -4.127400432869174 1.9999999999999998
    vertex -6.350584057696666 -13.727400432869173 1.9999999999999998
  endloop
endfacet
facet normal 0.0 0.0 1.0
  outer loop
    vertex -6.350584057696666 -4.127400432869174 1.9999999999999998
    vertex 6.04941594230334 -13.727400432869173 1.9999999999999998
    vertex 6.04941594230334 -4.127400432869174 1.9999999999999998
  endloop
endfacet
facet normal 0.0 0.0 1.0
  outer loop
    vertex 6.04941594230334 -28.227400432869167 1.9999999999999998
    vertex -6.350584057696666 -18.62740043286916 1.9999999999999998
    vertex -6.350584057696666 -28.227400432869167 1.9999999999999998
  endloop
endfacet
facet normal 0.0 0.0 1.0
  outer loop
    vertex -6.350584057696666 -18.62740043286916 1.9999999999999998
    vertex 6.04941594230334 -28.227400432869167 1.9999999999999998
    vertex 6.04941594230334 -18.62740043286916 1.9999999999999998
  endloop
endfacet
facet normal -1.0 -0.0 -0.0
  outer loop
    vertex 6.04941594230334 -13.727400432869173 7.999999999999999
    vertex 6.04941594230334 -18.62740043286916 1.9999999999999998
    vertex 6.04941594230334 -18.62740043286916 7.999999999999999
  endloop
endfacet
facet normal -1.0 -0.0 -0.0
  outer loop
    vertex 6.04941594230334 -18.62740043286916 1.9999999999999998
    vertex 6.04941594230334 -13.727400432869173 7.999999999999999
    vertex 6.04941594230334 -13.727400432869173 1.9999999999999998
  endloop
endfacet
facet normal 0.8574929257125441 1.0264125456638308e-17 0.5144957554275267
  outer loop
    vertex 10.649415942303332 16.247599567130845 1.9999999999999998
    vertex 7.049415942303338 13.349675293767568 7.999999999999999
    vertex 10.649415942303332 -1.4774004328691672 1.9999999999999998
  endloop
endfacet
facet normal -1.0 -3.9773857299688266e-17 -0.0
  outer loop
    vertex -15.950584057696664 -1.8774004328691667 1.9999999999999998
    vertex -15.950584057696664 -19.602400432869167 0.0
    vertex -15.950584057696664 -19.602400432869167 1.9999999999999998
  endloop
endfacet
facet normal -1.0 -3.9773857299688266e-17 -0.0
  outer loop
    vertex -15.950584057696664 -19.602400432869167 0.0
    vertex -15.950584057696664 -1.8774004328691667 1.9999999999999998
    vertex -15.950584057696664 -1.8774004328691667 0.0
  endloop
endfacet
facet normal 0.0 -1.0 0.0
  outer loop
    vertex 6.04941594230334 -13.727400432869173 1.9999999999999998
    vertex -6.350584057696666 -13.727400432869173 0.9999999999999999
    vertex 6.04941594230334 -13.727400432869173 0.9999999999999999
  endloop
endfacet
facet normal 0.0 -1.0 0.0
  outer loop
    vertex -6.350584057696666 -13.727400432869173 0.9999999999999999
    vertex 6.04941594230334 -13.727400432869173 1.9999999999999998
    vertex -6.350584057696666 -13.727400432869173 1.9999999999999998
  endloop
endfacet
facet normal -0.0 -1.0 -0.0
  outer loop
    vertex 15.649415942303333 -1.4774004328691672 1.9999999999999998
    vertex 10.649415942303332 -1.4774004328691672 0.0
    vertex 15.649415942303333 -1.4774004328691672 0.0
  endloop
endfacet
facet normal -0.0 -1.0 -0.0
  outer loop
    vertex 10.649415942303332 -1.4774004328691672 0.0
    vertex 15.649415942303333 -1.4774004328691672 1.9999999999999998
    vertex 10.649415942303332 -1.4774004328691672 1.9999999999999998
  endloop
endfacet
facet normal 1.0 0.0 0.0
  outer loop
    vertex 15.649415942303333 16.247599567130845 0.0
    vertex 15.649415942303333 -1.4774004328691672 1.9999999999999998
    vertex 15.649415942303333 -1.4774004328691672 0.0
  endloop
endfacet
facet normal 1.0 0.0 0.0
  outer loop
    vertex 15.649415942303333 -1.4774004328691672 1.9999999999999998
    vertex 15.649415942303333 16.247599567130845 0.0
    vertex 15.649415942303333 16.247599567130845 1.9999999999999998
  endloop
endfacet
facet normal 0.0 1.0 0.0
  outer loop
    vertex -10.950584057696663 44.372599567130834 1.9999999999999998
    vertex 0.04941594230333415 44.372599567130834 0.0
    vertex -10.950584057696663 44.372599567130834 0.0
  endloop
endfacet
facet normal 0.0 1.0 0.0
  outer loop
    vertex 0.04941594230333415 44.372599567130834 0.0
    vertex -10.950584057696663 44.372599567130834 1.9999999999999998
    vertex 0.04941594230333415 44.372599567130834 1.9999999999999998
  endloop
endfacet
facet normal 1.0 0.0 0.0
  outer loop
    vertex 10.649415942303332 34.772599567130825 0.0
    vertex 10.649415942303332 16.247599567130845 1.9999999999999998
    vertex 10.649415942303332 16.247599567130845 0.0
  endloop
endfacet
facet normal 1.0 0.0 0.0
  outer loop
    vertex 10.649415942303332 16.247599567130845 1.9999999999999998
    vertex 10.649415942303332 34.772599567130825 0.0
    vertex 10.649415942303332 34.772599567130825 1.9999999999999998
  endloop
endfacet
facet normal 1.0 0.0 0.0
  outer loop
    vertex 15.649415942303333 44.372599567130834 0.0
    vertex 15.649415942303333 34.772599567130825 1.9999999999999998
    vertex 15.649415942303333 34.772599567130825 0.0
  endloop
endfacet
facet normal 1.0 0.0 0.0
  outer loop
    vertex 15.649415942303333 34.772599567130825 1.9999999999999998
    vertex 15.649415942303333 44.372599567130834 0.0
    vertex 15.649415942303333 44.372599567130834 1.9999999999999998
  endloop
endfacet
facet normal 0.0 1.0 0.0
  outer loop
    vertex 10.649415942303332 -20.002400432869166 1.9999999999999998
    vertex 15.649415942303333 -20.002400432869166 0.0
    vertex 10.649415942303332 -20.002400432869166 0.0
  endloop
endfacet
facet normal 0.0 1.0 0.0
  outer loop
    vertex 15.649415942303333 -20.002400432869166 0.0
    vertex 10.649415942303332 -20.002400432869166 1.9999999999999998
    vertex 15.649415942303333 -20.002400432869166 1.9999999999999998
  endloop
endfacet
facet normal 1.0 0.0 0.0
  outer loop
    vertex 15.649415942303333 -20.002400432869166 0.0
    vertex 15.649415942303333 -42.72740043286917 1.9999999999999998
    vertex 15.649415942303333 -42.72740043286917 0.0
  endloop
endfacet
facet normal 1.0 0.0 0.0
  outer loop
    vertex 15.649415942303333 -42.72740043286917 1.9999999999999998
    vertex 15.649415942303333 -20.002400432869166 0.0
    vertex 15.649415942303333 -20.002400432869166 1.9999999999999998
  endloop
endfacet
facet normal -1.0 0.0 0.0
  outer loop
    vertex -10.950584057696663 44.372599567130834 1.9999999999999998
    vertex -10.950584057696663 34.37259956713083 0.0
    vertex -10.950584057696663 34.37259956713083 1.9999999999999998
  endloop
endfacet
facet normal -1.0 0.0 0.0
  outer loop
    vertex -10.950584057696663 34.37259956713083 0.0
    vertex -10.950584057696663 44.372599567130834 1.9999999999999998
    vertex -10.950584057696663 44.372599567130834 0.0
  endloop
endfacet
facet normal 0.0 1.0 0.0
  outer loop
    vertex 10.649415942303332 44.372599567130834 1.9999999999999998
    vertex 15.649415942303333 44.372599567130834 0.0
    vertex 10.649415942303332 44.372599567130834 0.0
  endloop
endfacet
facet normal 0.0 1.0 0.0
  outer loop
    vertex 15.649415942303333 44.372599567130834 0.0
    vertex 10.649415942303332 44.372599567130834 1.9999999999999998
    vertex 15.649415942303333 44.372599567130834 1.9999999999999998
  endloop
endfacet
facet normal 0.0 1.0 0.0
  outer loop
    vertex 10.649415942303332 16.247599567130845 1.9999999999999998
    vertex 15.649415942303333 16.247599567130845 0.0
    vertex 10.649415942303332 16.247599567130845 0.0
  endloop
endfacet
facet normal 0.0 1.0 0.0
  outer loop
    vertex 15.649415942303333 16.247599567130845 0.0
    vertex 10.649415942303332 16.247599567130845 1.9999999999999998
    vertex 15.649415942303333 16.247599567130845 1.9999999999999998
  endloop
endfacet
facet normal -1.0 0.0 0.0
  outer loop
    vertex -10.950584057696663 -35.61773887198851 1.9999999999999998
    vertex -10.950584057696663 -42.72740043286917 0.0
    vertex -10.950584057696663 -42.72740043286917 1.9999999999999998
  endloop
endfacet
facet normal -1.0 0.0 0.0
  outer loop
    vertex -10.950584057696663 -42.72740043286917 0.0
    vertex -10.950584057696663 -35.61773887198851 1.9999999999999998
    vertex -10.950584057696663 -19.602400432869167 0.0
  endloop
endfacet
facet normal -1.0 0.0 0.0
  outer loop
    vertex -10.950584057696663 -19.602400432869167 0.0
    vertex -10.950584057696663 -35.61773887198851 1.9999999999999998
    vertex -10.950584057696663 -19.602400432869167 1.9999999999999998
  endloop
endfacet
facet normal 0.0 1.0 0.0
  outer loop
    vertex -15.950584057696664 34.37259956713083 1.9999999999999998
    vertex -10.950584057696663 34.37259956713083 0.0
    vertex -15.950584057696664 34.37259956713083 0.0
  endloop
endfacet
facet normal 0.0 1.0 0.0
  outer loop
    vertex -10.950584057696663 34.37259956713083 0.0
    vertex -15.950584057696664 34.37259956713083 1.9999999999999998
    vertex -10.950584057696663 34.37259956713083 1.9999999999999998
  endloop
endfacet
facet normal -0.0 -1.0 -0.0
  outer loop
    vertex -10.950584057696663 16.647599567130843 1.9999999999999998
    vertex -15.950584057696664 16.647599567130843 0.0
    vertex -10.950584057696663 16.647599567130843 0.0
  endloop
endfacet
facet normal -0.0 -1.0 -0.0
  outer loop
    vertex -15.950584057696664 16.647599567130843 0.0
    vertex -10.950584057696663 16.647599567130843 1.9999999999999998
    vertex -15.950584057696664 16.647599567130843 1.9999999999999998
  endloop
endfacet
facet normal -1.0 0.0 0.0
  outer loop
    vertex -15.950584057696664 34.37259956713083 1.9999999999999998
    vertex -15.950584057696664 16.647599567130843 0.0
    vertex -15.950584057696664 16.647599567130843 1.9999999999999998
  endloop
endfacet
facet normal -1.0 0.0 0.0
  outer loop
    vertex -15.950584057696664 16.647599567130843 0.0
    vertex -15.950584057696664 34.37259956713083 1.9999999999999998
    vertex -15.950584057696664 34.37259956713083 0.0
  endloop
endfacet
facet normal 0.0 0.0 1.0
  outer loop
    vertex 15.649415942303333 -1.4774004328691672 1.9999999999999998
    vertex 10.649415942303332 16.247599567130845 1.9999999999999998
    vertex 10.649415942303332 -1.4774004328691672 1.9999999999999998
  endloop
endfacet
facet normal 0.0 0.0 1.0
  outer loop
    vertex 10.649415942303332 16.247599567130845 1.9999999999999998
    vertex 15.649415942303333 -1.4774004328691672 1.9999999999999998
    vertex 15.649415942303333 16.247599567130845 1.9999999999999998
  endloop
endfacet
facet normal -8.31358043203979e-18 -1.0 -0.0
  outer loop
    vertex -0.35058405769665946 -42.72740043286917 1.9999999999999998
    vertex -10.950584057696663 -42.72740043286917 0.0
    vertex -0.35058405769665946 -42.72740043286917 0.0
  endloop
endfacet
facet normal -8.31358043203979e-18 -1.0 -0.0
  outer loop
    vertex -10.950584057696663 -42.72740043286917 0.0
    vertex -0.35058405769665946 -42.72740043286917 1.9999999999999998
    vertex -10.950584057696663 -42.72740043286917 1.9999999999999998
  endloop
endfacet
facet normal 0.0 -1.0 0.0
  outer loop
    vertex 6.04941594230334 -28.227400432869167 7.999999999999999
    vertex -6.350584057696666 -28.227400432869167 1.9999999999999998
    vertex 6.04941594230334 -28.227400432869167 1.9999999999999998
  endloop
endfacet
facet normal 0.0 -1.0 0.0
  outer loop
    vertex -6.350584057696666 -28.227400432869167 1.9999999999999998
    vertex 6.04941594230334 -28.227400432869167 7.999999999999999
    vertex -6.350584057696666 -28.227400432869167 7.999999999999999
  endloop
endfacet
facet normal -0.8574929257125443 -1.8287159213863727e-18 0.5144957554275263
  outer loop
    vertex -7.350584057696669 1.0072415870843 7.999999999999999
    vertex -10.950584057696663 16.647599567130843 1.9999999999999998
    vertex -10.950584057696663 -1.8774004328691667 1.9999999999999998
  endloop
endfacet
facet normal -0.8574929257125443 -1.8287159213863727e-18 0.5144957554275263
  outer loop
    vertex -10.950584057696663 16.647599567130843 1.9999999999999998
    vertex -7.350584057696669 1.0072415870843 7.999999999999999
    vertex -7.350584057696669 16.647599567130843 7.999999999999999
  endloop
endfacet
facet normal 0.0 -1.0 0.0
  outer loop
    vertex 6.04941594230334 -28.227400432869167 1.9999999999999998
    vertex -6.350584057696666 -28.227400432869167 0.9999999999999999
    vertex 6.04941594230334 -28.227400432869167 0.9999999999999999
  endloop
endfacet
facet normal 0.0 -1.0 0.0
  outer loop
    vertex -6.350584057696666 -28.227400432869167 0.9999999999999999
    vertex 6.04941594230334 -28.227400432869167 1.9999999999999998
    vertex -6.350584057696666 -28.227400432869167 1.9999999999999998
  endloop
endfacet
facet normal -0.8574929257125443 -3.0502297488648756e-17 0.5144957554275263
  outer loop
    vertex -7.350584057696664 -34.127400432869166 7.999999999999999
    vertex -10.950584057696663 -19.602400432869167 1.9999999999999998
    vertex -10.950584057696663 -35.61773887198851 1.9999999999999998
  endloop
endfacet
facet normal -0.8574929257125443 -3.0502297488648756e-17 0.5144957554275263
  outer loop
    vertex -10.950584057696663 -19.602400432869167 1.9999999999999998
    vertex -7.350584057696664 -34.127400432869166 7.999999999999999
    vertex -7.350584057696669 -12.953911939985383 7.999999999999999
  endloop
endfacet
facet normal -2.549300786922609e-17 -0.8574929257125443 0.5144957554275266
  outer loop
    vertex 7.049415942303338 -34.127400432869166 7.999999999999999
    vertex -0.35058405769665946 -37.72740043286916 1.9999999999999998
    vertex 11.04941594230333 -37.72740043286916 1.9999999999999998
  endloop
endfacet
facet normal -2.549300786922609e-17 -0.8574929257125443 0.5144957554275266
  outer loop
    vertex -0.35058405769665946 -37.72740043286916 1.9999999999999998
    vertex 7.049415942303338 -34.127400432869166 7.999999999999999
    vertex -7.350584057696664 -34.127400432869166 7.999999999999999
  endloop
endfacet
facet normal 0.0 0.0 1.0
  outer loop
    vertex -10.950584057696663 -19.602400432869167 1.9999999999999998
    vertex -15.950584057696664 -1.8774004328691667 1.9999999999999998
    vertex -15.950584057696664 -19.602400432869167 1.9999999999999998
  endloop
endfacet
facet normal 0.0 0.0 1.0
  outer loop
    vertex -15.950584057696664 -1.8774004328691667 1.9999999999999998
    vertex -10.950584057696663 -19.602400432869167 1.9999999999999998
    vertex -10.950584057696663 -1.8774004328691667 1.9999999999999998
  endloop
endfacet
facet normal 0.0 0.0 1.0
  outer loop
    vertex 7.049415942303338 -34.127400432869166 7.999999999999999
    vertex -6.350584057696666 -33.127400432869166 7.999999999999999
    vertex -7.350584057696664 -34.127400432869166 7.999999999999999
  endloop
endfacet
facet normal 0.0 0.0 1.0
  outer loop
    vertex -6.350584057696666 -33.127400432869166 7.999999999999999
    vertex 7.049415942303338 -34.127400432869166 7.999999999999999
    vertex 6.04941594230334 -33.127400432869166 7.999999999999999
  endloop
endfacet
facet normal 0.0 0.0 1.0
  outer loop
    vertex 6.04941594230334 -33.127400432869166 7.999999999999999
    vertex 7.049415942303338 -34.127400432869166 7.999999999999999
    vertex 6.04941594230334 -28.227400432869167 7.999999999999999
  endloop
endfacet
facet normal 0.0 0.0 1.0
  outer loop
    vertex 6.04941594230334 -28.227400432869167 7.999999999999999
    vertex 7.049415942303338 -34.127400432869166 7.999999999999999
    vertex 6.04941594230334 -18.62740043286916 7.999999999999999
  endloop
endfacet
facet normal 0.0 0.0 1.0
  outer loop
    vertex 6.04941594230334 -18.62740043286916 7.999999999999999
    vertex 7.049415942303338 -34.127400432869166 7.999999999999999
    vertex 6.04941594230334 -13.727400432869173 7.999999999999999
  endloop
endfacet
facet normal 0.0 0.0 1.0
  outer loop
    vertex 6.04941594230334 -13.727400432869173 7.999999999999999
    vertex 7.049415942303338 -34.127400432869166 7.999999999999999
    vertex 6.04941594230334 -4.127400432869174 7.999999999999999
  endloop
endfacet
facet normal 0.0 0.0 1.0
  outer loop
    vertex 6.04941594230334 -4.127400432869174 7.999999999999999
    vertex 7.049415942303338 -34.127400432869166 7.999999999999999
    vertex 6.04941594230334 0.7725995671308172 7.999999999999999
  endloop
endfacet
facet normal 0.0 0.0 1.0
  outer loop
    vertex 6.04941594230334 0.7725995671308172 7.999999999999999
    vertex 7.049415942303338 -34.127400432869166 7.999999999999999
    vertex 6.04941594230334 10.372599567130829 7.999999999999999
  endloop
endfacet
facet normal 0.0 0.0 1.0
  outer loop
    vertex 6.04941594230334 10.372599567130829 7.999999999999999
    vertex 7.049415942303338 -34.127400432869166 7.999999999999999
    vertex 6.04941594230334 15.272599567130818 7.999999999999999
  endloop
endfacet
facet normal 0.0 0.0 1.0
  outer loop
    vertex 6.04941594230334 15.272599567130818 7.999999999999999
    vertex 7.049415942303338 -34.127400432869166 7.999999999999999
    vertex 6.04941594230334 24.872599567130823 7.999999999999999
  endloop
endfacet
facet normal 0.0 0.0 1.0
  outer loop
    vertex 6.04941594230334 24.872599567130823 7.999999999999999
    vertex 7.049415942303338 -34.127400432869166 7.999999999999999
    vertex 6.04941594230334 29.772599567130836 7.999999999999999
  endloop
endfacet
facet normal 0.0 0.0 1.0
  outer loop
    vertex -7.350584057696664 -34.127400432869166 7.999999999999999
    vertex -7.350584057696669 1.0072415870843 7.999999999999999
    vertex -7.350584057696669 -12.953911939985383 7.999999999999999
  endloop
endfacet
facet normal 0.0 0.0 1.0
  outer loop
    vertex -7.350584057696669 1.0072415870843 7.999999999999999
    vertex -7.350584057696664 -34.127400432869166 7.999999999999999
    vertex -7.350584057696669 16.647599567130843 7.999999999999999
  endloop
endfacet
facet normal 0.0 0.0 1.0
  outer loop
    vertex -7.350584057696669 16.647599567130843 7.999999999999999
    vertex -7.350584057696664 -34.127400432869166 7.999999999999999
    vertex -7.350584057696669 30.772599567130836 7.999999999999999
  endloop
endfacet
facet normal 0.0 0.0 1.0
  outer loop
    vertex -7.350584057696669 30.772599567130836 7.999999999999999
    vertex -7.350584057696664 -34.127400432869166 7.999999999999999
    vertex -6.350584057696666 29.772599567130836 7.999999999999999
  endloop
endfacet
facet normal 0.0 0.0 1.0
  outer loop
    vertex -7.350584057696669 30.772599567130836 7.999999999999999
    vertex -6.350584057696666 29.772599567130836 7.999999999999999
    vertex 7.049415942303338 30.772599567130836 7.999999999999999
  endloop
endfacet
facet normal 0.0 0.0 1.0
  outer loop
    vertex -6.350584057696666 29.772599567130836 7.999999999999999
    vertex -7.350584057696664 -34.127400432869166 7.999999999999999
    vertex -6.350584057696666 -33.127400432869166 7.999999999999999
  endloop
endfacet
facet normal 0.0 0.0 1.0
  outer loop
    vertex -6.350584057696666 29.772599567130836 7.999999999999999
    vertex -6.350584057696666 -33.127400432869166 7.999999999999999
    vertex -6.350584057696666 -28.227400432869167 7.999999999999999
  endloop
endfacet
facet normal 0.0 0.0 1.0
  outer loop
    vertex -6.350584057696666 29.772599567130836 7.999999999999999
    vertex -6.350584057696666 -28.227400432869167 7.999999999999999
    vertex -6.350584057696666 -18.62740043286916 7.999999999999999
  endloop
endfacet
facet normal 0.0 0.0 1.0
  outer loop
    vertex -6.350584057696666 29.772599567130836 7.999999999999999
    vertex -6.350584057696666 -18.62740043286916 7.999999999999999
    vertex -6.350584057696666 -13.727400432869173 7.999999999999999
  endloop
endfacet
facet normal 0.0 0.0 1.0
  outer loop
    vertex -6.350584057696666 29.772599567130836 7.999999999999999
    vertex -6.350584057696666 -13.727400432869173 7.999999999999999
    vertex -6.350584057696666 -4.127400432869174 7.999999999999999
  endloop
endfacet
facet normal 0.0 0.0 1.0
  outer loop
    vertex -6.350584057696666 29.772599567130836 7.999999999999999
    vertex -6.350584057696666 -4.127400432869174 7.999999999999999
    vertex -6.350584057696666 0.7725995671308172 7.999999999999999
  endloop
endfacet
facet normal 0.0 0.0 1.0
  outer loop
    vertex -6.350584057696666 29.772599567130836 7.999999999999999
    vertex -6.350584057696666 0.7725995671308172 7.999999999999999
    vertex -6.350584057696666 10.372599567130829 7.999999999999999
  endloop
endfacet
facet normal 0.0 0.0 1.0
  outer loop
    vertex -6.350584057696666 29.772599567130836 7.999999999999999
    vertex -6.350584057696666 10.372599567130829 7.999999999999999
    vertex -6.350584057696666 15.272599567130818 7.999999999999999
  endloop
endfacet
facet normal 0.0 0.0 1.0
  outer loop
    vertex -6.350584057696666 29.772599567130836 7.999999999999999
    vertex -6.350584057696666 15.272599567130818 7.999999999999999
    vertex -6.350584057696666 24.872599567130823 7.999999999999999
  endloop
endfacet
facet normal 0.0 0.0 1.0
  outer loop
    vertex 7.049415942303338 30.772599567130836 7.999999999999999
    vertex -6.350584057696666 29.772599567130836 7.999999999999999
    vertex 6.04941594230334 29.772599567130836 7.999999999999999
  endloop
endfacet
facet normal 0.0 0.0 1.0
  outer loop
    vertex 7.049415942303338 30.772599567130836 7.999999999999999
    vertex 6.04941594230334 29.772599567130836 7.999999999999999
    vertex 7.049415942303338 -34.127400432869166 7.999999999999999
  endloop
endfacet
facet normal 0.0 0.0 1.0
  outer loop
    vertex 7.049415942303338 30.772599567130836 7.999999999999999
    vertex 7.049415942303338 -34.127400432869166 7.999999999999999
    vertex 7.049415942303338 -18.542502449625637 7.999999999999999
  endloop
endfacet
facet normal 0.0 0.0 1.0
  outer loop
    vertex 7.049415942303338 30.772599567130836 7.999999999999999
    vertex 7.049415942303338 -18.542502449625637 7.999999999999999
    vertex 7.049415942303338 -2.1820289132426534 7.999999999999999
  endloop
endfacet
facet normal 0.0 0.0 1.0
  outer loop
    vertex 7.049415942303338 30.772599567130836 7.999999999999999
    vertex 7.049415942303338 -2.1820289132426534 7.999999999999999
    vertex 7.049415942303338 13.349675293767568 7.999999999999999
  endloop
endfacet
facet normal 0.0 0.0 1.0
  outer loop
    vertex 6.04941594230334 15.272599567130818 7.999999999999999
    vertex -6.350584057696666 24.872599567130823 7.999999999999999
    vertex -6.350584057696666 15.272599567130818 7.999999999999999
  endloop
endfacet
facet normal 0.0 0.0 1.0
  outer loop
    vertex -6.350584057696666 24.872599567130823 7.999999999999999
    vertex 6.04941594230334 15.272599567130818 7.999999999999999
    vertex 6.04941594230334 24.872599567130823 7.999999999999999
  endloop
endfacet
facet normal 0.0 0.0 1.0
  outer loop
    vertex 6.04941594230334 0.7725995671308172 7.999999999999999
    vertex -6.350584057696666 10.372599567130829 7.999999999999999
    vertex -6.350584057696666 0.7725995671308172 7.999999999999999
  endloop
endfacet
facet normal 0.0 0.0 1.0
  outer loop
    vertex -6.350584057696666 10.372599567130829 7.999999999999999
    vertex 6.04941594230334 0.7725995671308172 7.999999999999999
    vertex 6.04941594230334 10.372599567130829 7.999999999999999
  endloop
endfacet
facet normal 0.0 0.0 1.0
  outer loop
    vertex 6.04941594230334 -13.727400432869173 7.999999999999999
    vertex -6.350584057696666 -4.127400432869174 7.999999999999999
    vertex -6.350584057696666 -13.727400432869173 7.999999999999999
  endloop
endfacet
facet normal 0.0 0.0 1.0
  outer loop
    vertex -6.350584057696666 -4.127400432869174 7.999999999999999
    vertex 6.04941594230334 -13.727400432869173 7.999999999999999
    vertex 6.04941594230334 -4.127400432869174 7.999999999999999
  endloop
endfacet
facet normal 0.0 0.0 1.0
  outer loop
    vertex 6.04941594230334 -28.227400432869167 7.999999999999999
    vertex -6.350584057696666 -18.62740043286916 7.999999999999999
    vertex -6.350584057696666 -28.227400432869167 7.999999999999999
  endloop
endfacet
facet normal 0.0 0.0 1.0
  outer loop
    vertex -6.350584057696666 -18.62740043286916 7.999999999999999
    vertex 6.04941594230334 -28.227400432869167 7.999999999999999
    vertex 6.04941594230334 -18.62740043286916 7.999999999999999
  endloop
endfacet
facet normal 0.8574929257125441 0.0 0.5144957554275267
  outer loop
    vertex 7.049415942303338 -18.542502449625637 7.999999999999999
    vertex 7.049415942303338 -34.127400432869166 7.999999999999999
    vertex 10.649415942303332 -20.002400432869166 1.9999999999999998
  endloop
endfacet
facet normal -0.1836149907889001 -0.9225739988123357 0.3393269100336847
  outer loop
    vertex -7.350584057696664 -34.127400432869166 7.999999999999999
    vertex -10.950584057696663 -35.61773887198851 1.9999999999999998
    vertex -0.35058405769665946 -37.72740043286916 1.9999999999999998
  endloop
endfacet
facet normal 0.0 1.0 0.0
  outer loop
    vertex -6.350584057696666 -33.127400432869166 1.9999999999999998
    vertex 6.04941594230334 -33.127400432869166 0.9999999999999999
    vertex -6.350584057696666 -33.127400432869166 0.9999999999999999
  endloop
endfacet
facet normal 0.0 1.0 0.0
  outer loop
    vertex 6.04941594230334 -33.127400432869166 0.9999999999999999
    vertex -6.350584057696666 -33.127400432869166 1.9999999999999998
    vertex 6.04941594230334 -33.127400432869166 1.9999999999999998
  endloop
endfacet
facet normal 0.0 1.0 0.0
  outer loop
    vertex -6.350584057696666 24.872599567130823 1.9999999999999998
    vertex 6.04941594230334 24.872599567130823 0.9999999999999999
    vertex -6.350584057696666 24.872599567130823 0.9999999999999999
  endloop
endfacet
facet normal 0.0 1.0 0.0
  outer loop
    vertex 6.04941594230334 24.872599567130823 0.9999999999999999
    vertex -6.350584057696666 24.872599567130823 1.9999999999999998
    vertex 6.04941594230334 24.872599567130823 1.9999999999999998
  endloop
endfacet
facet normal 1.0 0.0 0.0
  outer loop
    vertex -6.350584057696666 15.272599567130818 0.9999999999999999
    vertex -6.350584057696666 10.372599567130829 1.9999999999999998
    vertex -6.350584057696666 10.372599567130829 0.9999999999999999
  endloop
endfacet
facet normal 1.0 0.0 0.0
  outer loop
    vertex -6.350584057696666 10.372599567130829 1.9999999999999998
    vertex -6.350584057696666 15.272599567130818 0.9999999999999999
    vertex -6.350584057696666 15.272599567130818 1.9999999999999998
  endloop
endfacet
facet normal 0.0 1.0 0.0
  outer loop
    vertex -6.350584057696666 10.372599567130829 1.9999999999999998
    vertex 6.04941594230334 10.372599567130829 0.9999999999999999
    vertex -6.350584057696666 10.372599567130829 0.9999999999999999
  endloop
endfacet
facet normal 0.0 1.0 0.0
  outer loop
    vertex 6.04941594230334 10.372599567130829 0.9999999999999999
    vertex -6.350584057696666 10.372599567130829 1.9999999999999998
    vertex 6.04941594230334 10.372599567130829 1.9999999999999998
  endloop
endfacet
facet normal 1.0 0.0 0.0
  outer loop
    vertex -6.350584057696666 -28.227400432869167 0.9999999999999999
    vertex -6.350584057696666 -33.127400432869166 1.9999999999999998
    vertex -6.350584057696666 -33.127400432869166 0.9999999999999999
  endloop
endfacet
facet normal 1.0 0.0 0.0
  outer loop
    vertex -6.350584057696666 -33.127400432869166 1.9999999999999998
    vertex -6.350584057696666 -28.227400432869167 0.9999999999999999
    vertex -6.350584057696666 -28.227400432869167 1.9999999999999998
  endloop
endfacet
facet normal -1.0 0.0 0.0
  outer loop
    vertex 6.04941594230334 -28.227400432869167 1.9999999999999998
    vertex 6.04941594230334 -33.127400432869166 0.9999999999999999
    vertex 6.04941594230334 -33.127400432869166 1.9999999999999998
  endloop
endfacet
facet normal -1.0 0.0 0.0
  outer loop
    vertex 6.04941594230334 -33.127400432869166 0.9999999999999999
    vertex 6.04941594230334 -28.227400432869167 1.9999999999999998
    vertex 6.04941594230334 -28.227400432869167 0.9999999999999999
  endloop
endfacet
facet normal -1.0 -0.0 -0.0
  outer loop
    vertex 6.04941594230334 0.7725995671308172 7.999999999999999
    vertex 6.04941594230334 -4.127400432869174 1.9999999999999998
    vertex 6.04941594230334 -4.127400432869174 7.999999999999999
  endloop
endfacet
facet normal -1.0 -0.0 -0.0
  outer loop
    vertex 6.04941594230334 -4.127400432869174 1.9999999999999998
    vertex 6.04941594230334 0.7725995671308172 7.999999999999999
    vertex 6.04941594230334 0.7725995671308172 1.9999999999999998
  endloop
endfacet
facet normal 1.0 0.0 0.0
  outer loop
    vertex -6.350584057696666 0.7725995671308172 1.9999999999999998
    vertex -6.350584057696666 -4.127400432869174 7.999999999999999
    vertex -6.350584057696666 -4.127400432869174 1.9999999999999998
  endloop
endfacet
facet normal 1.0 0.0 0.0
  outer loop
    vertex -6.350584057696666 -4.127400432869174 7.999999999999999
    vertex -6.350584057696666 0.7725995671308172 1.9999999999999998
    vertex -6.350584057696666 0.7725995671308172 7.999999999999999
  endloop
endfacet
facet normal 9.096666072735155e-16 1.0 -1.6954361172086038e-46
  outer loop
    vertex -6.350584057696666 -4.127400432869174 1.9999999999999998
    vertex 6.04941594230334 -4.127400432869174 0.9999999999999999
    vertex -6.350584057696666 -4.127400432869174 0.9999999999999999
  endloop
endfacet
facet normal 9.096666072735155e-16 1.0 -1.6954361172086038e-46
  outer loop
    vertex 6.04941594230334 -4.127400432869174 0.9999999999999999
    vertex -6.350584057696666 -4.127400432869174 1.9999999999999998
    vertex 6.04941594230334 -4.127400432869174 1.9999999999999998
  endloop
endfacet
facet normal 1.0 0.0 0.0
  outer loop
    vertex -6.350584057696666 -13.727400432869173 0.9999999999999999
    vertex -6.350584057696666 -18.62740043286916 1.9999999999999998
    vertex -6.350584057696666 -18.62740043286916 0.9999999999999999
  endloop
endfacet
facet normal 1.0 0.0 0.0
  outer loop
    vertex -6.350584057696666 -18.62740043286916 1.9999999999999998
    vertex -6.350584057696666 -13.727400432869173 0.9999999999999999
    vertex -6.350584057696666 -13.727400432869173 1.9999999999999998
  endloop
endfacet
facet normal 0.0 -1.0 0.0
  outer loop
    vertex 6.04941594230334 0.7725995671308172 7.999999999999999
    vertex -6.350584057696666 0.7725995671308172 1.9999999999999998
    vertex 6.04941594230334 0.7725995671308172 1.9999999999999998
  endloop
endfacet
facet normal 0.0 -1.0 0.0
  outer loop
    vertex -6.350584057696666 0.7725995671308172 1.9999999999999998
    vertex 6.04941594230334 0.7725995671308172 7.999999999999999
    vertex -6.350584057696666 0.7725995671308172 7.999999999999999
  endloop
endfacet
facet normal 0.0 -1.0 0.0
  outer loop
    vertex 6.04941594230334 15.272599567130818 7.999999999999999
    vertex -6.350584057696666 15.272599567130818 1.9999999999999998
    vertex 6.04941594230334 15.272599567130818 1.9999999999999998
  endloop
endfacet
facet normal 0.0 -1.0 0.0
  outer loop
    vertex -6.350584057696666 15.272599567130818 1.9999999999999998
    vertex 6.04941594230334 15.272599567130818 7.999999999999999
    vertex -6.350584057696666 15.272599567130818 7.999999999999999
  endloop
endfacet
facet normal 0.0 1.0 0.0
  outer loop
    vertex -6.350584057696666 -18.62740043286916 1.9999999999999998
    vertex 6.04941594230334 -18.62740043286916 0.9999999999999999
    vertex -6.350584057696666 -18.62740043286916 0.9999999999999999
  endloop
endfacet
facet normal 0.0 1.0 0.0
  outer loop
    vertex 6.04941594230334 -18.62740043286916 0.9999999999999999
    vertex -6.350584057696666 -18.62740043286916 1.9999999999999998
    vertex 6.04941594230334 -18.62740043286916 1.9999999999999998
  endloop
endfacet
facet normal -3.1102797361282345e-17 0.8574929257125438 0.5144957554275272
  outer loop
    vertex 7.049415942303338 30.772599567130836 7.999999999999999
    vertex -10.950584057696663 34.37259956713083 1.9999999999999998
    vertex -7.350584057696669 30.772599567130836 7.999999999999999
  endloop
endfacet
facet normal 1.0 0.0 0.0
  outer loop
    vertex -6.350584057696666 15.272599567130818 1.9999999999999998
    vertex -6.350584057696666 10.372599567130829 7.999999999999999
    vertex -6.350584057696666 10.372599567130829 1.9999999999999998
  endloop
endfacet
facet normal 1.0 0.0 0.0
  outer loop
    vertex -6.350584057696666 10.372599567130829 7.999999999999999
    vertex -6.350584057696666 15.272599567130818 1.9999999999999998
    vertex -6.350584057696666 15.272599567130818 7.999999999999999
  endloop
endfacet
facet normal 0.8574929257125447 6.6482530232839354e-18 0.5144957554275259
  outer loop
    vertex 10.649415942303332 16.247599567130845 1.9999999999999998
    vertex 7.049415942303338 30.772599567130836 7.999999999999999
    vertex 7.049415942303338 13.349675293767568 7.999999999999999
  endloop
endfacet
facet normal 0.8574929257125447 6.6482530232839354e-18 0.5144957554275259
  outer loop
    vertex 7.049415942303338 30.772599567130836 7.999999999999999
    vertex 10.649415942303332 16.247599567130845 1.9999999999999998
    vertex 10.649415942303332 34.772599567130825 1.9999999999999998
  endloop
endfacet
facet normal -0.015485443247068367 0.8362139353416922 0.5481846909462195
  outer loop
    vertex 7.049415942303338 30.772599567130836 7.999999999999999
    vertex 10.649415942303332 34.772599567130825 1.9999999999999998
    vertex -10.950584057696663 34.37259956713083 1.9999999999999998
  endloop
endfacet
facet normal 9.096666072735151e-16 1.0 0.0
  outer loop
    vertex -6.350584057696666 -4.127400432869174 7.999999999999999
    vertex 6.04941594230334 -4.127400432869174 1.9999999999999998
    vertex -6.350584057696666 -4.127400432869174 1.9999999999999998
  endloop
endfacet
facet normal 9.096666072735151e-16 1.0 0.0
  outer loop
    vertex 6.04941594230334 -4.127400432869174 1.9999999999999998
    vertex -6.350584057696666 -4.127400432869174 7.999999999999999
    vertex 6.04941594230334 -4.127400432869174 7.999999999999999
  endloop
endfacet
facet normal -1.0 0.0 0.0
  outer loop
    vertex 6.04941594230334 29.772599567130836 7.999999999999999
    vertex 6.04941594230334 24.872599567130823 1.9999999999999998
    vertex 6.04941594230334 24.872599567130823 7.999999999999999
  endloop
endfacet
facet normal -1.0 0.0 0.0
  outer loop
    vertex 6.04941594230334 24.872599567130823 1.9999999999999998
    vertex 6.04941594230334 29.772599567130836 7.999999999999999
    vertex 6.04941594230334 29.772599567130836 1.9999999999999998
  endloop
endfacet
facet normal 0.0 1.0 0.0
  outer loop
    vertex -6.350584057696666 24.872599567130823 7.999999999999999
    vertex 6.04941594230334 24.872599567130823 1.9999999999999998
    vertex -6.350584057696666 24.872599567130823 1.9999999999999998
  endloop
endfacet
facet normal 0.0 1.0 0.0
  outer loop
    vertex 6.04941594230334 24.872599567130823 1.9999999999999998
    vertex -6.350584057696666 24.872599567130823 7.999999999999999
    vertex 6.04941594230334 24.872599567130823 7.999999999999999
  endloop
endfacet
facet normal 1.0 0.0 0.0
  outer loop
    vertex -6.350584057696666 29.772599567130836 1.9999999999999998
    vertex -6.350584057696666 24.872599567130823 7.999999999999999
    vertex -6.350584057696666 24.872599567130823 1.9999999999999998
  endloop
endfacet
facet normal 1.0 0.0 0.0
  outer loop
    vertex -6.350584057696666 24.872599567130823 7.999999999999999
    vertex -6.350584057696666 29.772599567130836 1.9999999999999998
    vertex -6.350584057696666 29.772599567130836 7.999999999999999
  endloop
endfacet
facet normal 0.0 1.0 0.0
  outer loop
    vertex -6.350584057696666 10.372599567130829 7.999999999999999
    vertex 6.04941594230334 10.372599567130829 1.9999999999999998
    vertex -6.350584057696666 10.372599567130829 1.9999999999999998
  endloop
endfacet
facet normal 0.0 1.0 0.0
  outer loop
    vertex 6.04941594230334 10.372599567130829 1.9999999999999998
    vertex -6.350584057696666 10.372599567130829 7.999999999999999
    vertex 6.04941594230334 10.372599567130829 7.999999999999999
  endloop
endfacet
facet normal 0.0 -1.0 0.0
  outer loop
    vertex 6.04941594230334 29.772599567130836 7.999999999999999
    vertex -6.350584057696666 29.772599567130836 1.9999999999999998
    vertex 6.04941594230334 29.772599567130836 1.9999999999999998
  endloop
endfacet
facet normal 0.0 -1.0 0.0
  outer loop
    vertex -6.350584057696666 29.772599567130836 1.9999999999999998
    vertex 6.04941594230334 29.772599567130836 7.999999999999999
    vertex -6.350584057696666 29.772599567130836 7.999999999999999
  endloop
endfacet
facet normal -1.0 0.0 0.0
  outer loop
    vertex 6.04941594230334 15.272599567130818 7.999999999999999
    vertex 6.04941594230334 10.372599567130829 1.9999999999999998
    vertex 6.04941594230334 10.372599567130829 7.999999999999999
  endloop
endfacet
facet normal -1.0 0.0 0.0
  outer loop
    vertex 6.04941594230334 10.372599567130829 1.9999999999999998
    vertex 6.04941594230334 15.272599567130818 7.999999999999999
    vertex 6.04941594230334 15.272599567130818 1.9999999999999998
  endloop
endfacet
facet normal 0.0 -1.0 0.0
  outer loop
    vertex 6.04941594230334 29.772599567130836 1.9999999999999998
    vertex -6.350584057696666 29.772599567130836 0.9999999999999999
    vertex 6.04941594230334 29.772599567130836 0.9999999999999999
  endloop
endfacet
facet normal 0.0 -1.0 0.0
  outer loop
    vertex -6.350584057696666 29.772599567130836 0.9999999999999999
    vertex 6.04941594230334 29.772599567130836 1.9999999999999998
    vertex -6.350584057696666 29.772599567130836 1.9999999999999998
  endloop
endfacet
facet normal -1.0 0.0 0.0
  outer loop
    vertex 6.04941594230334 29.772599567130836 1.9999999999999998
    vertex 6.04941594230334 24.872599567130823 0.9999999999999999
    vertex 6.04941594230334 24.872599567130823 1.9999999999999998
  endloop
endfacet
facet normal -1.0 0.0 0.0
  outer loop
    vertex 6.04941594230334 24.872599567130823 0.9999999999999999
    vertex 6.04941594230334 29.772599567130836 1.9999999999999998
    vertex 6.04941594230334 29.772599567130836 0.9999999999999999
  endloop
endfacet
facet normal 0.857492925712544 -2.673537087153563e-17 0.5144957554275267
  outer loop
    vertex 7.049415942303338 13.349675293767568 7.999999999999999
    vertex 7.049415942303338 -2.1820289132426534 7.999999999999999
    vertex 10.649415942303332 -1.4774004328691672 1.9999999999999998
  endloop
endfacet
facet normal 0.8574929257125441 -1.7597266239498334e-18 0.5144957554275267
  outer loop
    vertex 10.649415942303332 -1.4774004328691672 1.9999999999999998
    vertex 7.049415942303338 -18.542502449625637 7.999999999999999
    vertex 10.649415942303332 -20.002400432869166 1.9999999999999998
  endloop
endfacet
facet normal 0.8574929257125441 -1.7597266239498334e-18 0.5144957554275267
  outer loop
    vertex 7.049415942303338 -18.542502449625637 7.999999999999999
    vertex 10.649415942303332 -1.4774004328691672 1.9999999999999998
    vertex 7.049415942303338 -2.1820289132426534 7.999999999999999
  endloop
endfacet
facet normal 1.0 0.0 0.0
  outer loop
    vertex -6.350584057696666 0.7725995671308172 0.9999999999999999
    vertex -6.350584057696666 -4.127400432869174 1.9999999999999998
    vertex -6.350584057696666 -4.127400432869174 0.9999999999999999
  endloop
endfacet
facet normal 1.0 0.0 0.0
  outer loop
    vertex -6.350584057696666 -4.127400432869174 1.9999999999999998
    vertex -6.350584057696666 0.7725995671308172 0.9999999999999999
    vertex -6.350584057696666 0.7725995671308172 1.9999999999999998
  endloop
endfacet
facet normal 0.0 0.0 1.0
  outer loop
    vertex 6.04941594230334 -33.127400432869166 0.9999999999999999
    vertex -6.350584057696666 -28.227400432869167 0.9999999999999999
    vertex -6.350584057696666 -33.127400432869166 0.9999999999999999
  endloop
endfacet
facet normal 0.0 0.0 1.0
  outer loop
    vertex -6.350584057696666 -28.227400432869167 0.9999999999999999
    vertex 6.04941594230334 -33.127400432869166 0.9999999999999999
    vertex 6.04941594230334 -28.227400432869167 0.9999999999999999
  endloop
endfacet
facet normal 0.0 0.0 1.0
  outer loop
    vertex 6.04941594230334 24.872599567130823 0.9999999999999999
    vertex -6.350584057696666 29.772599567130836 0.9999999999999999
    vertex -6.350584057696666 24.872599567130823 0.9999999999999999
  endloop
endfacet
facet normal 0.0 0.0 1.0
  outer loop
    vertex -6.350584057696666 29.772599567130836 0.9999999999999999
    vertex 6.04941594230334 24.872599567130823 0.9999999999999999
    vertex 6.04941594230334 29.772599567130836 0.9999999999999999
  endloop
endfacet
facet normal 0.0 0.0 1.0
  outer loop
    vertex 6.04941594230334 10.372599567130829 0.9999999999999999
    vertex -6.350584057696666 15.272599567130818 0.9999999999999999
    vertex -6.350584057696666 10.372599567130829 0.9999999999999999
  endloop
endfacet
facet normal 0.0 0.0 1.0
  outer loop
    vertex -6.350584057696666 15.272599567130818 0.9999999999999999
    vertex 6.04941594230334 10.372599567130829 0.9999999999999999
    vertex 6.04941594230334 15.272599567130818 0.9999999999999999
  endloop
endfacet
facet normal 0.0 0.0 1.0
  outer loop
    vertex 6.04941594230334 -4.127400432869174 0.9999999999999999
    vertex -6.350584057696666 0.7725995671308172 0.9999999999999999
    vertex -6.350584057696666 -4.127400432869174 0.9999999999999999
  endloop
endfacet
facet normal 0.0 0.0 1.0
  outer loop
    vertex -6.350584057696666 0.7725995671308172 0.9999999999999999
    vertex 6.04941594230334 -4.127400432869174 0.9999999999999999
    vertex 6.04941594230334 0.7725995671308172 0.9999999999999999
  endloop
endfacet
facet normal 0.0 0.0 1.0
  outer loop
    vertex 6.04941594230334 -18.62740043286916 0.9999999999999999
    vertex -6.350584057696666 -13.727400432869173 0.9999999999999999
    vertex -6.350584057696666 -18.62740043286916 0.9999999999999999
  endloop
endfacet
facet normal 0.0 0.0 1.0
  outer loop
    vertex -6.350584057696666 -13.727400432869173 0.9999999999999999
    vertex 6.04941594230334 -18.62740043286916 0.9999999999999999
    vertex 6.04941594230334 -13.727400432869173 0.9999999999999999
  endloop
endfacet
facet normal 1.0 0.0 0.0
  outer loop
    vertex -4.150584057696664 39.57259956713082 0.0
    vertex -4.150584057696664 38.57259956713082 1.9999999999999998
    vertex -4.150584057696664 38.57259956713082 0.0
  endloop
endfacet
facet normal 1.0 0.0 0.0
  outer loop
    vertex -4.150584057696664 38.57259956713082 1.9999999999999998
    vertex -4.150584057696664 39.57259956713082 0.0
    vertex -4.150584057696664 39.57259956713082 1.9999999999999998
  endloop
endfacet
facet normal 0.7071067811865476 0.7071067811865476 0.0
  outer loop
    vertex -4.443477276510112 39.86549278594427 0.0
    vertex -4.150584057696664 39.57259956713082 1.9999999999999998
    vertex -4.150584057696664 39.57259956713082 0.0
  endloop
endfacet
facet normal 0.7071067811865476 0.7071067811865476 0.0
  outer loop
    vertex -4.150584057696664 39.57259956713082 1.9999999999999998
    vertex -4.443477276510112 39.86549278594427 0.0
    vertex -4.443477276510112 39.86549278594427 1.9999999999999998
  endloop
endfacet
facet normal 0.0 0.0 1.0
  outer loop
    vertex -10.950584057696663 34.37259956713083 1.9999999999999998
    vertex -4.150584057696664 38.57259956713082 1.9999999999999998
    vertex -10.950584057696663 44.372599567130834 1.9999999999999998
  endloop
endfacet
facet normal 0.0 0.0 1.0
  outer loop
    vertex -4.150584057696664 38.57259956713082 1.9999999999999998
    vertex -10.950584057696663 34.37259956713083 1.9999999999999998
    vertex 10.649415942303332 34.772599567130825 1.9999999999999998
  endloop
endfacet
facet normal 0.0 0.0 1.0
  outer loop
    vertex -10.950584057696663 44.372599567130834 1.9999999999999998
    vertex -4.150584057696664 38.57259956713082 1.9999999999999998
    vertex -5.150584057696662 40.572599567130816 1.9999999999999998
  endloop
endfacet
facet normal 0.0 0.0 1.0
  outer loop
    vertex -5.150584057696662 40.572599567130816 1.9999999999999998
    vertex -4.150584057696664 38.57259956713082 1.9999999999999998
    vertex -4.443477276510112 39.86549278594427 1.9999999999999998
  endloop
endfacet
facet normal 0.0 0.0 1.0
  outer loop
    vertex -4.150584057696664 38.57259956713082 1.9999999999999998
    vertex 10.649415942303332 34.772599567130825 1.9999999999999998
    vertex 3.8494159423033327 38.57259956713082 1.9999999999999998
  endloop
endfacet
facet normal 0.0 0.0 1.0
  outer loop
    vertex 3.8494159423033327 38.57259956713082 1.9999999999999998
    vertex 10.649415942303332 34.772599567130825 1.9999999999999998
    vertex 3.8494159423033327 39.57259956713082 1.9999999999999998
  endloop
endfacet
facet normal 0.0 0.0 1.0
  outer loop
    vertex 3.8494159423033327 39.57259956713082 1.9999999999999998
    vertex 10.649415942303332 34.772599567130825 1.9999999999999998
    vertex 4.849415942303331 40.572599567130816 1.9999999999999998
  endloop
endfacet
facet normal 0.0 0.0 1.0
  outer loop
    vertex 4.849415942303331 40.572599567130816 1.9999999999999998
    vertex 10.649415942303332 34.772599567130825 1.9999999999999998
    vertex 4.849415942303331 41.572599567130816 1.9999999999999998
  endloop
endfacet
facet normal 0.0 0.0 1.0
  outer loop
    vertex 15.649415942303333 34.772599567130825 1.9999999999999998
    vertex 10.649415942303332 44.372599567130834 1.9999999999999998
    vertex 10.649415942303332 34.772599567130825 1.9999999999999998
  endloop
endfacet
facet normal 0.0 0.0 1.0
  outer loop
    vertex 10.649415942303332 44.372599567130834 1.9999999999999998
    vertex 15.649415942303333 34.772599567130825 1.9999999999999998
    vertex 15.649415942303333 44.372599567130834 1.9999999999999998
  endloop
endfacet
facet normal 0.0 0.0 1.0
  outer loop
    vertex -10.950584057696663 44.372599567130834 1.9999999999999998
    vertex -5.150584057696662 41.572599567130816 1.9999999999999998
    vertex 0.04941594230333415 44.372599567130834 1.9999999999999998
  endloop
endfacet
facet normal 0.0 0.0 1.0
  outer loop
    vertex -5.150584057696662 41.572599567130816 1.9999999999999998
    vertex -10.950584057696663 44.372599567130834 1.9999999999999998
    vertex -5.150584057696662 40.572599567130816 1.9999999999999998
  endloop
endfacet
facet normal 0.0 0.0 1.0
  outer loop
    vertex 0.04941594230333415 44.372599567130834 1.9999999999999998
    vertex -5.150584057696662 41.572599567130816 1.9999999999999998
    vertex 4.849415942303331 41.572599567130816 1.9999999999999998
  endloop
endfacet
facet normal 0.0 0.0 1.0
  outer loop
    vertex 0.04941594230333415 44.372599567130834 1.9999999999999998
    vertex 4.849415942303331 41.572599567130816 1.9999999999999998
    vertex 0.04941594230333415 49.37259956713085 1.9999999999999998
  endloop
endfacet
facet normal 0.0 0.0 1.0
  outer loop
    vertex 0.04941594230333415 49.37259956713085 1.9999999999999998
    vertex 4.849415942303331 41.572599567130816 1.9999999999999998
    vertex 10.649415942303332 49.37259956713085 1.9999999999999998
  endloop
endfacet
facet normal 0.0 0.0 1.0
  outer loop
    vertex 10.649415942303332 49.37259956713085 1.9999999999999998
    vertex 4.849415942303331 41.572599567130816 1.9999999999999998
    vertex 10.649415942303332 34.772599567130825 1.9999999999999998
  endloop
endfacet
facet normal 0.0 0.0 1.0
  outer loop
    vertex 10.649415942303332 49.37259956713085 1.9999999999999998
    vertex 10.649415942303332 34.772599567130825 1.9999999999999998
    vertex 10.649415942303332 44.372599567130834 1.9999999999999998
  endloop
endfacet
facet normal 0.0 0.0 1.0
  outer loop
    vertex -4.150584057696664 39.57259956713082 1.9999999999999998
    vertex -4.443477276510112 39.86549278594427 1.9999999999999998
    vertex -4.150584057696664 38.57259956713082 1.9999999999999998
  endloop
endfacet
endsolid Untitled-551f0e0f
